<?xml version="1.0" encoding="UTF-8" standalone="no"?>
<svg
   xmlns:dc="http://purl.org/dc/elements/1.1/"
   xmlns:cc="http://creativecommons.org/ns#"
   xmlns:rdf="http://www.w3.org/1999/02/22-rdf-syntax-ns#"
   xmlns:svg="http://www.w3.org/2000/svg"
   xmlns="http://www.w3.org/2000/svg"
   width="38.629166mm"
   height="13.229166mm"
   viewBox="0 0 38.629166 13.229166"
   version="1.1"
   id="svg1755">
  <defs
     id="defs1749">
    <clipPath
       id="clip2">
      <rect
         width="146"
         height="50"
         fill="#ffffff"
         transform="translate(24,603.254)"
         id="rect154"
         x="0"
         y="0" />
    </clipPath>
  </defs>
  <metadata
     id="metadata1752">
    <rdf:RDF>
      <cc:Work
         rdf:about="">
        <dc:format>image/svg+xml</dc:format>
        <dc:type
           rdf:resource="http://purl.org/dc/dcmitype/StillImage" />
        <dc:title></dc:title>
      </cc:Work>
    </rdf:RDF>
  </metadata>
  <g
     id="layer1"
     transform="translate(-86.51875,-141.55208)">
    <g
       clip-path="url(#clip2)"
       id="g104"
       transform="matrix(0.26458333,0,0,0.26458333,80.16875,-18.058869)">
      <path
         d="m 72.6353,649.487 h -3.9044 v -0.031 l 1.2912,-0.679 c 1.7216,-0.927 2.5517,-1.73 2.5517,-2.965 0,-1.235 -0.8915,-1.884 -2.4595,-1.884 -0.83,0 -1.5986,0.124 -2.152,0.34 l -0.0615,2.007 h 0.1537 l 1.4757,-2.161 c 0.7993,0 1.1683,0.617 1.1683,1.667 0,1.05 -0.4304,1.946 -1.5065,2.996 l -1.3834,1.328 v 0.834 h 4.7037 z"
         fill="#cd1719"
         id="path28" />
      <path
         d="m 76.0168,650.876 c -0.7071,0 -0.9531,-1.112 -0.9531,-3.459 0,-2.254 0.2767,-3.366 0.9531,-3.366 0.7071,0 0.9223,1.081 0.9223,3.459 0,2.254 -0.246,3.366 -0.9223,3.366 z m -0.0308,0.155 c 1.6294,0 2.9821,-1.205 2.9821,-3.583 0,-2.378 -1.3219,-3.552 -2.9206,-3.552 -1.5987,0 -3.0436,1.174 -3.0436,3.614 0,2.316 1.3835,3.521 2.9821,3.521 z"
         fill="#cd1719"
         id="path30" />
      <path
         d="m 82.4738,650.876 c -0.7071,0 -0.9531,-1.112 -0.9531,-3.459 0,-2.254 0.2767,-3.366 0.9531,-3.366 0.7071,0 0.9223,1.081 0.9223,3.459 0,2.254 -0.246,3.366 -0.9223,3.366 z m -0.0308,0.155 c 1.6294,0 2.9821,-1.205 2.9821,-3.583 0,-2.378 -1.3219,-3.552 -2.9206,-3.552 -1.5986,0 -3.0436,1.174 -3.0436,3.614 0,2.316 1.3835,3.521 2.9821,3.521 z"
         fill="#cd1719"
         id="path32" />
      <path
         d="m 53.545,624.316 2.2442,-1.112 v -16.491 h -1.6909 l -4.1196,5.157 h -0.4611 l 0.2459,-5.744 h 17.8926 l 0.2767,5.744 h -0.4919 l -4.0581,-5.157 h -1.7216 v 16.461 l 2.2442,1.111 v 0.556 H 53.545 Z"
         fill="#020203"
         id="path34" />
      <path
         d="m 69.9619,623.575 v -18.283 l -1.7217,-0.648 v -0.34 l 6.2717,-1.05 h 0.6763 v 8.647 l 0.1845,-0.123 c 1.3834,-1.143 3.3817,-1.884 5.3801,-1.884 2.7361,0 3.9658,1.451 3.9658,4.169 v 9.512 l 1.4757,0.741 v 0.556 h -8.2084 v -0.556 l 1.4756,-0.741 v -9.543 c 0,-1.482 -0.7071,-2.1 -1.9983,-2.1 -0.8608,0 -1.6294,0.247 -2.1827,0.68 v 10.994 l 1.4449,0.741 v 0.525 h -8.2085 v -0.525 z"
         fill="#020203"
         id="path36" />
      <path
         d="m 91.2656,617.275 4.673,-0.278 c 0,-3.737 -0.6764,-6.238 -2.0598,-6.238 -1.4757,0.031 -2.6132,2.903 -2.6132,6.516 z m 0.0615,0.68 c 0.1844,3.026 1.5986,5.343 5.0419,5.343 1.6601,0 2.8284,-0.711 3.935,-1.267 v 0.587 c -0.8607,1.081 -3.0127,2.625 -6.0256,2.625 -5.2878,0 -7.9932,-2.748 -7.9932,-7.535 0,-4.664 2.9513,-7.598 7.7473,-7.598 4.4885,0 6.8245,2.1 6.8245,7.659 v 0.155 h -9.5299 z"
         fill="#020203"
         id="path38" />
      <path
         d="m 24,632.161 c 0,-7.937 5.5953,-10.779 11.8669,-10.779 2.6439,0 5.1649,0.402 6.5483,0.958 l 0.123,5.559 h -0.5841 l -3.6892,-5.405 c -0.6149,-0.247 -1.2297,-0.34 -2.3365,-0.34 -3.3203,0 -5.0112,3.614 -4.9497,9.512 0.0615,7.073 1.3835,10.285 4.4271,10.285 0.7993,0 1.4142,-0.124 1.8138,-0.278 v -7.598 l -1.9983,-1.081 v -0.648 h 9.7149 v 0.679 l -1.9676,1.05 v 7.474 c -1.6601,0.587 -4.427,1.174 -7.3476,1.174 C 28.5193,642.723 24,639.634 24,632.161 Z"
         fill="#020203"
         id="path40" />
      <path
         d="m 44.8438,628.455 v -0.463 l 6.5483,-1.081 0.7071,0.062 v 12.106 c 0,1.451 0.7378,1.915 1.9983,1.915 0.7993,0 1.5372,-0.278 2.1213,-0.927 v -10.871 l -1.7831,-0.741 v -0.494 l 6.5483,-1.081 0.6456,0.062 v 13.866 l 1.7524,0.68 v 0.432 l -6.4561,0.741 -0.6456,-0.062 v -1.822 h -0.1845 c -1.199,1.05 -2.8591,1.946 -4.8882,1.946 -3.1358,0 -4.5807,-1.729 -4.5807,-4.385 v -9.142 z"
         fill="#020203"
         id="path42" />
      <path
         d="m 86.6552,626.88 0.5227,0.062 v 4.478 h 0.1537 c 0.7071,-3.274 2.2443,-4.509 4.1196,-4.509 0.3074,0 0.6149,0.031 0.7993,0.123 v 4.571 c -0.3074,-0.093 -0.83,-0.124 -1.3527,-0.124 -1.5064,0 -2.5824,0.248 -3.5662,0.68 v 8.833 l 1.4757,0.772 v 0.586 h -8.4852 v -0.556 l 1.5372,-0.772 v -12.075 l -1.7831,-0.494 v -0.402 z"
         fill="#020203"
         id="path44" />
      <path
         d="m 103.072,640.252 v -12.137 c -0.43,-0.247 -0.707,-0.556 -1.813,-0.525 -1.7528,0.062 -2.8596,2.563 -2.8596,7.011 0,4.014 0.7686,6.238 3.1356,6.176 0.677,0 1.199,-0.247 1.537,-0.525 z m 0,-13.002 v -4.694 l -1.783,-0.587 v -0.37 l 6.61,-1.143 0.615,0.093 v 20.29 l 1.814,0.618 v 0.525 l -6.518,0.834 -0.522,-0.062 v -1.668 h -0.154 c -0.953,0.896 -2.275,1.699 -4.3349,1.699 -3.5663,0 -6.1487,-2.564 -6.1487,-7.752 0,-5.497 3.0128,-8.184 7.5936,-8.184 1.353,-0.062 2.336,0.154 2.828,0.401 z"
         fill="#020203"
         id="path46" />
      <path
         d="m 118.197,623.082 c 0,1.482 -1.352,2.594 -2.89,2.594 -1.598,0 -2.859,-1.112 -2.859,-2.594 0,-1.483 1.261,-2.625 2.859,-2.625 1.538,-0.031 2.89,1.142 2.89,2.625 z m -0.615,3.798 0.554,0.062 v 14.083 l 1.475,0.772 v 0.587 h -8.485 v -0.556 l 1.537,-0.772 v -11.89 l -1.813,-0.68 v -0.463 z"
         fill="#020203"
         id="path48" />
      <path
         d="m 138.672,640.994 v -11.983 l -1.783,-0.587 v -0.587 l 6.517,-1.142 0.646,0.061 v 1.792 h 0.184 c 1.415,-1.174 3.505,-1.946 5.565,-1.946 2.828,0 4.089,1.266 4.089,4.077 v 10.284 l 1.506,0.803 v 0.587 h -8.485 v -0.556 l 1.537,-0.772 v -10.038 c 0,-1.544 -0.707,-2.161 -2.06,-2.161 -0.86,0 -1.568,0.216 -2.244,0.679 v 11.52 l 1.507,0.772 v 0.586 h -8.486 v -0.555 z"
         fill="#020203"
         id="path50" />
      <path
         d="m 129.265,640.252 v -6.053 l -1.076,0.093 c -1.691,0.123 -2.305,1.142 -2.305,3.428 0,2.44 0.86,3.088 2.059,3.088 0.646,-0.031 1.046,-0.216 1.322,-0.556 z m 0,-6.763 v -2.008 c 0,-3.026 -0.707,-4.014 -2.705,-4.014 -0.246,0 -0.43,0.03 -0.676,0.061 l -3.536,4.509 h -0.492 v -4.169 c 1.537,-0.432 3.444,-0.957 5.964,-0.957 4.335,0 6.856,1.142 6.856,4.539 v 9.79 l 1.568,0.371 v 0.371 c -0.615,0.37 -1.844,0.679 -3.197,0.679 -2.152,0 -3.167,-0.648 -3.628,-1.76 h -0.154 c -0.922,1.142 -2.213,1.822 -4.211,1.822 -2.583,0 -4.335,-1.513 -4.335,-4.138 0,-2.533 1.66,-3.923 5.072,-4.509 z"
         fill="#020203"
         id="path52" />
      <path
         d="m 72.5427,640.252 v -6.053 l -1.076,0.093 c -1.6909,0.123 -2.3057,1.142 -2.3057,3.428 0,2.44 0.8608,3.088 2.0598,3.088 0.6456,-0.031 1.0145,-0.216 1.3219,-0.556 z m 0,-6.763 v -2.008 c 0,-3.026 -0.7071,-4.014 -2.7054,-4.014 -0.2459,0 -0.4304,0.03 -0.6763,0.061 l -3.5355,4.509 h -0.4919 v -4.169 c 1.5372,-0.432 3.4432,-0.957 5.9642,-0.957 4.3348,0 6.8558,1.142 6.8558,4.539 v 9.79 l 1.5679,0.371 v 0.371 c -0.6149,0.37 -1.8446,0.679 -3.1973,0.679 -2.1521,0 -3.1666,-0.648 -3.6278,-1.76 h -0.1537 c -0.9223,1.142 -2.2135,1.822 -4.2118,1.822 -2.5824,0 -4.3348,-1.513 -4.3348,-4.138 0,-2.533 1.6601,-3.923 5.0726,-4.509 z"
         fill="#020203"
         id="path54" />
      <path
         d="m 56.7728,645.194 c 0.3074,-1.019 0.3074,-1.143 -0.246,-1.267 l -0.1844,-0.03 c -0.0615,-0.093 -0.0615,-0.217 0.0615,-0.278 0.3381,0.031 0.6763,0.031 1.1067,0.031 h 1.8754 c 0.6456,0 1.1375,0 1.4449,-0.031 -0.0615,0.185 -0.3074,1.05 -0.4304,1.42 -0.0308,0.093 -0.2152,0.062 -0.246,0 0.0615,-0.556 0.0923,-0.834 -0.3689,-0.957 -0.2459,-0.062 -0.5534,-0.093 -1.076,-0.093 h -0.5534 c -0.2767,0 -0.2767,0.031 -0.3996,0.371 l -0.7071,2.378 c -0.0615,0.216 -0.0615,0.278 0.1537,0.278 h 0.7071 c 0.953,0 1.1682,-0.062 1.3834,-0.525 l 0.1845,-0.34 c 0.0615,-0.062 0.2459,-0.062 0.2767,0.031 -0.0615,0.185 -0.2152,0.618 -0.3382,1.019 -0.123,0.402 -0.2152,0.803 -0.2767,1.081 -0.0615,0.062 -0.1844,0.062 -0.2767,0 v -0.401 c 0,-0.371 -0.2152,-0.464 -1.0452,-0.464 h -0.7379 c -0.2152,0 -0.2459,0.031 -0.3382,0.309 l -0.4611,1.544 c -0.2767,0.989 -0.3382,1.236 0.1844,1.297 l 0.3997,0.031 c 0.0615,0.062 0.0308,0.216 -0.0307,0.278 -0.5842,-0.031 -0.9531,-0.031 -1.3835,-0.031 -0.3996,0 -0.7378,0 -1.1375,0.031 -0.0922,-0.062 -0.0922,-0.216 0,-0.278 l 0.3074,-0.031 c 0.4919,-0.061 0.5842,-0.185 0.9223,-1.297 z"
         fill="#000000"
         id="path56" />
      <path
         d="m 63.137,647.726 c -0.0307,0.587 -0.3382,1.637 -1.076,2.44 -0.6149,0.679 -1.1682,0.741 -1.4449,0.741 -0.6456,0 -1.076,-0.494 -1.0146,-1.421 0.0308,-0.679 0.4304,-1.729 1.1068,-2.409 0.5226,-0.525 0.9838,-0.71 1.4142,-0.71 0.6763,0 1.0453,0.587 1.0145,1.359 z m -1.8753,-0.525 c -0.5841,0.834 -0.9838,2.131 -1.0146,2.687 -0.0307,0.37 0.123,0.679 0.4305,0.679 0.2152,0 0.4918,-0.092 0.7993,-0.556 0.4611,-0.648 0.9223,-2.069 0.953,-2.625 0,-0.339 -0.0615,-0.71 -0.3996,-0.71 -0.2152,0.031 -0.4612,0.124 -0.7686,0.525 z"
         fill="#000000"
         id="path58" />
      <path
         d="m 65.1358,647.387 -0.4304,1.358 h 0.0615 c 0.3074,-0.617 0.7993,-1.482 1.076,-1.822 0.246,-0.309 0.4919,-0.556 0.7378,-0.556 0.369,0 0.3997,0.371 0.3997,0.525 0,0.155 -0.0922,0.464 -0.2152,0.649 -0.123,0.154 -0.2767,0.185 -0.3382,-0.062 -0.0615,-0.278 -0.1229,-0.432 -0.2152,-0.432 -0.0922,0 -0.2152,0.093 -0.3689,0.309 -0.6149,0.834 -1.199,2.162 -1.7216,3.397 -0.0308,0.093 -0.0923,0.123 -0.1845,0.123 -0.123,0 -0.3996,-0.03 -0.3382,-0.278 0.123,-0.432 0.7686,-2.347 1.0453,-3.397 0.0308,-0.123 0,-0.216 -0.0922,-0.216 -0.2767,0 -0.5534,0.309 -0.7071,0.556 -0.0922,0.031 -0.1845,-0.031 -0.1537,-0.185 0.3381,-0.587 0.7071,-1.05 1.199,-1.05 0.5226,0.061 0.3381,0.803 0.2459,1.081 z"
         fill="#000000"
         id="path60" />
      <path
         d="m 88.1924,647.787 c 0,0.68 0,1.483 -0.1537,2.378 h 0.0307 c 0.3382,-0.525 0.6149,-1.204 0.8608,-1.853 0.2152,-0.618 0.3689,-1.729 0.3689,-2.007 0.0308,-0.309 0.1845,-0.34 0.246,-0.34 0.0615,0 0.2152,0.031 0.2767,0.093 0.0615,0.031 0.0922,0.092 0.0922,0.216 0,0.278 -0.2767,1.668 -1.1682,3.304 -0.4919,0.896 -0.8608,1.606 -1.6909,2.595 -0.7379,0.926 -1.2605,1.08 -1.5987,1.08 -0.3381,0 -0.5226,-0.216 -0.5226,-0.494 0,-0.278 0.1845,-0.463 0.3997,-0.463 0.0922,0 0.2152,0.062 0.2766,0.185 0.0308,0.062 0.123,0.186 0.2767,0.186 0.123,0 0.3075,-0.093 0.5534,-0.309 0.246,-0.216 0.7071,-0.896 0.8916,-1.606 0.1537,-0.556 0.2152,-1.544 0.2152,-2.471 -0.0308,-1.204 -0.1845,-1.606 -0.3997,-1.606 -0.2152,0 -0.3689,0.371 -0.5841,0.834 -0.123,0.031 -0.1845,-0.031 -0.1845,-0.154 0.2152,-0.711 0.6456,-1.39 1.1683,-1.39 0.5534,-0.031 0.6456,1.05 0.6456,1.822 z"
         fill="#000000"
         id="path62" />
      <path
         d="m 93.204,646.583 c 0,0.834 -1.0145,1.359 -2.4594,1.791 -0.0615,0.186 -0.1537,0.525 -0.1537,0.958 0,0.37 0.2152,0.617 0.4918,0.617 0.369,0 0.6149,-0.216 1.0761,-0.617 0.0922,0 0.1537,0.092 0.1229,0.185 -0.6148,0.803 -1.199,0.988 -1.6294,0.988 -0.6148,0 -0.83,-0.617 -0.83,-1.142 0,-0.68 0.3996,-2.008 1.5064,-2.903 0.5226,-0.433 0.9223,-0.525 1.2297,-0.525 0.4304,0 0.6456,0.37 0.6456,0.648 z m -1.5986,0.216 c -0.3997,0.464 -0.6149,0.958 -0.7379,1.267 0.6764,-0.217 0.9838,-0.433 1.3527,-0.803 0.3075,-0.309 0.3997,-0.649 0.3997,-0.742 0,-0.092 -0.0615,-0.247 -0.2459,-0.247 -0.1538,0 -0.3997,0.093 -0.7686,0.525 z"
         fill="#000000"
         id="path64" />
      <path
         d="m 96.7384,645.687 c 0.1844,-0.093 0.4304,0.031 0.4919,0.155 -0.1537,0.401 -1.0453,2.779 -1.3527,3.767 -0.0615,0.186 0,0.247 0.0615,0.247 0.1844,0 0.4611,-0.185 1.0452,-0.71 0.0615,0 0.1537,0.062 0.1537,0.154 -0.4304,0.618 -1.1375,1.205 -1.6908,1.205 -0.246,0 -0.3075,-0.216 -0.3075,-0.278 0,-0.062 0.0308,-0.185 0.0923,-0.432 l 0.3381,-0.958 h -0.0307 c -0.7071,0.958 -1.7524,1.699 -2.2443,1.699 -0.2767,0 -0.4611,-0.309 -0.4611,-0.618 0,-0.247 0.2152,-1.112 0.8915,-2.1 0.4919,-0.71 0.9223,-1.143 1.3527,-1.39 0.3997,-0.247 0.6457,-0.308 0.9223,-0.308 0.123,0 0.1845,0.03 0.246,0.061 0.0307,0.031 0.1537,0.124 0.2152,0.216 z m -1.7524,1.235 c -0.6456,0.618 -1.2605,2.039 -1.2605,2.811 0,0.123 0.0615,0.216 0.1538,0.216 0.0922,0 0.3996,-0.154 0.9837,-0.71 0.7686,-0.772 1.199,-1.699 1.3527,-2.317 -0.0614,-0.216 -0.2459,-0.401 -0.5226,-0.401 -0.2459,0 -0.3997,0.093 -0.7071,0.401 z"
         fill="#000000"
         id="path66" />
      <path
         d="m 99.0753,646.985 -0.4304,1.359 h 0.0614 c 0.3075,-0.618 0.7994,-1.483 1.0761,-1.823 0.2456,-0.308 0.4916,-0.555 0.7376,-0.555 0.369,0 0.4,0.37 0.4,0.525 0,0.154 -0.092,0.463 -0.215,0.648 -0.123,0.155 -0.277,0.185 -0.339,-0.062 -0.061,-0.278 -0.122,-0.432 -0.215,-0.432 -0.092,0 -0.2149,0.093 -0.3686,0.309 -0.6149,0.834 -1.199,2.162 -1.7217,3.397 -0.0307,0.093 -0.0922,0.124 -0.1844,0.124 -0.123,0 -0.3997,-0.031 -0.3382,-0.278 0.123,-0.433 0.7686,-2.348 1.0453,-3.398 0.0307,-0.123 0,-0.216 -0.0923,-0.216 -0.2767,0 -0.5533,0.309 -0.7071,0.556 -0.0922,0.031 -0.1844,-0.031 -0.1537,-0.185 0.3382,-0.587 0.7071,-1.05 1.199,-1.05 0.5226,0.031 0.3382,0.772 0.246,1.081 z"
         fill="#000000"
         id="path68" />
      <path
         d="m 103.041,646.552 c 0,0.186 -0.092,0.278 -0.184,0.34 -0.062,0.031 -0.123,0 -0.185,-0.093 -0.184,-0.185 -0.307,-0.339 -0.615,-0.339 -0.307,0 -0.43,0.278 -0.43,0.432 0,0.216 0.062,0.463 0.338,0.988 0.246,0.463 0.4,0.711 0.4,1.205 0,0.278 -0.154,0.679 -0.523,1.05 -0.276,0.247 -0.645,0.401 -1.014,0.401 -0.4,0 -0.615,-0.309 -0.615,-0.587 0,-0.092 0.031,-0.216 0.154,-0.37 0.092,-0.062 0.184,-0.062 0.276,0 0.123,0.154 0.431,0.432 0.707,0.432 0.246,0 0.492,-0.278 0.492,-0.618 0,-0.185 -0.123,-0.525 -0.369,-0.957 -0.276,-0.463 -0.369,-0.834 -0.369,-0.988 0,-0.433 0.185,-0.741 0.615,-1.143 0.308,-0.278 0.615,-0.37 0.738,-0.37 0.338,0 0.584,0.37 0.584,0.617 z"
         fill="#000000"
         id="path70" />
      <path
         d="m 104.179,649.949 c 0,0.772 -0.861,1.359 -1.537,1.544 -0.062,-0.031 -0.092,-0.154 -0.062,-0.216 0.339,-0.154 0.923,-0.525 0.923,-1.112 0,-0.216 -0.123,-0.37 -0.338,-0.432 -0.093,-0.031 -0.154,-0.124 -0.154,-0.247 0,-0.247 0.215,-0.402 0.43,-0.402 0.492,0 0.738,0.464 0.738,0.865 z"
         fill="#000000"
         id="path72" />
      <path
         d="m 111.219,645.687 c 0.184,-0.093 0.43,0.031 0.492,0.155 -0.154,0.401 -1.046,2.779 -1.353,3.767 -0.061,0.186 0,0.247 0.062,0.247 0.184,0 0.461,-0.185 1.045,-0.71 0.061,0 0.154,0.062 0.154,0.154 -0.431,0.618 -1.138,1.205 -1.691,1.205 -0.246,0 -0.308,-0.216 -0.308,-0.278 0,-0.062 0.031,-0.185 0.092,-0.432 l 0.339,-0.958 h -0.031 c -0.707,0.958 -1.753,1.699 -2.244,1.699 -0.277,0 -0.462,-0.309 -0.462,-0.618 0,-0.247 0.216,-1.112 0.892,-2.1 0.492,-0.71 0.922,-1.143 1.353,-1.39 0.399,-0.247 0.645,-0.308 0.922,-0.308 0.123,0 0.184,0.03 0.246,0.061 0.031,0.031 0.154,0.124 0.215,0.216 z m -1.753,1.235 c -0.645,0.618 -1.26,2.039 -1.26,2.811 0,0.123 0.061,0.216 0.154,0.216 0.092,0 0.399,-0.154 0.984,-0.71 0.768,-0.772 1.198,-1.699 1.352,-2.317 -0.061,-0.216 -0.246,-0.401 -0.522,-0.401 -0.246,0 -0.4,0.093 -0.708,0.401 z"
         fill="#000000"
         id="path74" />
      <path
         d="m 115.431,646.984 c 0.092,-0.247 0.123,-0.401 -0.031,-0.401 -0.215,0 -0.615,0.37 -0.922,0.741 -0.092,0 -0.154,-0.093 -0.154,-0.185 0.308,-0.494 0.984,-1.205 1.599,-1.205 0.246,0 0.461,0.309 0.307,0.711 l -0.799,2.254 c -0.154,0.402 -0.184,0.618 -0.184,0.772 0,0.124 0.061,0.247 0.215,0.247 0.461,0 1.229,-1.081 1.598,-1.637 0.4,-0.648 0.615,-1.482 0.646,-1.729 0.061,-0.371 0.307,-0.587 0.492,-0.587 0.246,0 0.307,0.216 0.307,0.309 0,0.216 -0.123,0.432 -0.369,0.957 -0.369,0.803 -0.553,1.606 -0.553,2.193 0,0.309 0.123,0.463 0.369,0.463 0.307,0 0.83,-0.401 1.26,-1.05 0.4,-0.617 0.615,-1.266 0.615,-1.791 0,-0.247 -0.03,-0.525 -0.092,-0.772 0.031,-0.216 0.185,-0.401 0.369,-0.401 0.338,0 0.4,0.401 0.4,0.679 0,0.618 -0.339,1.575 -1.107,2.563 -0.738,0.927 -1.537,1.328 -1.937,1.328 -0.215,0 -0.584,-0.278 -0.584,-0.617 0,-0.278 0.092,-0.649 0.184,-0.927 0.062,-0.185 -0.03,-0.154 -0.153,0 -0.492,0.68 -1.322,1.513 -1.937,1.513 -0.277,0 -0.523,-0.308 -0.523,-0.586 0,-0.217 0.062,-0.495 0.185,-0.803 z"
         fill="#000000"
         id="path76" />
      <path
         d="m 124.162,647.293 c -0.03,0.587 -0.338,1.637 -1.076,2.44 -0.614,0.68 -1.168,0.741 -1.445,0.741 -0.645,0 -1.076,-0.494 -1.014,-1.42 0.031,-0.68 0.43,-1.73 1.107,-2.409 0.522,-0.525 0.983,-0.71 1.414,-0.71 0.676,0 1.045,0.586 1.014,1.358 z m -1.875,-0.494 c -0.584,0.834 -0.984,2.131 -1.014,2.687 -0.031,0.371 0.123,0.68 0.43,0.68 0.215,0 0.492,-0.093 0.799,-0.556 0.461,-0.649 0.923,-2.069 0.953,-2.625 0,-0.34 -0.061,-0.711 -0.399,-0.711 -0.216,0 -0.461,0.093 -0.769,0.525 z"
         fill="#000000"
         id="path78" />
      <path
         d="m 126.161,646.985 -0.43,1.359 h 0.061 c 0.308,-0.618 0.8,-1.483 1.076,-1.823 0.246,-0.308 0.492,-0.555 0.738,-0.555 0.369,0 0.4,0.37 0.4,0.525 0,0.154 -0.092,0.463 -0.215,0.648 -0.123,0.155 -0.277,0.185 -0.339,-0.062 -0.061,-0.278 -0.123,-0.432 -0.215,-0.432 -0.092,0 -0.215,0.093 -0.369,0.309 -0.615,0.834 -1.199,2.162 -1.721,3.397 -0.031,0.093 -0.093,0.124 -0.185,0.124 -0.123,0 -0.399,-0.031 -0.338,-0.278 0.123,-0.433 0.769,-2.348 1.045,-3.398 0.031,-0.123 0,-0.216 -0.092,-0.216 -0.277,0 -0.553,0.309 -0.707,0.556 -0.092,0.031 -0.184,-0.031 -0.154,-0.185 0.338,-0.587 0.707,-1.05 1.199,-1.05 0.523,0.031 0.338,0.772 0.246,1.081 z"
         fill="#000000"
         id="path80" />
      <path
         d="m 129.42,644.267 c 0.246,-0.742 0.246,-0.896 0.061,-0.989 l -0.184,-0.092 c -0.062,-0.031 -0.062,-0.093 -0.031,-0.155 0.308,-0.154 0.799,-0.308 1.23,-0.401 l 0.061,0.062 c -0.092,0.308 -0.184,0.679 -0.492,1.575 l -1.045,3.181 h 0.031 c 0.307,-0.433 0.615,-0.803 1.045,-1.112 0.277,-0.216 0.646,-0.402 1.107,-0.402 0.584,0 0.738,0.371 0.738,0.587 0,0.124 -0.031,0.433 -0.431,0.803 -0.492,0.463 -0.983,0.834 -1.629,0.958 -0.062,0.03 -0.062,0.154 -0.031,0.216 0.092,0.309 0.277,0.803 0.369,1.019 0.123,0.247 0.215,0.37 0.338,0.37 0.123,0 0.338,-0.154 0.615,-0.494 0.092,0 0.123,0.031 0.123,0.124 -0.369,0.803 -0.861,1.019 -1.014,1.019 -0.185,0 -0.308,-0.124 -0.462,-0.432 -0.123,-0.247 -0.368,-0.865 -0.461,-1.143 -0.092,-0.278 -0.184,-0.402 -0.369,-0.371 -0.215,0.062 -0.246,0.093 -0.369,0.433 l -0.522,1.359 c -0.031,0.092 -0.092,0.154 -0.185,0.154 -0.123,0 -0.399,-0.031 -0.338,-0.278 z m 1.414,2.131 c -0.277,0 -0.646,0.247 -0.984,0.556 -0.369,0.339 -0.799,0.864 -0.922,1.173 -0.031,0.093 -0.031,0.185 0.092,0.155 0.215,-0.031 0.769,-0.217 1.507,-0.711 0.43,-0.309 0.645,-0.679 0.645,-0.895 -0.031,-0.124 -0.092,-0.278 -0.338,-0.278 z"
         fill="#000000"
         id="path82" />
      <path
         d="m 135.567,646.829 c 0.062,-0.123 0.062,-0.216 -0.03,-0.216 -0.062,0 -0.338,0.124 -0.83,0.587 -0.093,0 -0.154,-0.093 -0.123,-0.185 0.553,-0.68 1.352,-1.081 1.691,-1.081 0.061,0 0.122,0.062 0.153,0.093 0.062,0.061 0.062,0.154 -0.061,0.463 l -1.199,3.057 c -0.031,0.093 -0.062,0.247 0.031,0.247 0.184,0 0.707,-0.37 1.045,-0.803 0.092,0 0.153,0.093 0.153,0.186 -0.153,0.308 -1.198,1.297 -1.906,1.297 -0.061,0 -0.123,-0.031 -0.153,-0.093 -0.062,-0.062 -0.093,-0.185 -0.031,-0.278 z m 1.199,-2.686 c 0,0.339 -0.215,0.679 -0.522,0.679 -0.277,0 -0.369,-0.216 -0.369,-0.401 0,-0.247 0.154,-0.68 0.553,-0.68 0.246,-0.031 0.338,0.155 0.338,0.402 z"
         fill="#000000"
         id="path84" />
      <path
         d="m 138.119,648.281 c 0.738,-1.143 1.753,-2.316 2.521,-2.316 0.4,0 0.554,0.216 0.554,0.587 0,0.185 -0.093,0.494 -0.154,0.741 -0.185,0.525 -0.922,2.285 -0.953,2.378 -0.031,0.092 -0.062,0.216 0.031,0.216 0.184,0 0.645,-0.371 0.953,-0.741 0.153,-0.031 0.153,0.062 0.153,0.154 -0.399,0.68 -1.199,1.205 -1.752,1.205 -0.092,0 -0.246,-0.155 -0.246,-0.278 0,-0.093 0.031,-0.186 0.246,-0.711 0.215,-0.525 0.584,-1.575 0.83,-2.131 0.092,-0.185 0.215,-0.586 0.215,-0.802 0,-0.124 0,-0.248 -0.153,-0.248 -0.246,0 -0.831,0.525 -1.415,1.298 -0.553,0.71 -0.953,1.544 -1.568,2.748 -0.061,0.093 -0.092,0.124 -0.184,0.124 -0.123,0 -0.4,-0.031 -0.307,-0.278 l 1.168,-3.397 c 0.061,-0.155 0.061,-0.247 -0.031,-0.247 -0.246,0 -0.584,0.216 -0.922,0.525 -0.092,0 -0.123,-0.062 -0.123,-0.155 0.399,-0.556 1.014,-0.988 1.506,-0.988 0.246,0 0.369,0.185 0.277,0.432 z"
         fill="#000000"
         id="path86" />
      <path
         d="m 146.113,646.12 c 0.093,0 0.185,-0.031 0.4,-0.031 0.461,0 1.383,0.216 1.383,1.235 0,0.988 -0.553,1.853 -1.352,2.563 -0.646,0.587 -1.415,0.618 -1.445,0.618 -0.092,0 -0.185,-0.031 -0.308,-0.062 -0.092,0.031 -0.123,0.093 -0.153,0.185 l -0.431,1.267 c -0.276,0.834 -0.246,0.926 0.092,0.988 l 0.431,0.062 c 0.061,0.061 0.061,0.185 -0.031,0.247 -0.768,0 -1.537,0.031 -2.213,0.062 -0.062,-0.062 -0.062,-0.186 0,-0.248 l 0.215,-0.03 c 0.553,-0.093 0.615,-0.371 0.768,-0.803 l 1.876,-5.621 c -0.369,0.093 -0.584,0.216 -1.015,0.432 -0.092,0 -0.123,-0.092 -0.092,-0.216 0.369,-0.278 0.769,-0.463 1.26,-0.587 l 0.308,-0.864 c 0.123,-0.124 0.553,0 0.584,0.154 z m -1.137,3.489 c -0.031,0.124 -0.031,0.216 0,0.278 0.061,0.093 0.215,0.247 0.369,0.247 0.123,0 0.707,-0.154 1.137,-0.864 0.492,-0.803 0.584,-1.545 0.584,-2.039 0,-0.525 -0.369,-0.803 -0.799,-0.803 -0.123,0 -0.184,0 -0.277,0.031 z"
         fill="#000000"
         id="path88" />
      <path
         d="m 149.925,646.985 -0.431,1.359 h 0.062 c 0.307,-0.618 0.799,-1.483 1.076,-1.823 0.246,-0.308 0.492,-0.555 0.738,-0.555 0.369,0 0.399,0.37 0.399,0.525 0,0.154 -0.092,0.463 -0.215,0.648 -0.123,0.155 -0.276,0.185 -0.338,-0.062 -0.061,-0.278 -0.123,-0.432 -0.215,-0.432 -0.092,0 -0.215,0.093 -0.369,0.309 -0.615,0.834 -1.199,2.162 -1.722,3.397 -0.03,0.093 -0.092,0.124 -0.184,0.124 -0.123,0 -0.4,-0.031 -0.338,-0.278 0.123,-0.433 0.768,-2.348 1.045,-3.398 0.031,-0.123 0,-0.216 -0.092,-0.216 -0.277,0 -0.554,0.309 -0.707,0.556 -0.093,0.031 -0.185,-0.031 -0.154,-0.185 0.338,-0.587 0.707,-1.05 1.199,-1.05 0.492,0.031 0.338,0.772 0.246,1.081 z"
         fill="#000000"
         id="path90" />
      <path
         d="m 154.936,647.293 c -0.031,0.587 -0.338,1.637 -1.076,2.44 -0.615,0.68 -1.168,0.741 -1.445,0.741 -0.646,0 -1.076,-0.494 -1.015,-1.42 0.031,-0.68 0.431,-1.73 1.107,-2.409 0.523,-0.525 0.984,-0.71 1.414,-0.71 0.707,0 1.046,0.586 1.015,1.358 z m -1.845,-0.494 c -0.584,0.834 -0.984,2.131 -1.014,2.687 -0.031,0.371 0.123,0.68 0.43,0.68 0.215,0 0.492,-0.093 0.799,-0.556 0.462,-0.649 0.923,-2.069 0.953,-2.625 0,-0.34 -0.061,-0.711 -0.399,-0.711 -0.246,0 -0.461,0.093 -0.769,0.525 z"
         fill="#000000"
         id="path92" />
      <path
         d="m 158.042,646.058 c 0.123,0.031 0.215,0.093 0.246,0.093 0.092,0 0.307,0 0.492,-0.062 0.184,-0.062 0.399,-0.093 0.461,-0.093 0.153,0 0.215,0.093 0.215,0.278 0,0.247 -0.123,0.34 -0.215,0.34 -0.093,0 -0.246,-0.031 -0.338,-0.062 -0.093,-0.031 -0.308,-0.062 -0.369,-0.062 -0.062,0 -0.093,0.031 -0.093,0.062 0.031,0.093 0.062,0.247 0.062,0.402 0,0.864 -0.584,1.698 -1.291,2.161 -0.123,0.062 -0.492,0.217 -0.707,0.278 -0.123,0.062 -0.216,0.216 -0.216,0.371 0,0.123 0.062,0.309 0.339,0.494 0.245,0.185 0.614,0.401 0.983,0.649 0.584,0.37 0.769,0.71 0.769,1.05 0,0.617 -0.83,1.297 -2.49,1.297 -0.738,0 -1.599,-0.309 -1.599,-1.019 0,-0.834 1.199,-1.328 1.722,-1.514 -0.277,-0.185 -0.339,-0.339 -0.339,-0.494 0,-0.185 0.308,-0.648 0.462,-0.834 -0.185,-0.061 -0.738,-0.247 -0.738,-0.957 0,-0.618 0.307,-1.328 0.83,-1.822 0.492,-0.433 0.953,-0.649 1.506,-0.649 0.092,-0.031 0.185,0.031 0.308,0.093 z m -0.369,6.115 c 0,-0.186 -0.123,-0.433 -0.431,-0.649 -0.43,-0.309 -0.768,-0.525 -0.953,-0.525 -0.246,-0.031 -0.645,0.186 -0.953,0.402 -0.276,0.216 -0.399,0.463 -0.399,0.71 0,0.494 0.676,0.834 1.383,0.834 0.492,-0.062 1.353,-0.278 1.353,-0.772 z m -0.769,-5.467 c -0.399,0.495 -0.922,1.421 -0.922,1.977 0,0.216 0.154,0.371 0.307,0.371 0.154,0 0.4,-0.062 0.677,-0.433 0.584,-0.71 0.922,-1.667 0.922,-2.007 0,-0.216 -0.154,-0.371 -0.307,-0.371 -0.154,0.031 -0.369,0.093 -0.677,0.463 z"
         fill="#000000"
         id="path94" />
      <path
         d="m 160.593,646.985 -0.431,1.359 h 0.062 c 0.307,-0.618 0.799,-1.483 1.076,-1.823 0.246,-0.308 0.492,-0.555 0.738,-0.555 0.369,0 0.399,0.37 0.399,0.525 0,0.154 -0.092,0.463 -0.215,0.648 -0.123,0.155 -0.276,0.185 -0.338,-0.062 -0.061,-0.278 -0.123,-0.432 -0.215,-0.432 -0.092,0 -0.215,0.093 -0.369,0.309 -0.615,0.834 -1.199,2.162 -1.722,3.397 -0.03,0.093 -0.092,0.124 -0.184,0.124 -0.123,0 -0.4,-0.031 -0.338,-0.278 0.123,-0.433 0.768,-2.348 1.045,-3.398 0.031,-0.123 0,-0.216 -0.092,-0.216 -0.277,0 -0.554,0.309 -0.707,0.556 -0.093,0.031 -0.185,-0.031 -0.154,-0.185 0.338,-0.587 0.707,-1.05 1.199,-1.05 0.523,0.031 0.338,0.772 0.246,1.081 z"
         fill="#000000"
         id="path96" />
      <path
         d="m 165.267,646.583 c 0,0.834 -1.015,1.359 -2.46,1.791 -0.061,0.186 -0.154,0.525 -0.154,0.958 0,0.37 0.216,0.617 0.492,0.617 0.369,0 0.615,-0.216 1.076,-0.617 0.092,0 0.154,0.092 0.123,0.185 -0.615,0.803 -1.199,0.988 -1.629,0.988 -0.615,0 -0.83,-0.617 -0.83,-1.142 0,-0.68 0.399,-2.008 1.506,-2.903 0.523,-0.433 0.922,-0.525 1.23,-0.525 0.4,0 0.646,0.37 0.646,0.648 z m -1.63,0.216 c -0.4,0.464 -0.615,0.958 -0.738,1.267 0.677,-0.217 0.984,-0.433 1.353,-0.803 0.307,-0.309 0.4,-0.649 0.4,-0.742 0,-0.092 -0.062,-0.247 -0.246,-0.247 -0.123,0 -0.4,0.093 -0.769,0.525 z"
         fill="#000000"
         id="path98" />
      <path
         d="m 167.602,646.552 c 0,0.186 -0.092,0.278 -0.185,0.34 -0.061,0.031 -0.123,0 -0.184,-0.093 -0.185,-0.185 -0.308,-0.339 -0.615,-0.339 -0.307,0 -0.43,0.278 -0.43,0.432 0,0.216 0.061,0.463 0.338,0.988 0.246,0.463 0.399,0.711 0.399,1.205 0,0.278 -0.153,0.679 -0.522,1.05 -0.277,0.247 -0.646,0.401 -1.015,0.401 -0.399,0 -0.615,-0.309 -0.615,-0.587 0,-0.092 0.031,-0.216 0.154,-0.37 0.092,-0.062 0.185,-0.062 0.277,0 0.123,0.154 0.43,0.432 0.707,0.432 0.246,0 0.492,-0.278 0.492,-0.618 0,-0.185 -0.123,-0.525 -0.369,-0.957 -0.277,-0.463 -0.369,-0.834 -0.369,-0.988 0,-0.433 0.184,-0.741 0.615,-1.143 0.307,-0.278 0.615,-0.37 0.738,-0.37 0.338,0 0.584,0.37 0.584,0.617 z"
         fill="#000000"
         id="path100" />
      <path
         d="m 170,646.552 c 0,0.186 -0.092,0.278 -0.184,0.34 -0.062,0.031 -0.123,0 -0.185,-0.093 -0.184,-0.185 -0.307,-0.339 -0.615,-0.339 -0.307,0 -0.43,0.278 -0.43,0.432 0,0.216 0.062,0.463 0.338,0.988 0.246,0.463 0.4,0.711 0.4,1.205 0,0.278 -0.154,0.679 -0.523,1.05 -0.276,0.247 -0.645,0.401 -1.014,0.401 -0.4,0 -0.615,-0.309 -0.615,-0.587 0,-0.092 0.031,-0.216 0.154,-0.37 0.092,-0.062 0.184,-0.062 0.276,0 0.123,0.154 0.431,0.432 0.707,0.432 0.246,0 0.492,-0.278 0.492,-0.618 0,-0.185 -0.123,-0.525 -0.369,-0.957 -0.276,-0.463 -0.369,-0.834 -0.369,-0.988 0,-0.433 0.185,-0.741 0.615,-1.143 0.308,-0.278 0.615,-0.37 0.738,-0.37 0.369,0 0.584,0.37 0.584,0.617 z"
         fill="#000000"
         id="path102" />
    </g>
  </g>
</svg>
