<?xml version="1.0" encoding="UTF-8" standalone="no"?>
<svg
   xmlns:dc="http://purl.org/dc/elements/1.1/"
   xmlns:cc="http://creativecommons.org/ns#"
   xmlns:rdf="http://www.w3.org/1999/02/22-rdf-syntax-ns#"
   xmlns:svg="http://www.w3.org/2000/svg"
   xmlns="http://www.w3.org/2000/svg"
   width="80.346016mm"
   height="60.695423mm"
   viewBox="0 0 80.346016 60.695423"
   version="1.1"
   id="svg1023">
  <defs
     id="defs1017" />
  <metadata
     id="metadata1020">
    <rdf:RDF>
      <cc:Work
         rdf:about="">
        <dc:format>image/svg+xml</dc:format>
        <dc:type
           rdf:resource="http://purl.org/dc/dcmitype/StillImage" />
        <dc:title></dc:title>
      </cc:Work>
    </rdf:RDF>
  </metadata>
  <g
     id="layer1"
     transform="translate(-62.562974,-117.81895)">
    <path
       d="m 64.944224,130.3602 v -0.26987 l 1.17475,-0.23813 v -10.63625 h -0.904875 l -2.2225,3.66713 h -0.269875 l 0.142875,-3.96875 h 9.8425 l 0.127,3.96875 h -0.269875 l -2.159,-3.66713 h -0.936625 v 10.63625 l 1.17475,0.23813 v 0.26987 z m 8.337232,-0.26987 0.904875,-0.254 v -10.8585 l -0.9525,-0.381 v -0.26988 l 3.444875,-0.508 0.365125,0.0476 v 4.77837 h 0.09525 c 0.370417,-0.381 0.820209,-0.67204 1.349375,-0.87312 0.529167,-0.21167 1.063625,-0.3175 1.603375,-0.3175 0.751417,0 1.30175,0.18521 1.651,0.55562 0.34925,0.37042 0.523875,0.9525 0.523875,1.74625 v 6.08013 l 0.904928,0.254 v 0.26987 h -4.603803 v -0.26987 l 0.809625,-0.20638 v -5.969 c 0,-0.42333 -0.09525,-0.73554 -0.28575,-0.93662 -0.1905,-0.20109 -0.470958,-0.30163 -0.841375,-0.30163 -0.232833,0 -0.4445,0.0265 -0.635,0.0794 -0.179916,0.0529 -0.354541,0.12171 -0.523875,0.20637 v 6.9215 l 0.79375,0.20638 v 0.26987 h -4.60375 z m 18.453682,-4.3815 h -5.207 c 0.05292,1.06891 0.291042,1.91558 0.714375,2.54 0.433917,0.61383 1.201209,0.92075 2.301875,0.92075 0.359833,0 0.6985,-0.0265 1.016,-0.0794 0.3175,-0.0529 0.624417,-0.14287 0.92075,-0.26987 v 0.254 c -0.243417,0.37041 -0.661458,0.71966 -1.254125,1.04775 -0.592667,0.3175 -1.317625,0.47625 -2.174875,0.47625 -1.4605,0 -2.566458,-0.41275 -3.317875,-1.23825 -0.751416,-0.83609 -1.127125,-1.96321 -1.127125,-3.38138 0,-1.38641 0.386292,-2.48179 1.158875,-3.28612 0.783167,-0.81492 1.836209,-1.22238 3.159125,-1.22238 1.3335,0 2.301875,0.34925 2.905125,1.04775 0.60325,0.68792 0.904875,1.67746 0.904875,2.96863 z m -3.8735,-3.937 c -0.41275,0 -0.740833,0.29104 -0.98425,0.87312 -0.232833,0.58209 -0.34925,1.49754 -0.34925,2.74638 l 2.460625,-0.11113 c 0,-1.35466 -0.09525,-2.27541 -0.28575,-2.76225 -0.179916,-0.49741 -0.460375,-0.74612 -0.841375,-0.74612 z m -18.932789,23.876 c -0.92075,0 -1.756833,-0.11113 -2.50825,-0.33338 -0.751417,-0.22225 -1.386417,-0.56621 -1.905,-1.03187 -0.518583,-0.47625 -0.92075,-1.08479 -1.2065,-1.82563 -0.28575,-0.75141 -0.428625,-1.64041 -0.428625,-2.667 0,-1.10066 0.169333,-2.032 0.508,-2.794 0.338667,-0.762 0.788458,-1.37583 1.349375,-1.8415 0.5715,-0.47625 1.232958,-0.82021 1.984375,-1.03187 0.751417,-0.21167 1.529292,-0.3175 2.333625,-0.3175 0.73025,0 1.397,0.0476 2.00025,0.14287 0.613833,0.0847 1.084791,0.19579 1.412875,0.33338 l 0.127,3.39725 h -0.269875 l -2.3495,-3.429 c -0.137584,-0.0741 -0.280459,-0.12171 -0.428625,-0.14288 -0.137583,-0.0212 -0.280458,-0.0317 -0.428625,-0.0317 -0.804333,0 -1.439333,0.41804 -1.905,1.25413 -0.465667,0.8255 -0.6985,2.23837 -0.6985,4.23862 0,1.11125 0.04233,2.04259 0.127,2.794 0.09525,0.75142 0.238125,1.34938 0.428625,1.79388 0.1905,0.4445 0.433917,0.762 0.73025,0.9525 0.306917,0.17991 0.661458,0.26987 1.063625,0.26987 0.179917,0 0.34925,-0.0212 0.508,-0.0635 0.15875,-0.0423 0.291041,-0.10054 0.396875,-0.17462 v -4.77838 l -1.04775,-0.1905 v -0.26987 h 4.85775 v 0.26987 l -0.8255,0.1905 v 4.6355 c -0.423334,0.16934 -0.978959,0.3175 -1.666875,0.4445 -0.677334,0.13759 -1.397,0.20638 -2.159,0.20638 z m 5.906002,-7.90575 -0.9525,-0.381 v -0.26988 l 3.476625,-0.508 0.381,0.0317 v 6.57225 c 0,0.48684 0.09525,0.81492 0.28575,0.98425 0.201084,0.16934 0.47625,0.254 0.8255,0.254 0.201084,0 0.386292,-0.0212 0.555625,-0.0635 0.179917,-0.0529 0.354542,-0.11641 0.523875,-0.1905 v -6.42937 l -0.9525,-0.381 v -0.26988 l 3.476625,-0.508 0.349277,0.0317 v 7.82638 l 0.936625,0.381 v 0.26987 l -3.429027,0.53975 -0.34925,-0.0317 v -1.11125 h -0.09525 c -0.328083,0.32809 -0.709083,0.60854 -1.143,0.84138 -0.433916,0.22225 -0.92075,0.33337 -1.4605,0.33337 -0.8255,0 -1.439333,-0.22754 -1.8415,-0.68262 -0.391583,-0.45509 -0.587375,-1.05304 -0.587375,-1.79388 z m 12.153662,2.95275 1.905,-0.36513 v -1.15887 c 0,-0.87842 -0.105833,-1.48696 -0.3175,-1.82563 -0.201083,-0.33866 -0.545041,-0.508 -1.031875,-0.508 -0.05292,0 -0.105833,0.005 -0.15875,0.0159 -0.05292,0 -0.105833,0.005 -0.15875,0.0159 l -2.143125,2.90513 h -0.269875 l 0.0635,-2.69875 c 0.41275,-0.127 0.883709,-0.24871 1.412875,-0.36513 0.529167,-0.11641 1.132417,-0.17462 1.80975,-0.17462 1.164167,0 2.074333,0.1905 2.7305,0.5715 0.656167,0.381 0.98425,1.06362 0.98425,2.04787 v 5.6515 l 0.841375,0.22225 v 0.22225 c -0.169333,0.10584 -0.41275,0.19579 -0.73025,0.26988 -0.306917,0.0847 -0.640292,0.127 -1.000125,0.127 -0.5715,0 -1.010708,-0.09 -1.317625,-0.26988 -0.306917,-0.17991 -0.523875,-0.42862 -0.650875,-0.74612 h -0.07937 c -0.243416,0.32808 -0.550333,0.58737 -0.92075,0.77787 -0.370416,0.17992 -0.8255,0.26988 -1.36525,0.26988 -0.6985,0 -1.264708,-0.20638 -1.698625,-0.61913 -0.433916,-0.42333 -0.650875,-1.01071 -0.650875,-1.76212 0,-0.73025 0.227542,-1.30175 0.682625,-1.7145 0.455084,-0.42334 1.143,-0.71967 2.06375,-0.889 z m 1.17475,3.84175 c 0.179917,0 0.328084,-0.0265 0.4445,-0.0794 0.116417,-0.0529 0.211667,-0.127 0.28575,-0.22225 v -3.4925 l -0.587375,0.0476 c -0.455083,0.0423 -0.777875,0.22225 -0.968375,0.53975 -0.1905,0.30691 -0.28575,0.78316 -0.28575,1.42875 0,0.6985 0.100542,1.16946 0.301625,1.41287 0.211667,0.24342 0.481542,0.36513 0.809625,0.36513 z m 4.867804,-7.44538 3.508375,-0.508 0.28575,0.0317 v 2.4765 h 0.07937 c 0.22225,-0.94191 0.513292,-1.60866 0.873125,-2.00025 0.370417,-0.40216 0.799042,-0.60325 1.285875,-0.60325 0.07408,0 0.153459,0.005 0.238125,0.0159 0.08467,0.0106 0.148167,0.0265 0.1905,0.0476 v 2.61938 c -0.07408,-0.0212 -0.179916,-0.037 -0.3175,-0.0476 -0.127,-0.0106 -0.259291,-0.0159 -0.396875,-0.0159 -0.391583,0 -0.740833,0.0212 -1.04775,0.0635 -0.306916,0.0423 -0.587375,0.11641 -0.841375,0.22225 v 5.54037 l 1.17475,0.23813 v 0.26987 h -4.98475 v -0.26987 l 0.904875,-0.23813 v -7.19137 l -0.9525,-0.381 z m 10.871733,-0.52387 c 0.34925,0 0.65087,0.0265 0.90487,0.0794 0.254,0.0529 0.44979,0.11642 0.58738,0.1905 v -2.82575 l -0.9525,-0.33337 v -0.26988 l 3.50837,-0.508 0.33338,0.0476 v 11.71575 l 0.96837,0.30162 v 0.26988 l -3.54012,0.39687 -0.26988,-0.0317 V 144.616 h -0.0794 c -0.254,0.27517 -0.55563,0.51859 -0.90488,0.73025 -0.34925,0.21167 -0.78846,0.3175 -1.31762,0.3175 -0.94192,0 -1.72509,-0.36512 -2.3495,-1.09537 -0.61384,-0.73025 -0.920754,-1.83092 -0.920754,-3.302 0,-1.54517 0.370414,-2.71463 1.111254,-3.50838 0.74083,-0.79375 1.7145,-1.19062 2.921,-1.19062 z m 0.68262,7.874 c 0.16933,0 0.32279,-0.0159 0.46038,-0.0476 0.14816,-0.0423 0.26458,-0.09 0.34925,-0.14287 v -7.03263 c -0.10584,-0.0529 -0.23284,-0.10054 -0.381,-0.14287 -0.14817,-0.0423 -0.33338,-0.0635 -0.55563,-0.0635 -0.46567,0 -0.84137,0.30162 -1.12712,0.90487 -0.27517,0.60325 -0.41275,1.60338 -0.41275,3.00038 0,1.25941 0.13758,2.16429 0.41275,2.71462 0.28575,0.53975 0.70379,0.80963 1.25412,0.80963 z m 7.3369,-11.41413 c 0.41275,0 0.77258,0.14288 1.0795,0.42863 0.30691,0.28575 0.46037,0.64029 0.46037,1.06362 0,0.42334 -0.15346,0.77788 -0.46037,1.06363 -0.30692,0.27516 -0.66675,0.41275 -1.0795,0.41275 -0.42334,0 -0.78317,-0.13759 -1.0795,-0.41275 -0.29634,-0.28575 -0.4445,-0.64029 -0.4445,-1.06363 0,-0.42333 0.14816,-0.77787 0.4445,-1.06362 0.29633,-0.28575 0.65616,-0.42863 1.0795,-0.42863 z m -2.3495,4.064 3.47662,-0.508 0.39688,0.0317 v 8.30263 l 0.889,0.254 v 0.26987 h -4.699 v -0.26987 l 0.90487,-0.254 v -7.1755 l -0.96837,-0.381 z m 7.98724,3.60363 1.905,-0.36513 v -1.15887 c 0,-0.87842 -0.10583,-1.48696 -0.3175,-1.82563 -0.20108,-0.33866 -0.54504,-0.508 -1.03188,-0.508 -0.0529,0 -0.10583,0.005 -0.15875,0.0159 -0.0529,0 -0.10583,0.005 -0.15875,0.0159 l -2.14312,2.90513 h -0.26988 l 0.0635,-2.69875 c 0.41275,-0.127 0.88371,-0.24871 1.41288,-0.36513 0.52917,-0.11641 1.13242,-0.17462 1.80975,-0.17462 1.16417,0 2.07433,0.1905 2.7305,0.5715 0.65617,0.381 0.98425,1.06362 0.98425,2.04787 v 5.6515 l 0.84137,0.22225 v 0.22225 c -0.16933,0.10584 -0.41275,0.19579 -0.73025,0.26988 -0.30691,0.0847 -0.64029,0.127 -1.00012,0.127 -0.5715,0 -1.01071,-0.09 -1.31763,-0.26988 -0.30691,-0.17991 -0.52387,-0.42862 -0.65087,-0.74612 h -0.0794 c -0.24341,0.32808 -0.55033,0.58737 -0.92075,0.77787 -0.37041,0.17992 -0.8255,0.26988 -1.36525,0.26988 -0.6985,0 -1.2647,-0.20638 -1.69862,-0.61913 -0.43392,-0.42333 -0.65088,-1.01071 -0.65088,-1.76212 0,-0.73025 0.22755,-1.30175 0.68263,-1.7145 0.45508,-0.42334 1.143,-0.71967 2.06375,-0.889 z m 1.17475,3.84175 c 0.17992,0 0.32808,-0.0265 0.4445,-0.0794 0.11642,-0.0529 0.21167,-0.127 0.28575,-0.22225 v -3.4925 l -0.58738,0.0476 c -0.45508,0.0423 -0.77787,0.22225 -0.96837,0.53975 -0.1905,0.30691 -0.28575,0.78316 -0.28575,1.42875 0,0.6985 0.10054,1.16946 0.30162,1.41287 0.21167,0.24342 0.48155,0.36513 0.80963,0.36513 z m 4.91569,0.635 0.90488,-0.254 v -7.1755 l -0.9525,-0.381 v -0.26988 l 3.46075,-0.508 0.34925,0.0317 v 1.11125 h 0.0952 c 0.37041,-0.381 0.82021,-0.67204 1.34937,-0.87312 0.52917,-0.21167 1.06363,-0.3175 1.60338,-0.3175 0.75141,0 1.30175,0.18521 1.651,0.55562 0.34925,0.37042 0.52387,0.9525 0.52387,1.74625 v 6.08013 l 0.90488,0.254 v 0.26987 h -4.60375 v -0.26987 l 0.80962,-0.20638 v -5.969 c 0,-0.42333 -0.0952,-0.73554 -0.28575,-0.93662 -0.1905,-0.20109 -0.47096,-0.30163 -0.84137,-0.30163 -0.23284,0 -0.4445,0.0265 -0.635,0.0794 -0.17992,0.0529 -0.35454,0.12171 -0.52388,0.20637 v 6.9215 l 0.79375,0.20638 v 0.26987 h -4.60375 z m 9.84647,-7.46125 c 0.28575,-0.23284 0.47096,-0.69321 0.55563,-1.38113 0.0847,-0.68791 0.0635,-1.46579 -0.0635,-2.33362 h 2.49237 c 0.0529,0.5715 0.0159,1.0795 -0.11112,1.524 -0.11642,0.43391 -0.30692,0.81491 -0.5715,1.143 -0.254,0.3175 -0.5715,0.58208 -0.9525,0.79375 -0.37042,0.21166 -0.78317,0.37041 -1.23825,0.47625 z m 6.91965,2.032 c 0.81492,0.381 1.43404,0.78316 1.85737,1.2065 0.42334,0.42333 0.635,1.03187 0.635,1.82562 0,0.889 -0.30691,1.59279 -0.92075,2.11138 -0.61383,0.508 -1.49754,0.762 -2.65112,0.762 -0.51858,0 -1.03717,-0.037 -1.55575,-0.11113 -0.51858,-0.0635 -0.98954,-0.17462 -1.41288,-0.33337 l -0.0953,-2.57175 h 0.26988 l 2.27012,2.65112 c 0.0741,0.0212 0.15346,0.0423 0.23813,0.0635 0.0847,0.0106 0.16404,0.0159 0.23812,0.0159 0.48684,0 0.84138,-0.12171 1.06363,-0.36513 0.23283,-0.24341 0.34925,-0.56621 0.34925,-0.96837 0,-0.35984 -0.10583,-0.635 -0.3175,-0.8255 -0.21167,-0.1905 -0.56621,-0.40217 -1.06363,-0.635 l -0.52387,-0.23813 c -0.79375,-0.37041 -1.41288,-0.77787 -1.85738,-1.22237 -0.43391,-0.4445 -0.65087,-1.03188 -0.65087,-1.76213 0,-0.889 0.29633,-1.58221 0.889,-2.07962 0.59267,-0.49742 1.41817,-0.74613 2.4765,-0.74613 0.43392,0 0.87842,0.0212 1.3335,0.0635 0.45508,0.0423 0.86254,0.11642 1.22237,0.22225 l 0.0794,2.39713 h -0.26988 l -1.73037,-2.31775 c -0.0953,-0.0317 -0.1905,-0.0529 -0.28575,-0.0635 -0.0952,-0.0212 -0.18521,-0.0317 -0.26988,-0.0317 -0.42333,0 -0.73554,0.11112 -0.93662,0.33337 -0.20108,0.22225 -0.30163,0.51329 -0.30163,0.87313 0,0.39158 0.10584,0.68262 0.3175,0.87312 0.21167,0.1905 0.58209,0.40746 1.11125,0.65088 z"
       fill="#121212"
       id="path26"
       style="stroke-width:0.264583" />
    <path
       d="m 62.562974,163.6977 h 3.343328 v 4.23334 h 0.03379 c 0.506545,-0.73925 1.395862,-1.17581 2.397734,-1.17581 2.938092,0 3.726074,2.48602 3.726074,4.53549 0,2.18387 -1.204489,4.61406 -3.681042,4.61406 -1.632268,0 -2.138839,-0.61595 -2.566591,-1.1758 h -0.03379 v 0.95197 h -3.219503 z m 4.694184,5.47635 c -1.193244,0 -1.46341,1.11998 -1.46341,2.15027 0,1.04166 0.270166,2.16164 1.46341,2.16164 1.193245,0 1.463411,-1.11998 1.463411,-2.16164 0,-1.03029 -0.270166,-2.15027 -1.463411,-2.15027 z"
       fill="#121212"
       id="path106"
       style="stroke-width:0.264583" />
    <path
       d="m 76.487571,166.02709 h -3.343328 v -2.32939 h 3.343328 z m -3.343328,0.94086 h 3.343328 v 8.713 h -3.343328 z"
       fill="#121212"
       id="path108"
       style="stroke-width:0.264583" />
    <path
       d="m 77.973921,166.96848 h 3.208258 v 1.3888 h 0.03376 c 0.540332,-1.04166 1.249521,-1.61264 2.465282,-1.61264 0.337608,0 0.652991,0.0558 0.979487,0.13441 v 2.93397 c -0.337873,-0.12303 -0.641879,-0.22384 -1.317096,-0.22384 -1.317175,0 -2.026364,0.77285 -2.026364,2.63181 v 3.43826 H 77.97392 Z"
       fill="#121212"
       id="path110"
       style="stroke-width:0.264583" />
    <path
       d="m 90.165101,166.96822 h 1.789906 v 2.04946 h -1.789906 v 3.03504 c 0,0.80618 0.180181,1.15331 1.024466,1.15331 0.24765,0 0.506413,-0.0111 0.76544,-0.0447 v 2.51989 c -0.675481,0 -1.429544,0.10081 -2.138892,0.10081 -1.418431,0 -2.983177,-0.21273 -2.983177,-2.59821 v -4.16613 h -1.4859 v -2.04946 h 1.4859 v -2.6543 h 3.34354 v 2.6543 z"
       fill="#121212"
       id="path112"
       style="stroke-width:0.264583" />
    <path
       d="m 93.193257,163.6977 h 3.343275 v 4.21085 h 0.0336 c 0.574146,-0.67178 1.317096,-1.15332 2.735527,-1.15332 1.564751,0 3.005671,0.9517 3.005671,2.95645 v 5.98038 h -3.343279 v -4.56936 c 0,-1.00779 -0.112713,-1.71344 -1.103313,-1.71344 -0.574146,0 -1.328208,0.27993 -1.328208,1.67984 v 4.60296 h -3.343275 z"
       fill="#121212"
       id="path114"
       style="stroke-width:0.264583" />
    <path
       d="m 112.82587,175.69206 h -3.21972 v -0.95197 h -0.0336 c -0.42783,0.56012 -0.92313,1.17607 -2.56672,1.17607 -2.4765,0 -3.68088,-2.4302 -3.68088,-4.61407 0,-2.04946 0.79904,-4.53575 3.72586,-4.53575 0.9906,0 1.89124,0.43683 2.39792,1.17581 h 0.0336 v -4.24445 h 3.34354 z m -4.69424,-6.51801 c -1.19327,0 -1.46341,1.11998 -1.46341,2.15027 0,1.04166 0.27014,2.16164 1.46341,2.16164 1.20438,0 1.47452,-1.11998 1.47452,-2.16164 0,-1.03029 -0.27014,-2.15027 -1.47452,-2.15027 z"
       fill="#121212"
       id="path116"
       style="stroke-width:0.264583" />
    <path
       d="m 122.77632,173.7434 c 0,0.64955 0.0336,1.38854 0.40534,1.94866 h -3.41101 c -0.09,-0.23522 -0.1352,-0.58235 -0.12382,-0.81756 h -0.0339 c -0.70908,0.80618 -1.73355,1.0414 -2.81411,1.0414 -1.68857,0 -3.08451,-0.80619 -3.08451,-2.63181 0,-2.75511 3.24194,-2.6543 4.94189,-2.96784 0.46143,-0.0894 0.91175,-0.22383 0.91175,-0.77258 0,-0.58235 -0.55165,-0.80645 -1.09193,-0.80645 -1.02447,0 -1.22688,0.52626 -1.24937,0.89588 h -3.107 c 0.10134,-2.45269 2.43152,-2.85565 4.50268,-2.85565 4.18756,0 4.15396,1.72456 4.15396,3.4044 z m -3.20834,-1.97114 c -0.40508,0.20161 -0.8554,0.32464 -1.31709,0.42545 -0.74295,0.16801 -1.12554,0.35851 -1.12554,0.94086 0,0.40322 0.43894,0.80618 1.04669,0.80618 0.7657,0 1.35096,-0.44794 1.39594,-1.35493 z"
       fill="#121212"
       id="path118"
       style="stroke-width:0.264583" />
    <path
       d="m 130.03728,175.02028 c -0.27014,0.77259 -0.57415,1.75816 -1.10331,2.41909 -0.87789,1.08611 -2.22885,1.075 -3.52346,1.075 h -1.5195 v -2.6543 h 0.77655 c 0.33787,0 0.77682,0.0336 1.01309,-0.0894 0.20267,-0.10081 0.31538,-0.26882 0.31538,-0.64955 0,-0.42572 -1.28349,-3.62876 -1.46341,-4.13253 l -1.4859,-4.00949 h 3.57955 l 1.39594,5.00618 h 0.0339 l 1.41843,-5.00618 h 3.45572 z"
       fill="#121212"
       id="path120"
       style="stroke-width:0.264583" />
    <path
       d="m 68.049162,156.98919 c -2.282666,1.71053 -2.606913,2.11296 -2.606913,2.22594 0,0.11324 0.155654,0.17621 0.661458,0.17621 h 2.269702 c 1.673093,0 1.841712,-0.0127 2.697718,-1.13188 0.155628,-0.063 0.337212,0 0.415026,0.11324 -0.259398,0.72945 -0.778193,1.82351 -1.10244,2.2008 -0.778166,-0.0378 -1.569323,-0.063 -2.853346,-0.063 h -2.814426 c -1.024599,0 -1.686057,0.0127 -2.036233,0.063 -0.07781,-0.0378 -0.116734,-0.13837 -0.116734,-0.21378 0,-0.0378 0,-0.0503 0.02593,-0.0881 1.180253,-0.76702 2.07518,-1.3708 3.981715,-2.91756 1.724977,-1.40864 4.682066,-3.57161 4.682066,-5.83538 0,-1.43378 -0.8949,-2.18837 -2.062189,-2.18837 -1.271032,0 -2.217817,0.80486 -2.918169,1.73567 -0.194548,0.10054 -0.428016,-0.0127 -0.415051,-0.27676 0.881962,-1.44621 2.43832,-2.33918 3.929829,-2.33918 2.023295,0 3.151664,1.10675 3.151664,2.80458 0,1.82351 -1.673119,3.29486 -3.242442,4.48972 z"
       fill="#121212"
       id="path122"
       style="stroke-width:0.264583" />
    <path
       d="m 82.847255,152.05948 c 0,2.18836 -1.089448,5.03052 -2.606913,6.82889 -0.907865,1.06892 -2.075154,1.88648 -3.436964,1.88648 -2.425356,0 -2.892266,-2.08783 -2.892266,-3.63458 0,-2.33918 1.050554,-5.01782 2.568019,-6.75349 0.946785,-1.09405 2.140003,-1.93675 3.592618,-1.93675 2.38641,-0.0124 2.775506,2.06269 2.775506,3.60945 z m -5.33056,-1.01865 c -1.167263,1.96189 -2.114048,5.09323 -2.114048,7.16836 0,1.18215 0.38907,1.99972 1.478545,1.99972 1.647137,0 2.723647,-2.60324 3.242416,-3.96161 0.583644,-1.52162 1.219173,-3.52134 1.219173,-5.13106 0,-1.13189 -0.272362,-2.1127 -1.335881,-2.1127 -0.856006,0 -1.763898,0.83 -2.490205,2.03729 z"
       fill="#121212"
       id="path124"
       style="stroke-width:0.264583" />
    <path
       d="m 92.574926,152.05948 c 0,2.18836 -1.089555,5.03052 -2.60694,6.82889 -0.90805,1.06892 -2.075127,1.88648 -3.436937,1.88648 -2.425436,0 -2.892425,-2.08783 -2.892425,-3.63458 0,-2.33918 1.05066,-5.01782 2.568045,-6.75349 0.946944,-1.09405 2.13995,-1.93675 3.592513,-1.93675 2.386542,-0.0124 2.775744,2.06269 2.775744,3.60945 z m -5.330561,-1.01865 c -1.167341,1.96189 -2.114285,5.09323 -2.114285,7.16836 0,1.18215 0.389202,1.99972 1.478756,1.99972 1.647031,0 2.723621,-2.60324 3.242469,-3.96161 0.583406,-1.52162 1.218935,-3.52134 1.218935,-5.13106 0,-1.13189 -0.272256,-2.1127 -1.335881,-2.1127 -0.855927,0 -1.763712,0.83 -2.489994,2.03729 z"
       fill="#121212"
       id="path126"
       style="stroke-width:0.264583" />
    <path
       d="m 96.414294,153.82001 -1.815835,5.13107 c -0.116681,0.36486 -0.02593,0.4781 0.129646,0.4781 0.285221,0 1.569243,-0.98108 2.217737,-1.69783 0.194734,0 0.311415,0.11324 0.272521,0.33946 -1.089554,1.55945 -2.918354,2.71648 -3.735387,2.71648 -0.272257,0 -0.518848,-0.27676 -0.518848,-0.50298 0,-0.25162 0.07779,-0.51567 0.272521,-1.06891 l 1.893622,-5.39539 h -1.51765 c -0.03889,-0.18864 0.02593,-0.4527 0.220663,-0.52811 l 1.556279,-0.26405 1.089554,-1.86134 c 0.194469,-0.11324 0.583671,-0.0754 0.739246,0.11324 l -0.557742,1.84864 h 2.114021 c 0.129646,0.18865 0.01296,0.56595 -0.233362,0.69162 z"
       fill="#121212"
       id="path128"
       style="stroke-width:0.264583" />
    <path
       d="m 104.00122,147.14219 -1.4007,3.84837 -1.99734,5.63404 0.0389,0.0378 c 1.36181,-1.86134 2.37331,-2.61593 3.07393,-3.10647 0.70035,-0.49054 1.32292,-0.72946 1.8415,-0.72946 0.85619,0 1.16734,0.60378 1.16734,1.25757 0,1.2954 -0.81703,3.20701 -1.51738,4.41431 -0.37624,0.64135 -0.75221,1.05648 -1.27106,1.54701 -0.6485,0.62865 -1.16734,0.7419 -1.41367,0.7419 -0.64849,0 -0.71332,-0.38974 -0.71332,-0.55325 0,-0.31459 0.27226,-0.60378 0.51859,-0.60378 0.078,0 0.1688,0.0378 0.27252,0.11324 0.15557,0.11325 0.36301,0.25162 0.50588,0.25162 0.28522,0 0.47969,-0.27675 0.77814,-0.94324 0.51885,-1.21999 1.4007,-3.82323 1.4007,-4.86701 0,-0.36486 -0.12964,-0.56594 -0.40216,-0.56594 -0.27226,0 -0.67443,0.22622 -1.0504,0.50297 -0.81703,0.60378 -1.45256,1.23243 -2.46433,2.5027 -0.88185,1.13188 -1.841762,2.95539 -2.347381,3.92377 -0.07805,0.15081 -0.168804,0.22648 -0.350308,0.22648 -0.220398,0 -0.713317,-0.063 -0.570706,-0.49054 l 3.696495,-10.60185 c 0.42783,-1.24487 0.51858,-1.50918 0.2204,-1.71027 l -0.41513,-0.26405 c -0.0389,-0.10081 -0.0389,-0.17621 0.0648,-0.25162 0.31141,-0.12568 1.59544,-0.38973 2.26986,-0.42757 z"
       fill="#121212"
       id="path130"
       style="stroke-width:0.264583" />
  </g>
</svg>
