<?xml version="1.0" encoding="UTF-8" standalone="no"?>
<svg
   xmlns:dc="http://purl.org/dc/elements/1.1/"
   xmlns:cc="http://creativecommons.org/ns#"
   xmlns:rdf="http://www.w3.org/1999/02/22-rdf-syntax-ns#"
   xmlns:svg="http://www.w3.org/2000/svg"
   xmlns="http://www.w3.org/2000/svg"
   id="svg1498"
   version="1.1"
   viewBox="0 0 47.924511 11.97857"
   height="11.97857mm"
   width="47.924511mm">
  <defs
     id="defs1492" />
  <metadata
     id="metadata1495">
    <rdf:RDF>
      <cc:Work
         rdf:about="">
        <dc:format>image/svg+xml</dc:format>
        <dc:type
           rdf:resource="http://purl.org/dc/dcmitype/StillImage" />
        <dc:title></dc:title>
      </cc:Work>
    </rdf:RDF>
  </metadata>
  <g
     transform="translate(-106.06155,-62.713053)"
     id="layer1">
    <path
       id="path2"
       d="m 107.47794,74.547953 c -0.43156,0 -0.77459,-0.12144 -1.02909,-0.37518 -0.26558,-0.24297 -0.3873,-0.56314 -0.3873,-0.9716 0,-0.27602 0.0332,-0.58513 0.0996,-0.9384 0.0664,-0.34227 0.15492,-0.70657 0.28771,-1.0709 l 2.09138,-6.31489 c 0.0553,-0.15457 0.0996,-0.30911 0.12172,-0.45265 0.0221,-0.14351 0.0443,-0.29808 0.0443,-0.44159 0,-0.0552 -0.0332,-0.0994 -0.0885,-0.15457 -0.0664,-0.0442 -0.16599,-0.0883 -0.3209,-0.13248 -0.34303,-0.0883 -0.50902,-0.1656 -0.50902,-0.24288 0,-0.0552 0.0221,-0.0994 0.0553,-0.13248 0.0332,-0.0331 0.11066,-0.0662 0.21025,-0.0994 0.12172,-0.0442 0.27663,-0.0994 0.47581,-0.15457 0.18812,-0.0552 0.3873,-0.12144 0.58648,-0.17664 0.19918,-0.0552 0.37623,-0.0994 0.54221,-0.13247 0.14385,-0.0221 0.24344,-0.0442 0.28771,-0.0442 0.17703,0 0.26556,0.0552 0.26556,0.1656 0,0.0994 -0.0111,0.18767 -0.0221,0.25392 -0.0111,0.0773 -0.0443,0.1656 -0.0885,0.28705 -0.0885,0.22079 -0.21024,0.552 -0.36515,0.98255 -0.15494,0.44159 -0.32092,0.92737 -0.50903,1.45728 -0.17704,0.54096 -0.36516,1.08193 -0.55327,1.6229 -0.18812,0.54094 -0.36517,1.05984 -0.52009,1.53455 -0.16598,0.47472 -0.2877,0.86112 -0.37622,1.13713 -0.0443,0.11038 -0.0443,0.17664 0.0111,0.1987 0.0553,0.0221 0.11066,-0.0221 0.18812,-0.12142 0.65286,-0.86113 1.27254,-1.52352 1.85902,-1.9872 0.58645,-0.46368 1.08442,-0.69554 1.49383,-0.69554 0.3541,0 0.6418,0.11041 0.87419,0.34224 0.23235,0.23186 0.34303,0.52993 0.34303,0.88321 0,0.50784 -0.0996,1.02671 -0.30985,1.56768 -0.21024,0.54097 -0.48689,1.05984 -0.82992,1.55665 -0.34303,0.50784 -0.74139,0.94943 -1.18401,1.34689 -0.44262,0.39743 -0.8963,0.70654 -1.37211,0.93829 -0.46476,0.254 -0.92951,0.36433 -1.37213,0.36433 z m 0.42049,-0.5188 c 0.14385,0 0.33196,-0.0773 0.56434,-0.23182 0.23238,-0.15457 0.48689,-0.36433 0.75246,-0.64032 0.26556,-0.26498 0.53115,-0.57409 0.78565,-0.91633 0.26556,-0.35327 0.50901,-0.73967 0.73033,-1.17025 0.2213,-0.41953 0.39836,-0.82799 0.52006,-1.22545 0.12174,-0.3864 0.18812,-0.71758 0.18812,-0.98256 0,-0.18766 -0.0443,-0.34223 -0.14385,-0.47471 -0.0996,-0.12144 -0.21024,-0.18767 -0.34303,-0.18767 -0.34304,0 -0.74139,0.1987 -1.17295,0.57407 -0.44263,0.38639 -0.96269,0.97152 -1.5381,1.76641 -0.36516,0.50784 -0.66393,0.98255 -0.88524,1.41311 -0.22131,0.43056 -0.33197,0.75073 -0.33197,0.96049 0,0.29808 0.0885,0.56303 0.25451,0.7728 0.18811,0.23185 0.39836,0.34223 0.61967,0.34223 z"
       style="fill:#052962;stroke-width:0.26458332" />
    <path
       id="path4"
       d="m 113.774,74.658553 c -0.12171,0 -0.24345,-0.0553 -0.37621,-0.15452 -0.1328,-0.0995 -0.22133,-0.23204 -0.28771,-0.37544 -0.0664,-0.14357 -0.0885,-0.25398 -0.0443,-0.3423 l 1.74834,-4.1952 c 0.0775,-0.18767 0.12174,-0.35327 0.15492,-0.47472 0.0221,-0.13248 -0.0111,-0.19873 -0.0996,-0.19873 -0.0553,0 -0.14386,0.0442 -0.27662,0.13248 -0.1328,0.0883 -0.27665,0.19873 -0.43157,0.33121 -0.16597,0.13247 -0.32091,0.27601 -0.48688,0.41952 -0.0221,0.0221 -0.0664,0.0221 -0.12171,0.011 -0.0664,-0.011 -0.0885,-0.0331 -0.0885,-0.0662 0,-0.0442 0.0111,-0.11041 0.0332,-0.1877 0.0221,-0.0883 0.0774,-0.18767 0.16598,-0.30911 0.27662,-0.37537 0.58647,-0.68448 0.91845,-0.9384 0.33194,-0.25392 0.65286,-0.45265 0.96268,-0.58513 0.29877,-0.13247 0.53115,-0.20976 0.68607,-0.20976 0.0553,0 0.12171,0.0331 0.18812,0.0883 0.0664,0.0662 0.13276,0.13248 0.17703,0.20976 0.0443,0.0883 0.0443,0.16561 0,0.24289 -0.37621,0.73967 -0.7303,1.50143 -1.06228,2.27423 -0.33197,0.77282 -0.66394,1.53458 -0.99589,2.28528 -0.0996,0.22082 -0.166,0.43058 -0.18812,0.60722 -0.0221,0.18767 0.0221,0.28705 0.13277,0.28705 0.11068,0 0.27665,-0.0883 0.49797,-0.28705 0.2213,-0.18769 0.4758,-0.43056 0.75245,-0.72864 0.27662,-0.29808 0.57542,-0.61825 0.88524,-0.96049 0.42048,-0.47471 0.82992,-0.96049 1.21719,-1.47936 0.3873,-0.50784 0.73033,-0.96049 1.01804,-1.36896 0.28771,-0.40849 0.47583,-0.69553 0.56436,-0.86113 0.0553,-0.11039 0.12171,-0.17664 0.19918,-0.20977 0.0774,-0.0331 0.15491,-0.0552 0.22129,-0.0552 0.0664,0 0.1328,0.0331 0.19918,0.0994 0.0664,0.0663 0.12174,0.14354 0.15491,0.23186 0.0332,0.0883 0.0443,0.1656 0.0111,0.23183 l -2.1246,4.86865 c -0.0885,0.20976 -0.13277,0.37536 -0.11065,0.47474 0.0111,0.11038 0.0664,0.16557 0.166,0.16557 0.14383,0 0.33195,-0.0773 0.56433,-0.23182 0.23238,-0.15457 0.46474,-0.33121 0.70819,-0.54097 0.24344,-0.19873 0.4537,-0.3864 0.61968,-0.552 0.0111,-0.011 0.0221,-0.0221 0.0443,-0.0221 0.0332,0 0.0664,0.011 0.0996,0.0442 0.0332,0.0331 0.0443,0.0662 0.0443,0.11039 0,0.0221 -0.0111,0.0442 -0.0111,0.0662 -0.0111,0.0221 -0.0222,0.0442 -0.0443,0.0883 -0.0111,0.0331 -0.0443,0.0773 -0.0664,0.11038 -0.0332,0.0442 -0.0664,0.0883 -0.0996,0.14354 -0.0443,0.0552 -0.0885,0.11041 -0.14386,0.17663 -0.21024,0.26496 -0.45368,0.51888 -0.7303,0.7728 -0.27665,0.24289 -0.57542,0.4527 -0.88524,0.60722 -0.32092,0.15451 -0.65289,0.24288 -1.00698,0.24288 -0.14386,0 -0.27662,-0.0995 -0.3873,-0.28707 -0.11065,-0.18759 -0.14385,-0.35327 -0.0774,-0.49678 0.15491,-0.33121 0.32089,-0.68448 0.49795,-1.05984 0.17703,-0.37537 0.33197,-0.71761 0.4758,-1.03778 0.13279,-0.32014 0.23238,-0.552 0.2877,-0.7176 0.0553,-0.13248 0.0443,-0.1987 -0.0111,-0.20976 -0.0664,-0.011 -0.13279,0.0221 -0.18811,0.0883 -0.57539,0.62926 -1.08443,1.18126 -1.52705,1.64494 -0.44263,0.47474 -0.82993,0.86114 -1.15081,1.15922 -0.33198,0.30911 -0.6086,0.53004 -0.82992,0.68456 -0.21024,0.15451 -0.39836,0.24289 -0.54221,0.24289 z"
       style="fill:#052962;stroke-width:0.26458332" />
    <path
       id="path6"
       d="m 121.54185,74.658283 c -0.24345,0 -0.45368,-0.0661 -0.63074,-0.20981 -0.17704,-0.1323 -0.26557,-0.30904 -0.26557,-0.51877 0,-0.25392 0.0553,-0.44159 0.17706,-0.57407 0.11065,-0.12144 0.21024,-0.18769 0.28768,-0.18769 0.0775,0 0.15494,0.0331 0.24345,0.0883 0.0885,0.0662 0.17706,0.1325 0.27665,0.22082 0.1217,0.0883 0.2545,0.17663 0.40941,0.25392 0.14386,0.0883 0.34303,0.12142 0.58648,0.12142 0.29876,0 0.53115,-0.11039 0.71927,-0.32015 0.17703,-0.2208 0.26556,-0.44162 0.27662,-0.68448 0,-0.24289 -0.0442,-0.50784 -0.12171,-0.78385 -0.0885,-0.28705 -0.19918,-0.56304 -0.35409,-0.83905 -0.14386,-0.26495 -0.26559,-0.51888 -0.35409,-0.7507 -0.0996,-0.23186 -0.14386,-0.44162 -0.14386,-0.60722 0,-0.32015 0.0885,-0.61823 0.25451,-0.90527 0.16597,-0.27602 0.38729,-0.52994 0.63074,-0.7397 0.24344,-0.20973 0.49794,-0.37534 0.74138,-0.48575 0.24345,-0.12144 0.43154,-0.17663 0.57539,-0.17663 0.14386,0 0.28771,0.0442 0.43157,0.12144 0.14385,0.0883 0.26556,0.17664 0.35409,0.27599 0.0885,0.11041 0.14385,0.19873 0.14385,0.27601 0,0.0662 -0.0332,0.14351 -0.0996,0.24286 -0.0664,0.0994 -0.14385,0.17666 -0.23238,0.25392 -0.0885,0.0773 -0.16597,0.12145 -0.23236,0.12145 -0.0553,0 -0.11067,-0.0221 -0.166,-0.0883 -0.0553,-0.0552 -0.11065,-0.12145 -0.17703,-0.18767 -0.0664,-0.0662 -0.14386,-0.12145 -0.24344,-0.1877 -0.0996,-0.0552 -0.22133,-0.0883 -0.37624,-0.0883 -0.17703,0 -0.33197,0.0773 -0.46474,0.22083 -0.1328,0.14351 -0.19918,0.34223 -0.19918,0.5851 0,0.0883 0.0332,0.23185 0.0885,0.41952 0.0553,0.18769 0.13277,0.3864 0.2213,0.57409 0.0885,0.18767 0.16597,0.37537 0.24344,0.52991 0.12171,0.22082 0.23238,0.49681 0.34303,0.83905 0.0996,0.34223 0.15492,0.62928 0.15492,0.8832 0,0.33121 -0.0996,0.64032 -0.28771,0.90527 -0.19918,0.27602 -0.44262,0.5189 -0.75245,0.71761 -0.30983,0.20976 -0.6418,0.36428 -1.00695,0.47461 -0.36518,0.14367 -0.71927,0.20981 -1.05124,0.20981 z"
       style="fill:#052962;stroke-width:0.26458332" />
    <path
       id="path8"
       d="m 126.78724,74.658553 c -0.18812,0 -0.34304,-0.0664 -0.46477,-0.18786 -0.12171,-0.12144 -0.18812,-0.24289 -0.18812,-0.37518 0,-0.0443 0,-0.0884 0.0111,-0.13258 0,-0.0442 0.0222,-0.0883 0.0443,-0.13248 0.45371,-0.91633 0.82992,-1.77744 1.15083,-2.59442 0.30983,-0.81696 0.58648,-1.52353 0.82992,-2.13072 0.0442,-0.13248 0.0111,-0.19873 -0.0885,-0.19873 -0.0553,0 -0.166,0.0331 -0.32091,0.0883 -0.16597,0.0663 -0.33195,0.14354 -0.50901,0.24289 -0.17706,0.0994 -0.33197,0.19873 -0.46474,0.29808 -0.0553,0.0442 -0.11067,0.0552 -0.166,0.0331 -0.0553,-0.0221 -0.0885,-0.0552 -0.0885,-0.11041 0,-0.0552 0.0443,-0.13247 0.12174,-0.24286 0.0885,-0.0994 0.19918,-0.22082 0.34303,-0.3533 0.15491,-0.13247 0.33197,-0.27598 0.54221,-0.41952 0.21024,-0.15454 0.44262,-0.29808 0.68607,-0.44159 0.24344,-0.14351 0.509,-0.28705 0.78565,-0.40849 0.0996,-0.0442 0.19918,-0.0331 0.29877,0.0331 0.0996,0.0663 0.17703,0.14351 0.24344,0.24288 0.0553,0.0994 0.0774,0.17664 0.0553,0.23183 l -2.02499,4.78034 c -0.0443,0.0883 -0.0775,0.17663 -0.0885,0.25392 -0.0111,0.0883 -0.0222,0.15457 -0.0222,0.22079 0,0.0773 0.0332,0.1325 0.0885,0.15457 0.0553,0.0331 0.12174,0.0442 0.17706,0.0442 0.15491,0 0.33197,-0.0773 0.53115,-0.22079 0.19918,-0.14354 0.40942,-0.33121 0.6418,-0.54097 0.2213,-0.2208 0.44262,-0.43056 0.65286,-0.64032 0.0221,-0.0221 0.0443,-0.0331 0.0664,-0.0331 0.0221,0 0.0443,0.011 0.0664,0.0221 0.0221,0.011 0.0332,0.0331 0.0332,0.0552 0,0.17664 -0.11065,0.39743 -0.32089,0.67344 -0.21026,0.27599 -0.47582,0.54097 -0.78565,0.80592 -0.32091,0.27599 -0.6418,0.49689 -0.97377,0.68448 -0.33197,0.18759 -0.6086,0.29819 -0.8631,0.29819 z m 3.35285,-8.73276 c -0.166,0 -0.30985,-0.0663 -0.4205,-0.19873 -0.11065,-0.13248 -0.16598,-0.28705 -0.16598,-0.45262 0,-0.26498 0.0885,-0.49681 0.26557,-0.70657 0.17706,-0.19873 0.39835,-0.30912 0.66392,-0.30912 0.17706,0 0.32091,0.0773 0.4205,0.2208 0.0996,0.14351 0.15491,0.30911 0.15491,0.48575 0,0.24288 -0.0885,0.46368 -0.26556,0.65137 -0.17706,0.20977 -0.39836,0.30912 -0.65286,0.30912 z"
       style="fill:#052962;stroke-width:0.26458332" />
    <path
       id="path10"
       d="m 131.36797,74.691623 c -0.0664,0 -0.13277,-0.0222 -0.18812,-0.0773 -0.0664,-0.0553 -0.11065,-0.1106 -0.15491,-0.18786 -0.0443,-0.0661 -0.0774,-0.15451 -0.0885,-0.24288 -0.0111,-0.0881 -0.0111,-0.1655 0.0222,-0.23173 l 1.92539,-4.70307 c 0.19923,-0.48575 0.21035,-0.72863 0.0331,-0.72863 -0.11059,0 -0.2323,0.0111 -0.3429,0.0442 -0.12173,0.0221 -0.2545,0.0994 -0.39836,0.20977 -0.14385,0.11041 -0.30985,0.27601 -0.48688,0.51887 -0.0443,0.0442 -0.0885,0.0662 -0.14386,0.0552 -0.0443,0 -0.0885,-0.0442 -0.11064,-0.12144 0,-0.0663 0.0221,-0.15457 0.0553,-0.25392 0.0332,-0.0994 0.0885,-0.20977 0.14385,-0.30912 0.0553,-0.0994 0.0996,-0.18769 0.15491,-0.25392 0.16598,-0.25392 0.3873,-0.45265 0.67498,-0.59616 0.28768,-0.14353 0.60862,-0.22082 0.98486,-0.23185 0.12171,0 0.2323,0.0331 0.33205,0.0883 0.0995,0.0663 0.17701,0.14353 0.22119,0.25392 0.0442,0.11041 0.0442,0.23185 -0.0111,0.36433 l -1.09537,2.81519 c -0.0333,0.0773 -0.0222,0.12145 0.022,0.13248 0.0445,0.0111 0.0886,-0.011 0.12197,-0.0662 0.4535,-0.77279 0.91837,-1.42417 1.38298,-1.96514 0.46487,-0.5299 0.91863,-0.93839 1.35017,-1.21438 0.43153,-0.27601 0.81888,-0.41952 1.15067,-0.41952 0.2323,0 0.43154,0.0773 0.60854,0.24288 0.16616,0.16558 0.28787,0.37534 0.33205,0.64032 0.0553,0.27599 0,0.58513 -0.15478,0.9384 l -1.52717,3.61008 c -0.1659,0.39746 -0.14394,0.59616 0.0886,0.59616 0.13282,0 0.29871,-0.0552 0.48683,-0.15454 0.18812,-0.0994 0.38735,-0.22082 0.58632,-0.3533 0.19923,-0.13248 0.37624,-0.26496 0.52017,-0.37537 0.15504,-0.12144 0.24342,-0.1987 0.2876,-0.24286 0.0111,-0.0111 0.0222,-0.0111 0.0222,-0.0111 0,0 0.0111,0 0.0222,0 0.0331,0 0.0664,0.0111 0.0884,0.0442 0.0222,0.0331 0.0444,0.0662 0.0444,0.11041 0,0.0883 -0.0222,0.1656 -0.0664,0.23183 -0.28787,0.34226 -0.59769,0.65138 -0.91863,0.92736 -0.33179,0.27602 -0.66384,0.49676 -1.00674,0.65128 -0.34317,0.15478 -0.69718,0.24288 -1.05146,0.24288 -0.0995,0 -0.19896,-0.0331 -0.29871,-0.11033 -0.0995,-0.0773 -0.17701,-0.16563 -0.22119,-0.27596 -0.0553,-0.11033 -0.0442,-0.22082 0.0111,-0.34226 0.32067,-0.73967 0.64161,-1.47937 0.97366,-2.208 0.32094,-0.72864 0.63077,-1.46834 0.91837,-2.208 0.17701,-0.45265 0.23257,-0.7728 0.18812,-0.94944 -0.0553,-0.18769 -0.16589,-0.27601 -0.32094,-0.28704 -0.12171,-0.011 -0.26538,0.0331 -0.43153,0.12144 -0.1659,0.0994 -0.35402,0.24286 -0.56436,0.43056 -0.21008,0.19873 -0.44265,0.44159 -0.67495,0.73967 -0.13282,0.15457 -0.30983,0.39745 -0.53102,0.7176 -0.22146,0.33121 -0.47599,0.70657 -0.75248,1.12609 -0.27675,0.41953 -0.56435,0.87215 -0.85222,1.35792 -0.29863,0.48575 -0.57528,0.94944 -0.84085,1.41309 -0.0996,0.17674 -0.18811,0.30903 -0.26558,0.38656 -0.0774,0.0662 -0.16598,0.11033 -0.25451,0.11033 z"
       style="fill:#052962;stroke-width:0.26458332" />
    <path
       id="path12"
       d="m 140.82886,74.669393 c -0.2323,0 -0.46461,-0.0881 -0.70803,-0.26484 -0.24341,-0.17675 -0.43153,-0.39746 -0.58658,-0.67347 -0.15478,-0.26496 -0.2323,-0.52991 -0.2323,-0.78383 0,-0.552 0.1106,-1.13713 0.3429,-1.76641 0.22146,-0.61826 0.5424,-1.20336 0.94059,-1.75536 0.39847,-0.552 0.86307,-0.99361 1.38324,-1.33585 0.52018,-0.35327 1.08453,-0.51888 1.67085,-0.51888 0.38735,0 0.68606,0.0773 0.90752,0.24289 0.22119,0.16558 0.32067,0.3864 0.32067,0.67342 0,0.34226 -0.11059,0.64034 -0.32067,0.89427 -0.21034,0.25392 -0.50906,0.47471 -0.87418,0.65135 -0.36513,0.18767 -0.7747,0.3312 -1.21735,0.45265 -0.44265,0.12144 -0.90726,0.23182 -1.37213,0.32014 -0.0664,0.0111 -0.12171,0.0221 -0.15478,0.0442 -0.0444,0.0111 -0.0664,0.0552 -0.0886,0.12144 -0.0775,0.24289 -0.15478,0.50785 -0.23231,0.79489 -0.0775,0.28705 -0.11059,0.56304 -0.11059,0.80592 0,0.3864 0.0773,0.68448 0.22119,0.89424 0.15504,0.20976 0.36512,0.32017 0.65299,0.32017 0.3982,0 0.73025,-0.0994 1.00674,-0.29808 0.27675,-0.19872 0.49795,-0.39745 0.67522,-0.59615 0.11059,-0.12145 0.21008,-0.17667 0.29871,-0.17667 0.1106,0 0.1659,0.0552 0.1659,0.16561 0,0.0111 0,0.0331 0,0.0552 0,0.0331 -0.0111,0.0552 -0.0331,0.0773 -0.22146,0.36433 -0.47599,0.67344 -0.75248,0.91633 -0.27675,0.24296 -0.57547,0.44167 -0.8853,0.56311 -0.30982,0.12144 -0.65299,0.17648 -1.01811,0.17648 z m 0.36512,-4.25032 c 0.12171,0 0.33206,-0.0331 0.61992,-0.11038 0.28761,-0.0663 0.59743,-0.1877 0.91837,-0.3533 0.32094,-0.15457 0.59743,-0.35327 0.81889,-0.59616 0.22119,-0.23183 0.3429,-0.51887 0.3429,-0.85008 0,-0.14351 -0.0442,-0.26495 -0.1106,-0.37536 -0.0775,-0.0993 -0.18812,-0.15457 -0.33205,-0.15457 -0.2323,0 -0.48683,0.0994 -0.75248,0.28705 -0.27648,0.19872 -0.53101,0.43055 -0.77443,0.69553 -0.24342,0.27599 -0.44265,0.52991 -0.60881,0.78383 -0.16589,0.25392 -0.24341,0.44162 -0.24341,0.56306 0.0111,0.0773 0.0445,0.11038 0.1217,0.11038 z"
       style="fill:#052962;stroke-width:0.26458332" />
    <path
       id="path14"
       d="m 145.16723,74.658283 c -0.24341,0 -0.45376,-0.0661 -0.63076,-0.20981 -0.17701,-0.1323 -0.26538,-0.30904 -0.26538,-0.51877 0,-0.25392 0.0553,-0.44159 0.17701,-0.57407 0.11059,-0.12144 0.21007,-0.18769 0.2876,-0.18769 0.0775,0 0.15504,0.0331 0.24341,0.0883 0.0886,0.0662 0.17701,0.1325 0.27676,0.22082 0.12171,0.0883 0.25453,0.17663 0.40931,0.25392 0.14393,0.0883 0.34316,0.12142 0.58658,0.12142 0.29871,0 0.53102,-0.11039 0.71914,-0.32015 0.177,-0.2208 0.26564,-0.44162 0.27675,-0.68448 0,-0.24289 -0.0442,-0.50784 -0.12171,-0.78385 -0.0886,-0.28705 -0.19923,-0.56304 -0.35427,-0.83905 -0.14367,-0.26495 -0.26538,-0.51888 -0.35402,-0.7507 -0.0995,-0.23186 -0.14393,-0.44162 -0.14393,-0.60722 0,-0.32015 0.0886,-0.61823 0.25453,-0.90527 0.16616,-0.27602 0.38735,-0.52994 0.63077,-0.7397 0.24341,-0.20973 0.49794,-0.37534 0.74136,-0.48575 0.24342,-0.12144 0.43153,-0.17663 0.57547,-0.17663 0.14393,0 0.2876,0.0442 0.43153,0.12144 0.14394,0.0883 0.26564,0.17664 0.35428,0.27599 0.0884,0.11041 0.14367,0.19873 0.14367,0.27601 0,0.0662 -0.0331,0.14351 -0.0995,0.24286 -0.0664,0.0994 -0.14394,0.17666 -0.23231,0.25392 -0.0886,0.0773 -0.16615,0.12145 -0.23256,0.12145 -0.0553,0 -0.1106,-0.0221 -0.1659,-0.0883 -0.0553,-0.0552 -0.11059,-0.12145 -0.177,-0.18767 -0.0664,-0.0662 -0.14394,-0.12145 -0.24342,-0.1877 -0.0998,-0.0552 -0.22146,-0.0883 -0.37624,-0.0883 -0.17701,0 -0.33205,0.0773 -0.46487,0.22083 -0.13282,0.14351 -0.19923,0.34223 -0.19923,0.5851 0,0.0883 0.0333,0.23185 0.0886,0.41952 0.0553,0.18769 0.13282,0.3864 0.22119,0.57409 0.0886,0.18767 0.16616,0.37537 0.24341,0.52991 0.12198,0.22082 0.23257,0.49681 0.34317,0.83905 0.0995,0.34223 0.15478,0.62928 0.15478,0.8832 0,0.33121 -0.0995,0.64032 -0.2876,0.90527 -0.19923,0.27602 -0.44265,0.5189 -0.75248,0.71761 -0.30982,0.20976 -0.64188,0.36428 -1.007,0.47461 -0.37624,0.14367 -0.71914,0.20981 -1.05119,0.20981 z"
       style="fill:#052962;stroke-width:0.26458332" />
    <path
       id="path16"
       d="m 149.74796,74.658283 c -0.24341,0 -0.45376,-0.0661 -0.63076,-0.20981 -0.17701,-0.1323 -0.26538,-0.30904 -0.26538,-0.51877 0,-0.25392 0.0553,-0.44159 0.17701,-0.57407 0.11059,-0.12144 0.21008,-0.18769 0.2876,-0.18769 0.0775,0 0.15504,0.0331 0.24342,0.0883 0.0886,0.0662 0.177,0.1325 0.27675,0.22082 0.12171,0.0883 0.25453,0.17663 0.40931,0.25392 0.14393,0.0883 0.34316,0.12142 0.58658,0.12142 0.29872,0 0.53102,-0.11039 0.71914,-0.32015 0.177,-0.2208 0.26564,-0.44162 0.27675,-0.68448 0,-0.24289 -0.0442,-0.50784 -0.12171,-0.78385 -0.0886,-0.28705 -0.19923,-0.56304 -0.35427,-0.83905 -0.14367,-0.26495 -0.26538,-0.51888 -0.35402,-0.7507 -0.0995,-0.23186 -0.14393,-0.44162 -0.14393,-0.60722 0,-0.32015 0.0886,-0.61823 0.25453,-0.90527 0.16616,-0.27602 0.38735,-0.52994 0.63077,-0.7397 0.24341,-0.20973 0.49794,-0.37534 0.74136,-0.48575 0.24342,-0.12144 0.43154,-0.17663 0.57547,-0.17663 0.14393,0 0.2876,0.0442 0.43153,0.12144 0.14394,0.0883 0.26565,0.17664 0.35402,0.27599 0.0886,0.11041 0.14393,0.19873 0.14393,0.27601 0,0.0662 -0.0331,0.14351 -0.0995,0.24286 -0.0664,0.0994 -0.14393,0.17666 -0.23257,0.25392 -0.0884,0.0773 -0.16589,0.12145 -0.2323,0.12145 -0.0553,0 -0.1106,-0.0221 -0.1659,-0.0883 -0.0553,-0.0552 -0.11059,-0.12145 -0.177,-0.18767 -0.0664,-0.0662 -0.14394,-0.12145 -0.24342,-0.1877 -0.0998,-0.0552 -0.22146,-0.0883 -0.37624,-0.0883 -0.177,0 -0.33205,0.0773 -0.46487,0.22083 -0.13282,0.14351 -0.19923,0.34223 -0.19923,0.5851 0,0.0883 0.0333,0.23185 0.0886,0.41952 0.0553,0.18769 0.13282,0.3864 0.22119,0.57409 0.0886,0.18767 0.16616,0.37537 0.24342,0.52991 0.12171,0.22082 0.23257,0.49681 0.34316,0.83905 0.0995,0.34223 0.15478,0.62928 0.15478,0.8832 0,0.33121 -0.0995,0.64032 -0.2876,0.90527 -0.19923,0.27602 -0.44265,0.5189 -0.75247,0.71761 -0.30983,0.20976 -0.64188,0.36428 -1.00701,0.47461 -0.37624,0.14367 -0.71914,0.20981 -1.05119,0.20981 z"
       style="fill:#052962;stroke-width:0.26458332" />
  </g>
</svg>
