<?xml version="1.0" encoding="UTF-8" standalone="no"?>
<svg
   xmlns:dc="http://purl.org/dc/elements/1.1/"
   xmlns:cc="http://creativecommons.org/ns#"
   xmlns:rdf="http://www.w3.org/1999/02/22-rdf-syntax-ns#"
   xmlns:svg="http://www.w3.org/2000/svg"
   xmlns="http://www.w3.org/2000/svg"
   id="svg2112"
   version="1.1"
   viewBox="0 0 57.414555 9.7895603"
   height="9.7895603mm"
   width="57.414555mm">
  <defs
     id="defs2106" />
  <metadata
     id="metadata2109">
    <rdf:RDF>
      <cc:Work
         rdf:about="">
        <dc:format>image/svg+xml</dc:format>
        <dc:type
           rdf:resource="http://purl.org/dc/dcmitype/StillImage" />
        <dc:title></dc:title>
      </cc:Work>
    </rdf:RDF>
  </metadata>
  <g
     transform="translate(-65.786787,-60.027831)"
     id="layer1">
    <path
       id="path36"
       d="m 69.059097,65.223451 c 0.6436,0.29501 1.13257,0.60616 1.4669,0.93371 0.33433,0.32756 0.50152,0.79825 0.50152,1.41235 0,0.68792 -0.24241,1.23243 -0.72721,1.6338 -0.48477,0.39291 -1.18271,0.58949 -2.09378,0.58949 -0.40956,0 -0.81913,-0.0286 -1.22869,-0.086 -0.40957,-0.0492 -0.78152,-0.13493 -1.11585,-0.25797 l -0.0752,-1.98966 h 0.21314 l 1.79289,2.05105 c 0.0585,0.0164 0.1212,0.0328 0.18806,0.0492 0.0669,0.008 0.12956,0.0124 0.18807,0.0124 0.38448,0 0.66449,-0.0942 0.84001,-0.28258 0.18389,-0.18838 0.27583,-0.43815 0.27583,-0.7493 0,-0.27834 -0.0836,-0.49133 -0.25074,-0.6387 -0.16717,-0.14738 -0.44718,-0.31115 -0.84003,-0.49133 l -0.41374,-0.18415 c -0.62688,-0.28681 -1.11585,-0.60193 -1.46691,-0.94589 -0.34269,-0.34396 -0.51404,-0.79851 -0.51404,-1.3634 0,-0.68791 0.23403,-1.22422 0.70211,-1.60919 0.46807,-0.38471 1.12003,-0.57732 1.95587,-0.57732 0.34271,0 0.69376,0.0164 1.05317,0.0492 0.35941,0.0328 0.68122,0.09 0.96541,0.17198 l 0.0627,1.85473 h -0.21315 l -1.36659,-1.79335 c -0.0752,-0.0246 -0.15045,-0.041 -0.22569,-0.0492 -0.0752,-0.0164 -0.14627,-0.0246 -0.21313,-0.0246 -0.33434,0 -0.58092,0.086 -0.73973,0.25797 -0.15881,0.17198 -0.23821,0.39714 -0.23821,0.67575 0,0.30294 0.0836,0.5281 0.25075,0.67548 0.16717,0.14737 0.45971,0.31538 0.87764,0.5035 z m 4.2486,-5.19562 c 0.32597,0 0.61015,0.11059 0.85257,0.33152 0.24238,0.22119 0.36359,0.49556 0.36359,0.82312 0,0.32755 -0.12121,0.60192 -0.36359,0.82285 -0.24242,0.21299 -0.5266,0.31935 -0.85257,0.31935 -0.33436,0 -0.61852,-0.10636 -0.85257,-0.31935 -0.23402,-0.22093 -0.35105,-0.4953 -0.35105,-0.82285 0,-0.32756 0.11703,-0.60193 0.35105,-0.82312 0.23405,-0.22093 0.51821,-0.33152 0.85257,-0.33152 z m -1.85558,3.14457 2.74574,-0.39317 0.31345,0.0246 v 6.42409 l 0.7021,0.19632 v 0.20902 h -3.71115 v -0.20902 l 0.71467,-0.19632 v -5.55202 l -0.76481,-0.29474 z m 4.1393,6.25184 0.71464,-0.19632 v -5.55202 l -0.75226,-0.29474 v -0.20876 l 2.73322,-0.39317 0.27583,0.0246 v 0.8599 h 0.0752 c 0.29255,-0.29501 0.64778,-0.52017 1.06572,-0.67575 0.41791,-0.16377 0.84002,-0.24553 1.26629,-0.24553 0.59346,0 1.0281,0.14314 1.30392,0.42995 0.27586,0.28654 0.41376,0.73686 0.41376,1.35096 v 4.70456 l 0.71464,0.19632 v 0.20902 h -3.63593 v -0.20902 l 0.63942,-0.15955 v -4.61856 c 0,-0.32756 -0.0752,-0.56912 -0.22567,-0.7247 -0.15046,-0.15557 -0.37195,-0.23336 -0.6645,-0.23336 -0.18388,0 -0.35105,0.0206 -0.50151,0.0614 -0.14209,0.041 -0.28001,0.0942 -0.41373,0.1598 v 5.35543 l 0.62687,0.15955 v 0.20902 h -3.63593 z m 11.53986,0.36856 c -0.55166,0 -1.04063,-0.086 -1.4669,-0.25797 -0.41791,-0.17197 -0.76481,-0.41354 -1.04064,-0.72469 -0.27583,-0.31115 -0.48479,-0.68368 -0.62687,-1.1176 -0.14209,-0.44238 -0.21315,-0.92551 -0.21315,-1.44939 0,-1.07288 0.32599,-1.92458 0.97795,-2.55508 0.66032,-0.6305 1.5463,-0.94562 2.65798,-0.94562 0.44299,0 0.85256,0.0204 1.2287,0.0614 0.38449,0.0328 0.69791,0.086 0.94033,0.15955 l 0.0376,2.2725 h -0.21313 l -1.68005,-2.2479 c -0.0251,-0.008 -0.0502,-0.0122 -0.0752,-0.0122 -0.0167,0 -0.0376,0 -0.0627,0 -0.48479,0 -0.8609,0.24554 -1.12839,0.73687 -0.26747,0.49133 -0.40119,1.19142 -0.40119,2.10052 0,0.94986 0.17552,1.67032 0.52657,2.16165 0.35105,0.48313 0.91525,0.72469 1.6926,0.72469 0.28418,0 0.53493,-0.0204 0.75226,-0.0614 0.22566,-0.049 0.43045,-0.11456 0.61433,-0.19658 v 0.20902 c -0.22566,0.30294 -0.54329,0.56912 -0.95287,0.79824 -0.40954,0.2294 -0.93196,0.34396 -1.5672,0.34396 z m 9.58474,-3.75867 h -4.11242 c 0.0418,0.82709 0.22993,1.4822 0.56436,1.96533 0.34263,0.47492 0.94853,0.71252 1.81795,0.71252 0.28416,0 0.55166,-0.0206 0.80248,-0.0614 0.25056,-0.041 0.49319,-0.1106 0.72708,-0.20902 v 0.19658 c -0.19236,0.28681 -0.52229,0.55695 -0.99034,0.81069 -0.46831,0.24579 -1.04087,0.36856 -1.71767,0.36856 -1.15359,0 -2.02703,-0.31935 -2.62049,-0.95806 -0.59343,-0.6469 -0.89016,-1.51897 -0.89016,-2.6162 0,-1.07288 0.30506,-1.92034 0.91524,-2.54264 0.61852,-0.6305 1.45029,-0.94589 2.49486,-0.94589 1.05331,0 1.81822,0.27014 2.29447,0.81069 0.47652,0.53234 0.71464,1.29804 0.71464,2.29684 z m -3.05911,-3.04615 c -0.32597,0 -0.585,0.22517 -0.77735,0.67575 -0.18388,0.45032 -0.27596,1.15861 -0.27596,2.12487 l 1.94337,-0.086 c 0,-1.04828 -0.0751,-1.76054 -0.22569,-2.1373 -0.14208,-0.38471 -0.36354,-0.57733 -0.66437,-0.57733 z m 5.91291,6.64528 v -0.20902 l 1.241163,-0.3683 v -5.79755 l -1.241163,0.29474 v -0.28257 l 2.557723,-1.21603 h 0.9779 v 7.00141 l 1.20359,0.3683 v 0.20902 z m 11.798833,-2.32172 c 0,0.76994 -0.29687,1.3798 -0.89033,1.83039 -0.59346,0.44212 -1.44171,0.66331 -2.54502,0.66331 -1.11999,0 -1.95184,-0.19659 -2.49502,-0.58976 -0.54319,-0.40111 -0.81492,-0.94562 -0.81492,-1.63354 0,-0.60589 0.20902,-1.08902 0.6268,-1.44938 0.42624,-0.36857 0.94033,-0.6059 1.54225,-0.71253 -0.55165,-0.34395 -0.98636,-0.71225 -1.30386,-1.10542 -0.3093,-0.39318 -0.46408,-0.84747 -0.46408,-1.3634 0,-0.71253 0.26749,-1.27741 0.80248,-1.69519 0.53499,-0.41751 1.29566,-0.62627 2.28176,-0.62627 1.06998,0 1.83886,0.18415 2.30717,0.55272 0.47625,0.36856 0.71464,0.82285 0.71464,1.3634 0,0.27834 -0.0587,0.5281 -0.17568,0.7493 -0.10875,0.21272 -0.25903,0.39714 -0.45138,0.55271 -0.18389,0.15558 -0.40111,0.28654 -0.65193,0.39291 -0.25083,0.0984 -0.51409,0.17621 -0.78979,0.23362 l 0.35111,0.20876 c 0.61833,0.35216 1.09908,0.71649 1.44171,1.09299 0.34264,0.37677 0.51409,0.88847 0.51409,1.53538 z m -3.13452,-3.30412 0.56435,0.31936 c 0.18389,-0.21273 0.33417,-0.4625 0.45138,-0.74904 0.11695,-0.29501 0.17542,-0.63473 0.17542,-1.0197 0,-0.56489 -0.11694,-0.98663 -0.3511,-1.26498 -0.23389,-0.2868 -0.56409,-0.42994 -0.99034,-0.42994 -0.41804,0 -0.73977,0.127 -0.96546,0.38073 -0.21722,0.25374 -0.32597,0.59373 -0.32597,1.01944 0,0.41778 0.13785,0.7575 0.41381,1.01944 0.2757,0.254 0.61833,0.49557 1.02791,0.72469 z m -1.84309,3.48854 c 0,0.61409 0.13388,1.11363 0.40137,1.4986 0.2757,0.3847 0.68104,0.57732 1.21603,0.57732 0.46805,0 0.83582,-0.14341 1.10331,-0.42995 0.27596,-0.28681 0.41381,-0.67575 0.41381,-1.16708 0,-0.43392 -0.13362,-0.77364 -0.40111,-1.01944 -0.25929,-0.25373 -0.57679,-0.49133 -0.95303,-0.71226 l -1.12818,-0.66331 c -0.20902,0.20453 -0.37201,0.47493 -0.48922,0.81069 -0.10848,0.32755 -0.16298,0.69585 -0.16298,1.10543 z m 11.2985,0.49133 -0.16298,1.64597 h -5.66711 v -1.08109 l 1.52955,-1.17898 c 0.71041,-0.54875 1.17846,-1.09326 1.40415,-1.6338 0.23415,-0.54848 0.3511,-1.09326 0.3511,-1.63354 0,-0.54054 -0.10451,-0.98266 -0.31327,-1.32662 -0.20082,-0.35216 -0.53498,-0.52811 -1.00303,-0.52811 l -1.6301,2.45666 h -0.21299 l 0.0251,-2.28468 c 0.35931,-0.13123 0.76465,-0.22939 1.21603,-0.29475 0.45984,-0.0738 0.94033,-0.11059 1.44171,-0.11059 0.99483,0 1.73038,0.20055 2.20689,0.60166 0.48472,0.39317 0.72708,0.92551 0.72708,1.59702 0,0.78608 -0.2884,1.41658 -0.86519,1.89151 -0.57679,0.47493 -1.39568,0.92128 -2.45719,1.33879 l -1.27899,0.50377 v 0.0368 z m -5.39141,-5.45386 0.86518,-0.20876 c -0.13361,0.0246 -0.27569,0.0574 -0.42624,0.0984 -0.14208,0.0325 -0.28839,0.0696 -0.43894,0.11033 z m 6.164,7.09983 v -0.20902 l 1.24116,-0.3683 v -5.79755 l -1.24116,0.29474 v -0.28257 l 2.55772,-1.21603 h 0.9779 v 7.00141 l 1.20359,0.3683 v 0.20902 z"
       style="fill:#052962;stroke-width:0.26458332" />
  </g>
</svg>
