<?xml version="1.0" encoding="UTF-8" standalone="no"?>
<svg
   xmlns:dc="http://purl.org/dc/elements/1.1/"
   xmlns:cc="http://creativecommons.org/ns#"
   xmlns:rdf="http://www.w3.org/1999/02/22-rdf-syntax-ns#"
   xmlns:svg="http://www.w3.org/2000/svg"
   xmlns="http://www.w3.org/2000/svg"
   id="svg874"
   version="1.1"
   viewBox="0 0 66.674728 16.670479"
   height="16.670479mm"
   width="66.674728mm">
  <defs
     id="defs868" />
  <metadata
     id="metadata871">
    <rdf:RDF>
      <cc:Work
         rdf:about="">
        <dc:format>image/svg+xml</dc:format>
        <dc:type
           rdf:resource="http://purl.org/dc/dcmitype/StillImage" />
        <dc:title></dc:title>
      </cc:Work>
    </rdf:RDF>
  </metadata>
  <g
     transform="translate(-77.031683,-73.974285)"
     id="layer1">
    <path
       id="path18"
       d="m 77.771052,86.036299 c -0.12308,0 -0.24616,-0.0558 -0.38042,-0.15621 -0.13427,-0.100436 -0.22378,-0.234315 -0.29091,-0.379386 -0.0671,-0.145044 -0.0895,-0.256646 -0.0448,-0.345916 l 1.76782,-4.240133 c 0.0783,-0.18968 0.12308,-0.357055 0.15665,-0.479796 0.0224,-0.133905 -0.0112,-0.200845 -0.1007,-0.200845 -0.0559,0 -0.14546,0.04463 -0.27972,0.133906 -0.13427,0.08924 -0.27972,0.200845 -0.43637,0.334751 -0.16783,0.133879 -0.32447,0.27895 -0.4923,0.423994 -0.0224,0.02233 -0.0671,0.03347 -0.12308,0.02233 -0.0671,-0.01116 -0.0895,-0.0335 -0.0895,-0.06697 0,-0.04463 0.0112,-0.111575 0.0336,-0.18968 0.0224,-0.08927 0.0783,-0.189679 0.16783,-0.312446 0.27972,-0.37936 0.593,-0.691806 0.92867,-0.948425 0.33566,-0.256646 0.66014,-0.457491 0.97342,-0.591397 0.30211,-0.133906 0.53706,-0.212011 0.69372,-0.212011 0.0559,0 0.12306,0.03347 0.19021,0.08927 0.0671,0.06694 0.13425,0.133906 0.17901,0.22315 0.0447,0.08927 0.0447,0.167375 0,0.24548 -0.38041,0.725303 -0.73847,1.495214 -1.07413,2.276291 -0.33566,0.781076 -0.67132,1.551013 -1.00699,2.309759 -0.1007,0.223176 -0.16783,0.435187 -0.19021,0.613701 -0.0224,0.189706 0.0224,0.27895 0.13427,0.27895 0.11189,0 0.27972,-0.08924 0.50349,-0.27895 0.22378,-0.18968 0.48112,-0.43516 0.76085,-0.736441 0.27971,-0.301281 0.58181,-0.624867 0.89508,-0.970756 0.42519,-0.479822 0.83918,-0.970783 1.23079,-1.495214 0.41397,-0.502126 0.74964,-0.959617 1.05174,-1.372473 0.29091,-0.412856 0.48112,-0.702971 0.57063,-0.870347 0.0559,-0.111574 0.12306,-0.178514 0.20138,-0.211984 0.0783,-0.0335 0.15666,-0.0558 0.22378,-0.0558 0.0671,0 0.13428,0.03347 0.2014,0.100436 0.0671,0.06694 0.12309,0.145045 0.15663,0.234315 0.0336,0.08927 0.0448,0.167375 0.0112,0.234315 l -2.15943,4.9208 c -0.0895,0.212011 -0.13427,0.37936 -0.11189,0.479796 0.0112,0.111575 0.0671,0.167375 0.16783,0.167375 0.14546,0 0.33567,-0.07811 0.57062,-0.234315 0.23498,-0.156236 0.46993,-0.334751 0.7161,-0.546761 0.24614,-0.200845 0.45873,-0.390552 0.62656,-0.557927 0.0112,-0.01114 0.0224,-0.0223 0.0448,-0.0223 0.0335,0 0.0671,0.01117 0.10071,0.04463 0.0335,0.03347 0.0447,0.06694 0.0447,0.111575 0,0.02233 -0.0112,0.04463 -0.0112,0.06697 -0.0112,0.0223 -0.0224,0.05577 -0.0447,0.08924 -0.0224,0.0335 -0.0448,0.07813 -0.0671,0.111601 -0.0336,0.04463 -0.0672,0.08927 -0.1007,0.145044 -0.0448,0.0558 -0.0895,0.111575 -0.14547,0.178541 -0.21259,0.267785 -0.45873,0.524431 -0.73845,0.781077 -0.27972,0.24548 -0.58182,0.457491 -0.89511,0.613701 -0.32446,0.15621 -0.66014,0.24548 -1.01817,0.24548 -0.14547,0 -0.27972,-0.100436 -0.39161,-0.290115 -0.11189,-0.18968 -0.14544,-0.357056 -0.0783,-0.502127 0.15663,-0.334751 0.32446,-0.691806 0.5035,-1.071192 0.17902,-0.379386 0.33565,-0.725276 0.48112,-1.060026 0.13425,-0.323586 0.23495,-0.557901 0.29088,-0.725276 0.056,-0.133906 0.0448,-0.200872 -0.0112,-0.212011 -0.0672,-0.01117 -0.13428,0.01117 -0.19021,0.08927 -0.58182,0.636005 -1.09651,1.193932 -1.54406,1.662562 -0.44756,0.479822 -0.83916,0.870347 -1.16364,1.171628 -0.33566,0.31242 -0.61538,0.535596 -0.83915,0.691806 -0.22378,0.15621 -0.41399,0.24548 -0.55944,0.24548 z"
       style="fill:#052962;stroke-width:0.26458332" />
    <path
       id="path20"
       d="m 85.994762,86.069637 c -0.0671,0 -0.13428,-0.0223 -0.19021,-0.0781 -0.0671,-0.0558 -0.11189,-0.111575 -0.15663,-0.18968 -0.0448,-0.06697 -0.0784,-0.156237 -0.0895,-0.245481 -0.0112,-0.08927 -0.0112,-0.167375 0.0224,-0.234341 l 1.94685,-4.753403 c 0.2014,-0.490961 0.2126,-0.736441 0.0336,-0.736441 -0.11189,0 -0.23497,0.01114 -0.34687,0.04463 -0.12308,0.0223 -0.25733,0.100409 -0.4028,0.211984 -0.14544,0.111601 -0.31327,0.278977 -0.49229,0.513292 -0.0448,0.04463 -0.0895,0.06694 -0.14546,0.0558 -0.0447,0 -0.0895,-0.04464 -0.1119,-0.122741 0,-0.06697 0.0224,-0.156236 0.056,-0.256645 0.0335,-0.100437 0.0895,-0.212011 0.14544,-0.312447 0.056,-0.10041 0.10071,-0.18968 0.15666,-0.25662 0.16783,-0.256646 0.39159,-0.457491 0.6825,-0.602562 0.29091,-0.145044 0.61539,-0.223149 0.99581,-0.234315 0.12308,0 0.23495,0.03347 0.33565,0.08927 0.1007,0.06694 0.17904,0.145045 0.22378,0.25662 0.0448,0.111601 0.0448,0.234341 -0.0112,0.368247 l -1.10767,2.845329 c -0.0336,0.07813 -0.0224,0.12274 0.0224,0.133905 0.0447,0.01117 0.0895,-0.01114 0.12305,-0.06694 0.45874,-0.781076 0.92869,-1.439412 1.39862,-1.986174 0.46992,-0.535596 0.92866,-0.948452 1.36501,-1.227402 0.43638,-0.27895 0.82799,-0.424021 1.16364,-0.424021 0.23497,0 0.43637,0.07811 0.61539,0.24548 0.16783,0.167376 0.29091,0.379386 0.33565,0.647171 0.056,0.278977 0,0.591397 -0.15663,0.948452 l -1.54406,3.648763 c -0.16782,0.40169 -0.14546,0.602535 0.0895,0.602535 0.13428,0 0.3021,-0.05577 0.49231,-0.145044 0.19021,-0.100436 0.39161,-0.223176 0.59301,-0.357082 0.2014,-0.133879 0.38042,-0.267785 0.52586,-0.379359 0.15666,-0.12274 0.24617,-0.200845 0.29091,-0.245481 0.0112,-0.01116 0.0224,-0.01116 0.0224,-0.01116 0,0 0.0112,0 0.0224,0 0.0335,0 0.0671,0.01116 0.0895,0.04463 0.0224,0.03347 0.0447,0.06694 0.0447,0.111575 0,0.08927 -0.0224,0.167375 -0.0671,0.234315 -0.29091,0.345916 -0.6042,0.658336 -0.92866,0.937313 -0.33568,0.27895 -0.67133,0.502099 -1.0182,0.658336 -0.34684,0.15621 -0.70487,0.24548 -1.06293,0.24548 -0.10068,0 -0.20138,-0.03347 -0.30208,-0.111601 -0.1007,-0.07811 -0.17901,-0.167349 -0.22378,-0.27895 -0.0559,-0.111575 -0.0448,-0.22315 0.0112,-0.357055 0.32446,-0.747607 0.64894,-1.495213 0.98462,-2.231655 0.32446,-0.736441 0.63775,-1.484047 0.92866,-2.231654 0.17902,-0.457491 0.23495,-0.781077 0.19021,-0.959591 -0.0559,-0.189706 -0.16782,-0.278976 -0.32448,-0.290115 -0.12306,-0.01117 -0.26853,0.03347 -0.43635,0.12274 -0.16783,0.10041 -0.35804,0.245481 -0.57063,0.435161 -0.21259,0.200845 -0.44757,0.446325 -0.68252,0.747606 -0.13427,0.15621 -0.31329,0.401691 -0.53705,0.725276 -0.22378,0.334751 -0.48112,0.714137 -0.76083,1.138158 -0.27975,0.43516 -0.57066,0.892651 -0.86154,1.372447 -0.3021,0.490961 -0.58182,0.959617 -0.85037,1.428274 -0.10068,0.178514 -0.19021,0.31242 -0.26853,0.390525 -0.0895,0.07811 -0.16782,0.12274 -0.25733,0.12274 z"
       style="fill:#052962;stroke-width:0.26458332" />
    <path
       id="path22"
       d="m 91.913702,90.644759 c -0.41399,0 -0.74964,-0.06694 -1.007,-0.212011 -0.25734,-0.145044 -0.39161,-0.34589 -0.39161,-0.62484 0,-0.167375 0.0783,-0.323612 0.24616,-0.479822 0.16783,-0.15621 0.30211,-0.223149 0.41397,-0.223149 0.0895,0 0.17905,0.04463 0.24617,0.145044 0.0783,0.08927 0.17902,0.200845 0.27972,0.323586 0.1007,0.111601 0.22378,0.200845 0.35803,0.27895 0.14547,0.07813 0.31329,0.111601 0.5147,0.111601 0.21259,0 0.4028,-0.06697 0.54824,-0.178541 0.15663,-0.12274 0.31329,-0.345889 0.45873,-0.669501 0.15666,-0.323586 0.3133,-0.792216 0.49231,-1.405943 l 2.24896,-7.598754 c 0.0671,-0.200845 -0.0112,-0.301281 -0.23497,-0.301281 l -1.04056,0.02233 c -0.0783,0 -0.13427,-0.02233 -0.16782,-0.0558 -0.0336,-0.03347 -0.0448,-0.08927 -0.0448,-0.145045 0,-0.08927 0.0336,-0.178541 0.1007,-0.278977 0.0671,-0.08924 0.13427,-0.145044 0.22378,-0.15621 l 1.1748,-0.06694 c 0.15666,-0.02233 0.25736,-0.133905 0.3133,-0.33475 l 0.13427,-0.535596 c 0.2014,-0.792242 0.49231,-1.461744 0.85035,-2.008487 0.36922,-0.546756 0.77203,-0.981927 1.21957,-1.316675 0.43638,-0.323588 0.87273,-0.569068 1.297908,-0.725285 0.42516,-0.156216 0.772,-0.223165 1.06291,-0.223165 0.64897,0 1.15245,0.111582 1.49932,0.323589 0.34684,0.223165 0.52586,0.490963 0.52586,0.825711 0,0.278956 -0.0671,0.490961 -0.2126,0.636019 -0.14544,0.145058 -0.29088,0.223166 -0.44754,0.223166 -0.11189,0 -0.21259,-0.06695 -0.31329,-0.189691 -0.1007,-0.122739 -0.19021,-0.278955 -0.27972,-0.457487 -0.1007,-0.223166 -0.22375,-0.390539 -0.36922,-0.524439 -0.14544,-0.12274 -0.34685,-0.17853 -0.58182,-0.17853 -0.23495,0 -0.49231,0.04463 -0.78322,0.145058 -0.290878,0.100422 -0.570628,0.256637 -0.850348,0.479803 -0.2909,0.212008 -0.54824,0.502121 -0.78319,0.848026 -0.23498,0.345906 -0.42518,0.769914 -0.55946,1.249736 l -0.43635,1.573292 c 0,0.0558 0.0112,0.100436 0.0559,0.111601 0.0336,0.0223 0.0672,0.03347 0.11189,0.03347 0.16783,0 0.41399,0 0.74965,-0.01116 0.32448,0 0.68251,-0.01117 1.05174,-0.01117 0.36925,0 0.716098,-0.01114 1.029388,-0.0223 0.31326,0 0.53705,-0.01116 0.68249,-0.01116 0.0783,0 0.12309,0.06697 0.12309,0.189706 0,0.04463 -0.0224,0.111575 -0.0559,0.18968 -0.0448,0.07811 -0.10071,0.145045 -0.16783,0.212011 -0.0783,0.06694 -0.15666,0.08927 -0.25736,0.08927 l -3.199978,0.0223 c -0.11189,0 -0.2014,0.02233 -0.27971,0.0558 -0.0783,0.04463 -0.12309,0.111575 -0.14547,0.21201 -0.39161,1.260872 -0.77203,2.53291 -1.14126,3.816112 -0.36922,1.283203 -0.71606,2.55524 -1.04055,3.816112 -0.11189,0.446352 -0.3021,0.859208 -0.55943,1.227428 -0.26853,0.368221 -0.55944,0.691806 -0.88392,0.948452 -0.32449,0.267785 -0.66014,0.46863 -0.97343,0.613701 -0.29091,0.15621 -0.57063,0.22315 -0.80558,0.223149 z m 7.38457,-4.608354 c -0.1902,0 -0.34684,-0.06694 -0.46992,-0.18968 -0.12306,-0.12274 -0.17902,-0.24548 -0.17902,-0.390551 0,-0.04463 0,-0.08927 0.0112,-0.133906 0,-0.04461 0.0224,-0.08924 0.0448,-0.133879 l 2.293698,-5.679546 -0.53708,-0.446352 c 0.19021,-0.01114 0.38042,-0.0223 0.58182,-0.04463 0.2014,-0.0223 0.36923,-0.06694 0.5147,-0.145044 0.1007,-0.04463 0.2014,-0.03347 0.3021,0.03347 0.1007,0.06697 0.17901,0.145071 0.24614,0.24548 0.0559,0.100436 0.0783,0.178541 0.0559,0.234341 l -2.04753,4.831503 c -0.0448,0.08927 -0.0783,0.178541 -0.0895,0.256646 -0.0112,0.07811 -0.0224,0.15621 -0.0224,0.223176 0,0.07811 0.0336,0.133879 0.0895,0.15621 0.056,0.03347 0.12308,0.04464 0.17901,0.04464 0.15666,0 0.33568,-0.07811 0.53708,-0.223176 0.2014,-0.145044 0.41397,-0.334751 0.64895,-0.546761 0.22375,-0.223149 0.44754,-0.43516 0.66013,-0.647171 0.0224,-0.0223 0.0447,-0.03347 0.0671,-0.03347 0.0224,0 0.0448,0.01116 0.0671,0.0223 0.0224,0.02233 0.0335,0.0335 0.0335,0.0558 0,0.178541 -0.11189,0.401691 -0.31329,0.680667 -0.21257,0.278951 -0.48109,0.546735 -0.79439,0.814547 -0.32448,0.27895 -0.64894,0.502126 -0.98462,0.691806 -0.335648,0.189679 -0.637748,0.323585 -0.895108,0.323585 z"
       style="fill:#052962;stroke-width:0.26458332" />
    <path
       id="path24"
       d="m 103.93028,86.069637 c -0.0672,0 -0.13441,-0.0223 -0.19023,-0.0781 -0.0672,-0.0558 -0.11192,-0.111575 -0.15664,-0.18968 -0.0447,-0.06697 -0.0783,-0.156237 -0.0894,-0.245481 -0.0113,-0.08927 -0.0113,-0.167375 0.0222,-0.234341 l 1.94681,-4.753398 c 0.20134,-0.490961 0.21272,-0.736441 0.0336,-0.736441 -0.11192,0 -0.23495,0.01114 -0.34687,0.04463 -0.12303,0.0223 -0.25718,0.100409 -0.4027,0.211984 -0.14552,0.111601 -0.31326,0.278976 -0.49239,0.513291 -0.0447,0.04463 -0.0894,0.06694 -0.14552,0.0558 -0.0447,0 -0.0894,-0.04463 -0.11165,-0.12274 0,-0.06697 0.0222,-0.156236 0.0558,-0.256646 0.0336,-0.100436 0.0894,-0.21201 0.14552,-0.312446 0.0558,-0.10041 0.10054,-0.18968 0.15663,-0.25662 0.16775,-0.256645 0.39159,-0.457491 0.68236,-0.602562 0.29104,-0.145044 0.61542,-0.223149 0.99589,-0.234315 0.12304,0 0.23495,0.03347 0.33576,0.08927 0.10054,0.06694 0.17886,0.145045 0.22357,0.25662 0.045,0.111601 0.045,0.234341 -0.0111,0.368247 l -1.10754,2.845329 c -0.0336,0.07813 -0.0225,0.12274 0.0222,0.133906 0.0447,0.01117 0.0894,-0.01114 0.12303,-0.06694 0.45879,-0.781077 0.92869,-1.439413 1.39859,-1.986175 0.4699,-0.535596 0.92868,-0.948451 1.36525,-1.227402 0.43629,-0.27895 0.82788,-0.424021 1.16337,-0.424021 0.23521,0 0.43656,0.07811 0.61542,0.245481 0.16801,0.167375 0.29104,0.379386 0.33576,0.64717 0.0558,0.278977 0,0.591397 -0.15664,0.948452 l -1.5441,3.648759 c -0.16774,0.40169 -0.14552,0.602535 0.0894,0.602535 0.13441,0 0.30216,-0.05577 0.49239,-0.145044 0.19024,-0.100436 0.39158,-0.223176 0.59293,-0.357082 0.20161,-0.133879 0.38047,-0.267785 0.52599,-0.379359 0.15664,-0.122741 0.24607,-0.200846 0.29078,-0.245481 0.0114,-0.01117 0.0225,-0.01117 0.0225,-0.01117 0,0 0.0111,0 0.0225,0 0.0336,0 0.0669,0.01117 0.0894,0.04463 0.0225,0.03347 0.0447,0.06694 0.0447,0.111575 0,0.08927 -0.0222,0.167375 -0.0672,0.234315 -0.29078,0.345916 -0.60404,0.658336 -0.92869,0.937313 -0.33549,0.27895 -0.67125,0.502099 -1.01811,0.658336 -0.34687,0.15621 -0.70485,0.24548 -1.06284,0.24548 -0.1008,0 -0.20134,-0.03347 -0.30215,-0.111601 -0.10081,-0.07811 -0.17912,-0.167349 -0.22384,-0.27895 -0.0558,-0.111575 -0.0447,-0.22315 0.0114,-0.357055 0.32437,-0.747607 0.64875,-1.495214 0.9845,-2.231655 0.32438,-0.736441 0.63765,-1.484048 0.92869,-2.231654 0.17886,-0.457491 0.23495,-0.781077 0.19024,-0.959591 -0.0561,-0.189707 -0.16801,-0.278977 -0.32465,-0.290116 -0.12303,-0.01117 -0.26855,0.03347 -0.43629,0.12274 -0.16775,0.10041 -0.35799,0.245481 -0.57071,0.435161 -0.21246,0.200845 -0.44741,0.446325 -0.68236,0.747606 -0.13441,0.15621 -0.31327,0.401691 -0.53711,0.725276 -0.22383,0.334751 -0.48101,0.714137 -0.76094,1.138158 -0.27966,0.43516 -0.57044,0.892651 -0.86148,1.372447 -0.30215,0.490961 -0.58182,0.959617 -0.85037,1.428274 -0.10054,0.178514 -0.19024,0.31242 -0.26855,0.390525 -0.0783,0.07811 -0.16775,0.12274 -0.25718,0.12274 z"
       style="fill:#052962;stroke-width:0.26458332" />
    <path
       id="path26"
       d="m 112.82557,86.036405 c -0.19023,0 -0.34687,-0.06697 -0.4699,-0.189706 -0.12303,-0.12274 -0.19023,-0.245481 -0.19023,-0.390525 0,-0.04463 0,-0.08927 0.0111,-0.133906 0,-0.04464 0.0225,-0.08927 0.045,-0.133905 0.45852,-0.926122 0.83899,-1.796468 1.16337,-2.62218 0.31353,-0.814546 0.5932,-1.539849 0.83926,-2.15355 0.0447,-0.133905 0.0111,-0.200845 -0.0894,-0.200845 -0.0561,0 -0.16801,0.03347 -0.32465,0.08927 -0.16774,0.06694 -0.33549,0.145045 -0.51461,0.245481 -0.17886,0.100409 -0.33549,0.200845 -0.4699,0.301281 -0.0558,0.04461 -0.11192,0.05577 -0.16775,0.03347 -0.0561,-0.02233 -0.0897,-0.0558 -0.0897,-0.111602 0,-0.05577 0.045,-0.133879 0.1233,-0.24548 0.0894,-0.100409 0.20135,-0.22315 0.34687,-0.357055 0.15663,-0.133906 0.33549,-0.27895 0.54822,-0.424021 0.21246,-0.15621 0.44741,-0.301255 0.69373,-0.446326 0.24607,-0.15621 0.51462,-0.290116 0.79428,-0.412856 0.10081,-0.04463 0.20135,-0.03347 0.30216,0.03347 0.10054,0.06697 0.17885,0.145071 0.24606,0.245481 0.0561,0.100435 0.0783,0.17854 0.0561,0.234341 l -2.04761,4.831503 c -0.0447,0.08927 -0.0783,0.178541 -0.0894,0.256646 -0.0114,0.08927 -0.0225,0.15621 -0.0225,0.223176 0,0.07811 0.0336,0.133906 0.0894,0.15621 0.0561,0.03347 0.12303,0.04464 0.17912,0.04464 0.15664,0 0.33576,-0.07811 0.53711,-0.223176 0.20134,-0.145044 0.41381,-0.334751 0.64876,-0.546735 0.22383,-0.223176 0.44767,-0.435186 0.66013,-0.647197 0.0225,-0.0223 0.045,-0.03347 0.0672,-0.03347 0.0225,0 0.0447,0.01116 0.0672,0.02233 0.0222,0.0223 0.0336,0.03347 0.0336,0.05577 0,0.178541 -0.11192,0.40169 -0.32464,0.680667 -0.21246,0.27895 -0.48102,0.546735 -0.79428,0.814547 -0.32438,0.27895 -0.64903,0.502126 -0.98452,0.691806 -0.33575,0.189706 -0.61542,0.312446 -0.87286,0.312446 z m 3.39011,-8.826182 c -0.16775,0 -0.31327,-0.06697 -0.42519,-0.200846 -0.11165,-0.133905 -0.16774,-0.278976 -0.16774,-0.446338 0,-0.267798 0.0894,-0.502121 0.26855,-0.714127 0.17912,-0.200848 0.4027,-0.31243 0.67125,-0.31243 0.17912,0 0.32464,0.07811 0.42518,0.223162 0.10081,0.145058 0.15664,0.312434 0.15664,0.490964 0,0.245483 -0.0894,0.468654 -0.26856,0.658334 -0.17885,0.200845 -0.40269,0.301281 -0.66013,0.301281 z"
       style="fill:#052962;stroke-width:0.26458332" />
    <path
       id="path28"
       d="m 117.08801,86.036167 c -0.24606,0 -0.45879,-0.06694 -0.63765,-0.212011 -0.17912,-0.133905 -0.26855,-0.31242 -0.26855,-0.52443 0,-0.256646 0.0558,-0.446326 0.17886,-0.580232 0.11192,-0.12274 0.21273,-0.189679 0.29104,-0.189679 0.0783,0 0.15664,0.03347 0.24607,0.08924 0.0897,0.06697 0.17912,0.133905 0.27966,0.223176 0.1233,0.08927 0.25744,0.17854 0.41407,0.256645 0.14552,0.08927 0.34687,0.122741 0.59293,0.122741 0.30216,0 0.53711,-0.111602 0.72734,-0.323586 0.17913,-0.223176 0.26856,-0.446352 0.27967,-0.691832 0,-0.245481 -0.0447,-0.513265 -0.12303,-0.792216 -0.0783,-0.278972 -0.20135,-0.569088 -0.35798,-0.848038 -0.14553,-0.267785 -0.26856,-0.524431 -0.35799,-0.758746 -0.1008,-0.234341 -0.14552,-0.446352 -0.14552,-0.613701 0,-0.323612 0.0894,-0.624866 0.25744,-0.914982 0.16775,-0.27895 0.39159,-0.535596 0.63765,-0.747607 0.24606,-0.21201 0.5035,-0.379386 0.74956,-0.49096 0.24633,-0.122741 0.43657,-0.178541 0.58182,-0.178541 0.14552,0 0.29104,0.04463 0.43656,0.12274 0.14526,0.08927 0.26829,0.178541 0.35799,0.27895 0.0894,0.111601 0.14552,0.200872 0.14552,0.278977 0,0.06694 -0.0336,0.145044 -0.10081,0.24548 -0.0672,0.10041 -0.14552,0.178515 -0.23495,0.25662 -0.0894,0.07813 -0.16775,0.12274 -0.23495,0.12274 -0.0561,0 -0.11192,-0.0223 -0.16775,-0.08924 -0.0561,-0.0558 -0.11191,-0.12274 -0.17912,-0.189706 -0.0672,-0.06694 -0.14552,-0.122741 -0.24606,-0.18968 -0.10081,-0.0558 -0.22384,-0.08927 -0.38047,-0.08927 -0.17912,0 -0.33576,0.07811 -0.4699,0.223176 -0.13441,0.145044 -0.20161,0.34589 -0.20161,0.59137 0,0.08927 0.0336,0.234341 0.0897,0.424021 0.0558,0.18968 0.13414,0.390525 0.22383,0.580232 0.0894,0.189679 0.16775,0.379386 0.24607,0.535596 0.12303,0.223149 0.23495,0.502126 0.34687,0.848016 0.10054,0.345916 0.15663,0.636031 0.15663,0.892677 0,0.334724 -0.10081,0.647171 -0.29104,0.914956 -0.20135,0.278976 -0.44741,0.524457 -0.76068,0.725302 -0.31327,0.21201 -0.64902,0.36822 -1.01838,0.479795 -0.36909,0.145071 -0.72708,0.212011 -1.06283,0.212011 z"
       style="fill:#052962;stroke-width:0.26458332" />
    <path
       id="path30"
       d="m 121.97751,86.103318 c -0.0561,0 -0.11192,-0.02233 -0.15663,-0.06697 -0.0447,-0.04463 -0.0783,-0.100409 -0.10081,-0.167375 -0.0222,-0.06694 -0.0336,-0.133906 -0.0336,-0.200846 0,-0.167375 0.0225,-0.33475 0.0561,-0.502126 0.0336,-0.167375 0.0894,-0.36822 0.15663,-0.613701 l 2.37199,-8.089725 c 0.0558,-0.18969 0.11192,-0.401698 0.16775,-0.624861 0.0561,-0.223166 0.0897,-0.401699 0.0897,-0.513281 0,-0.111583 -0.0672,-0.189691 -0.21272,-0.245481 -0.14553,-0.05579 -0.27967,-0.100425 -0.41408,-0.156215 -0.0783,-0.02232 -0.14525,-0.04463 -0.21246,-0.07811 -0.0672,-0.02232 -0.0894,-0.06695 -0.0894,-0.111582 0,-0.04463 0.0111,-0.08927 0.0447,-0.122741 0.0336,-0.03348 0.11192,-0.07811 0.23495,-0.122742 0.0894,-0.03347 0.21246,-0.07811 0.38047,-0.133898 0.15664,-0.05579 0.33549,-0.111583 0.51462,-0.178532 0.17912,-0.05579 0.34687,-0.111583 0.5035,-0.145057 0.15664,-0.03347 0.25745,-0.05579 0.31327,-0.05579 0.0558,0 0.12304,0.01116 0.19024,0.02232 0.0672,0.01116 0.10081,0.06695 0.10081,0.145057 0,0.08927 -0.0114,0.167374 -0.0225,0.234322 -0.0111,0.06695 -0.0336,0.145058 -0.0561,0.223165 l -2.2823,7.84424 c -0.0225,0.07811 -0.0225,0.111601 0.0111,0.111601 0.0225,0 0.0558,-0.02233 0.0894,-0.06697 0.49239,-0.725276 0.99589,-1.372446 1.52162,-1.930373 0.52599,-0.557901 1.01838,-1.004226 1.49939,-1.327838 0.4699,-0.323586 0.87286,-0.479796 1.20835,-0.479796 0.36936,0 0.64903,0.122741 0.85037,0.368221 0.19024,0.24548 0.29105,0.535596 0.29105,0.848042 0,0.569066 -0.10081,1.171602 -0.31327,1.807634 -0.21273,0.636005 -0.48128,1.249706 -0.81677,1.829937 -0.33576,0.580232 -0.70511,1.082358 -1.0967,1.484048 -0.0669,0.06697 -0.16774,0.15621 -0.30189,0.256646 -0.13441,0.111575 -0.29104,0.212011 -0.47016,0.31242 -0.17886,0.100436 -0.35798,0.189706 -0.54822,0.256646 -0.17886,0.06697 -0.35798,0.111575 -0.51461,0.111575 -0.0783,0 -0.16775,-0.03347 -0.27967,-0.10041 -0.11192,-0.06697 -0.20135,-0.145071 -0.26855,-0.24548 -0.0783,-0.100436 -0.11192,-0.189706 -0.11192,-0.267811 0,-0.05577 0.0225,-0.122741 0.0672,-0.200846 0.0447,-0.07811 0.10054,-0.145044 0.16775,-0.200845 0.0672,-0.0558 0.13441,-0.08927 0.20135,-0.08927 0.1008,0 0.19023,0.02233 0.25744,0.0558 0.0672,0.04464 0.13414,0.08927 0.19023,0.145045 0.0672,0.0558 0.13414,0.111601 0.20135,0.156236 0.0672,0.04464 0.14552,0.06694 0.23495,0.06694 0.19023,0 0.39158,-0.111575 0.60431,-0.334751 0.21246,-0.223149 0.41381,-0.52443 0.61515,-0.892651 0.19024,-0.36822 0.36936,-0.769937 0.52599,-1.216263 0.15664,-0.43516 0.27967,-0.881486 0.38048,-1.327838 0.0894,-0.446326 0.14552,-0.859181 0.14552,-1.238541 0,-0.256646 -0.0561,-0.457491 -0.15664,-0.591397 -0.11192,-0.133905 -0.26855,-0.21201 -0.48127,-0.21201 -0.24607,0 -0.52573,0.12274 -0.82789,0.357055 -0.31326,0.24548 -0.62653,0.557927 -0.96228,0.948452 -0.33576,0.390551 -0.64903,0.814573 -0.96229,1.249733 -0.31327,0.446325 -0.60405,0.881512 -0.85038,1.305507 -0.25717,0.424021 -0.4699,0.792242 -0.61542,1.093523 -0.27966,0.535596 -0.49212,0.937286 -0.62653,1.205097 -0.13414,0.267785 -0.26855,0.412856 -0.4027,0.412856 z"
       style="fill:#052962;stroke-width:0.26458332" />
    <path
       id="path32"
       d="m 131.00695,86.047332 c -0.23495,0 -0.4699,-0.08927 -0.71597,-0.267811 -0.24606,-0.178514 -0.43629,-0.40169 -0.59293,-0.680641 -0.15663,-0.267811 -0.23495,-0.535596 -0.23495,-0.792241 0,-0.557901 0.11166,-1.149297 0.34661,-1.785329 0.22383,-0.624867 0.54848,-1.216237 0.95117,-1.774164 0.4027,-0.5579 0.8726,-1.004226 1.39859,-1.361308 0.52599,-0.345889 1.09643,-0.52443 1.68963,-0.52443 0.39158,0 0.69347,0.0781 0.91731,0.24548 0.22384,0.167376 0.32464,0.390552 0.32464,0.680667 0,0.34589 -0.11191,0.647171 -0.32464,0.903817 -0.21246,0.256619 -0.51461,0.479795 -0.88397,0.658336 -0.3691,0.18968 -0.78317,0.334751 -1.23058,0.457491 -0.44767,0.12274 -0.91757,0.234315 -1.38747,0.323586 -0.0672,0.01116 -0.12304,0.0223 -0.15664,0.04463 -0.0447,0.01114 -0.0672,0.05577 -0.0894,0.12274 -0.0783,0.24548 -0.15663,0.513265 -0.23495,0.803381 -0.0783,0.290115 -0.11192,0.569066 -0.11192,0.814546 0,0.390552 0.0783,0.691833 0.22358,0.903843 0.15663,0.211984 0.36935,0.323586 0.66013,0.323586 0.40296,0 0.73845,-0.100436 1.01838,-0.301281 0.27967,-0.200846 0.50351,-0.401691 0.68236,-0.602536 0.11192,-0.12274 0.21273,-0.178541 0.30216,-0.178541 0.11192,0 0.16774,0.0558 0.16774,0.167376 0,0.01117 0,0.03347 0,0.0558 0,0.03347 -0.0111,0.05577 -0.0336,0.0781 -0.22357,0.368221 -0.48101,0.680641 -0.76067,0.926121 -0.27967,0.245481 -0.58182,0.446326 -0.89509,0.569066 -0.31327,0.12274 -0.66013,0.189706 -1.02949,0.189706 z m 0.36935,-4.295933 c 0.12304,0 0.3355,-0.03347 0.62654,-0.111575 0.29077,-0.06697 0.60431,-0.189706 0.92869,-0.357082 0.32437,-0.15621 0.60404,-0.357055 0.82788,-0.602535 0.22383,-0.234315 0.34687,-0.524431 0.34687,-0.859182 0,-0.145071 -0.0447,-0.267811 -0.11192,-0.379386 -0.0783,-0.100436 -0.19024,-0.15621 -0.3355,-0.15621 -0.23495,0 -0.49238,0.100409 -0.76094,0.290116 -0.27966,0.200845 -0.5371,0.43516 -0.78316,0.702971 -0.24633,0.27895 -0.44768,0.535596 -0.61542,0.792242 -0.16775,0.256619 -0.24607,0.446326 -0.24607,0.569066 0,0.0781 0.0447,0.111575 0.12303,0.111575 z"
       style="fill:#052962;stroke-width:0.26458332" />
    <path
       id="path34"
       d="m 136.12055,86.036405 c -0.32465,0 -0.58182,-0.111575 -0.78343,-0.334751 -0.20135,-0.223149 -0.30189,-0.513265 -0.30189,-0.87032 0,-0.424021 0.0894,-0.892678 0.27966,-1.428274 0.17886,-0.524431 0.4363,-1.048861 0.76068,-1.584457 0.32464,-0.535596 0.68262,-1.026557 1.08532,-1.484048 0.43656,-0.490961 0.87286,-0.870347 1.33165,-1.149297 0.44741,-0.267811 0.85037,-0.412856 1.20835,-0.412856 0.14552,0 0.25717,0.0223 0.35798,0.05577 0.0894,0.04463 0.29104,0.15621 0.60431,0.357082 0.23495,0.145044 0.36909,0.223149 0.39158,0.24548 0.0222,0.0223 0.0336,0.0223 0.0111,0.0223 0.0336,0 0.0558,-0.03347 0.0894,-0.111575 l 1.11893,-3.771498 c 0.0225,-0.06695 0.0336,-0.12274 0.0447,-0.156215 0,-0.03348 0.0114,-0.06695 0.0114,-0.08927 0,-0.01116 0.0111,-0.03347 0.0111,-0.04463 0,-0.02232 0,-0.03348 0,-0.04463 0,-0.12274 -0.0336,-0.223163 -0.10081,-0.290113 -0.0672,-0.06695 -0.19024,-0.145058 -0.36909,-0.212008 -0.24633,-0.08926 -0.39159,-0.145058 -0.43657,-0.156215 -0.0447,-0.01116 -0.0669,-0.04463 -0.0669,-0.07811 0,-0.07811 0.0447,-0.133897 0.13415,-0.178533 0.0897,-0.04463 0.23495,-0.08927 0.43629,-0.122739 0.16801,-0.02232 0.33576,-0.04463 0.51488,-0.07811 0.16775,-0.02232 0.33549,-0.05579 0.48102,-0.06695 0.14552,-0.02232 0.26855,-0.03347 0.36935,-0.04463 0.10055,-0.01116 0.16775,-0.02232 0.20135,-0.02232 0.13415,0 0.20135,0.07811 0.20135,0.234323 0,0.05579 -0.0111,0.111584 -0.0111,0.178531 -0.0114,0.06695 -0.0336,0.1339 -0.0561,0.212008 l -2.75246,9.395261 c -0.0222,0.08924 -0.0447,0.178514 -0.0558,0.256619 -0.0225,0.08927 -0.0225,0.167376 -0.0225,0.256646 0,0.245481 0.0783,0.368221 0.23495,0.368221 0.14552,0 0.31327,-0.05577 0.51488,-0.15621 0.20135,-0.100436 0.40269,-0.24548 0.60404,-0.424021 0.20135,-0.178515 0.36936,-0.36822 0.51462,-0.569066 0.0225,-0.03347 0.045,-0.0558 0.0672,-0.06694 0.0225,-0.01116 0.0447,-0.02233 0.0672,-0.02233 0.0894,0 0.12303,0.04463 0.1008,0.133906 0,0.12274 -0.0672,0.27895 -0.17912,0.468657 -0.12303,0.189679 -0.29104,0.390525 -0.49239,0.59137 -0.20135,0.21201 -0.41381,0.40169 -0.64876,0.580231 -0.23521,0.178541 -0.44767,0.323585 -0.6604,0.435187 -0.21246,0.111574 -0.39158,0.167375 -0.53684,0.167375 -0.12329,0 -0.24632,-0.0335 -0.34687,-0.111601 -0.11191,-0.0781 -0.20134,-0.167376 -0.27966,-0.27895 -0.0783,-0.111575 -0.11192,-0.234315 -0.11192,-0.357056 0,-0.0558 0.0222,-0.200845 0.0669,-0.435186 0.0225,-0.12274 0.0561,-0.27895 0.10081,-0.457491 0.0447,-0.18968 0.0894,-0.357056 0.12303,-0.535596 0.0336,-0.167376 0.0672,-0.301255 0.0894,-0.37936 0.0114,-0.07813 0.0114,-0.06697 -0.0111,0.03347 0.0225,-0.08927 0.0225,-0.15621 -0.0111,-0.189706 -0.0336,-0.03347 -0.0561,-0.03347 -0.0894,0.02233 -0.77205,0.970756 -1.45468,1.662562 -2.02539,2.075418 -0.58181,0.412855 -1.17475,0.624866 -1.77879,0.624866 z m 0.62653,-0.792242 c 0.30189,0 0.62653,-0.111575 0.99563,-0.323585 0.35824,-0.22315 0.71623,-0.5021 1.06309,-0.870347 0.35799,-0.357055 0.67125,-0.758746 0.97341,-1.193932 0.29077,-0.435161 0.5371,-0.870321 0.71596,-1.305507 0.17912,-0.435161 0.26855,-0.836878 0.26855,-1.205098 0,-0.323586 -0.0783,-0.580231 -0.21246,-0.758746 -0.14552,-0.189706 -0.35825,-0.27895 -0.62653,-0.27895 -0.25744,0 -0.54848,0.12274 -0.87286,0.368221 -0.32438,0.24548 -0.66014,0.569065 -0.99589,0.970756 -0.3355,0.40169 -0.64876,0.836877 -0.92869,1.316672 -0.27967,0.479796 -0.51462,0.948452 -0.68236,1.417109 -0.17913,0.46863 -0.25744,0.881485 -0.25744,1.238567 0,0.245481 0.0447,0.412856 0.12303,0.5021 0.0783,0.07813 0.22384,0.12274 0.43656,0.12274 z"
       style="fill:#052962;stroke-width:0.26458332" />
  </g>
</svg>
