<svg width="252" height="159" viewBox="0 0 252 159" fill="none" xmlns="http://www.w3.org/2000/svg">
<path d="M5.35327 101.73C3.7222 101.73 2.4257 101.271 1.46379 100.312C0.460047 99.3937 0 98.1836 0 96.6398C0 95.5966 0.125467 94.4283 0.376402 93.0931C0.627337 91.7995 0.961916 90.4226 1.46379 89.0456L9.36823 65.1783C9.57734 64.5941 9.74463 64.01 9.82827 63.4675C9.91192 62.9251 9.99556 62.3409 9.99556 61.7985C9.99556 61.5899 9.8701 61.423 9.66098 61.2143C9.41005 61.0474 9.03365 60.8805 8.44813 60.7136C7.15164 60.3798 6.5243 60.0877 6.5243 59.7956C6.5243 59.587 6.60795 59.4201 6.73341 59.2949C6.85888 59.1698 7.15164 59.0446 7.52804 58.9194C7.98809 58.7525 8.5736 58.5439 9.3264 58.3352C10.0374 58.1266 10.7902 57.8762 11.543 57.6676C12.2958 57.459 12.965 57.2921 13.5923 57.1669C14.136 57.0835 14.5124 57 14.6797 57C15.3488 57 15.6834 57.2086 15.6834 57.6259C15.6834 58.0014 15.6416 58.3352 15.5998 58.5856C15.5579 58.8777 15.4325 59.2115 15.2652 59.6705C14.9306 60.505 14.4706 61.7568 13.8851 63.3841C13.2995 65.0531 12.6722 66.8891 11.9612 68.8919C11.2921 70.9365 10.5811 72.9811 9.8701 75.0257C9.15912 77.0702 8.48996 79.0314 7.90444 80.8256C7.27711 82.6198 6.81706 84.0802 6.48248 85.1234C6.31519 85.5406 6.31519 85.791 6.5243 85.8744C6.73341 85.9579 6.94253 85.791 7.23528 85.4155C9.70281 82.1608 12.0449 79.6573 14.2615 77.9048C16.478 76.1523 18.3601 75.276 19.9075 75.276C21.2458 75.276 22.3332 75.6933 23.2115 76.5695C24.0897 77.4458 24.508 78.5724 24.508 79.9076C24.508 81.827 24.1315 83.7881 23.3369 85.8327C22.5423 87.8773 21.4967 89.8384 20.2002 91.7161C18.9037 93.6355 17.3981 95.3045 15.7252 96.8067C14.0523 98.3088 12.3376 99.4771 10.5393 100.353C8.78271 101.313 7.02617 101.73 5.35327 101.73ZM6.94253 99.7692C7.48622 99.7692 8.1972 99.4771 9.07547 98.893C9.95374 98.3088 10.9157 97.516 11.9194 96.4729C12.9231 95.4714 13.9269 94.3031 14.8888 93.0096C15.8925 91.6744 16.8126 90.214 17.6491 88.5866C18.4855 87.001 19.1547 85.4572 19.6147 83.955C20.0748 82.4946 20.3257 81.2429 20.3257 80.2414C20.3257 79.5321 20.1584 78.9479 19.782 78.4472C19.4056 77.9882 18.9874 77.7379 18.4855 77.7379C17.189 77.7379 15.6834 78.4889 14.0523 79.9076C12.3794 81.368 10.4138 83.5795 8.23902 86.5838C6.85888 88.5032 5.72967 90.2974 4.89323 91.9247C4.05678 93.552 3.63855 94.7621 3.63855 95.5549C3.63855 96.6815 3.97313 97.6829 4.60047 98.4757C5.31145 99.352 6.10608 99.7692 6.94253 99.7692Z" fill="#052962"/>
<path d="M29.1494 102.148C28.6894 102.148 28.2293 101.939 27.7275 101.564C27.2256 101.188 26.891 100.687 26.6401 100.145C26.3891 99.6024 26.3055 99.1851 26.4728 98.8513L33.0807 82.9954C33.3735 82.2861 33.5408 81.6602 33.6662 81.2012C33.7499 80.7005 33.6244 80.4501 33.2898 80.4501C33.0807 80.4501 32.7461 80.617 32.2443 80.9508C31.7424 81.2846 31.1987 81.7019 30.6132 82.2026C29.9859 82.7033 29.4003 83.2458 28.773 83.7882C28.6894 83.8716 28.5221 83.8716 28.313 83.8299C28.062 83.7882 27.9784 83.7047 27.9784 83.5796C27.9784 83.4127 28.0202 83.1623 28.1039 82.8702C28.1875 82.5364 28.3966 82.1609 28.7312 81.7019C29.7767 80.2832 30.9478 79.1149 32.2025 78.1552C33.4571 77.1955 34.67 76.4444 35.841 75.9437C36.9702 75.443 37.8485 75.1509 38.434 75.1509C38.6431 75.1509 38.894 75.2761 39.145 75.4847C39.3959 75.7351 39.6468 75.9854 39.8141 76.2775C39.9814 76.6113 39.9814 76.9034 39.8141 77.1955C38.3922 79.9911 37.0539 82.8702 35.7992 85.791C34.5445 88.7119 33.2898 91.591 32.0352 94.4283C31.6588 95.2629 31.4078 96.0557 31.3242 96.7233C31.2405 97.4326 31.4078 97.8082 31.826 97.8082C32.2443 97.8082 32.8716 97.4743 33.7081 96.7233C34.5445 96.0139 35.5064 95.096 36.552 93.9694C37.5975 92.8428 38.7268 91.6327 39.8978 90.3392C41.487 88.545 43.0345 86.709 44.4982 84.7479C45.962 82.8285 47.2585 81.1177 48.3459 79.5739C49.4333 78.03 50.1443 76.9451 50.4789 76.3192C50.688 75.902 50.9389 75.6516 51.2317 75.5264C51.5244 75.4013 51.8172 75.3178 52.0681 75.3178C52.319 75.3178 52.57 75.443 52.8209 75.6933C53.0719 75.9437 53.281 76.2358 53.4064 76.5696C53.5319 76.9034 53.5737 77.1955 53.4483 77.4458L45.4183 95.847C45.0838 96.6398 44.9165 97.2657 45.0001 97.6413C45.0419 98.0585 45.2511 98.2671 45.6275 98.2671C46.1711 98.2671 46.8821 97.9751 47.7604 97.3909C48.6387 96.8067 49.5169 96.1391 50.437 95.3463C51.3571 94.5952 52.1518 93.8859 52.7791 93.26C52.8209 93.2183 52.8627 93.1766 52.9464 93.1766C53.0718 93.1766 53.1973 93.2183 53.3228 93.3435C53.4483 93.4686 53.4901 93.5938 53.4901 93.7607C53.4901 93.8442 53.4483 93.9276 53.4483 94.0111C53.4064 94.0945 53.3646 94.178 53.281 94.3449C53.2391 94.4701 53.1137 94.637 53.03 94.7621C52.9046 94.9291 52.7791 95.096 52.6536 95.3046C52.4863 95.5132 52.319 95.7219 52.1099 95.9722C51.3153 96.9736 50.3952 97.9333 49.3497 98.893C48.3041 99.811 47.1749 100.604 46.0039 101.188C44.791 101.772 43.5363 102.106 42.198 102.106C41.6543 102.106 41.1525 101.73 40.7342 101.021C40.316 100.312 40.1905 99.6858 40.4415 99.1434C41.027 97.8916 41.6543 96.5564 42.3235 95.1377C42.9926 93.719 43.5782 92.4255 44.1218 91.2154C44.6237 90.0054 45.0001 89.1291 45.2092 88.5032C45.4183 88.0025 45.3765 87.7522 45.1674 87.7104C44.9165 87.6687 44.6655 87.7939 44.4564 88.0443C42.2817 90.4226 40.3578 92.5089 38.6849 94.2614C37.012 96.0557 35.5482 97.5161 34.3354 98.6427C33.0807 99.811 32.0352 100.646 31.1987 101.23C30.4041 101.814 29.6931 102.148 29.1494 102.148Z" fill="#052962"/>
<path d="M58.5082 102.147C57.5881 102.147 56.7935 101.897 56.1243 101.354C55.4552 100.854 55.1206 100.186 55.1206 99.3933C55.1206 98.4336 55.3297 97.7243 55.7898 97.2236C56.208 96.7646 56.5844 96.5142 56.8771 96.5142C57.1699 96.5142 57.4627 96.6394 57.7972 96.848C58.1318 97.0984 58.4664 97.3488 58.8428 97.6826C59.3028 98.0164 59.8047 98.3502 60.3902 98.6423C60.9339 98.9761 61.6867 99.1012 62.6068 99.1012C63.736 99.1012 64.6143 98.684 65.3253 97.8912C65.9944 97.0567 66.329 96.2221 66.3708 95.3042C66.3708 94.3862 66.2036 93.3848 65.9108 92.3416C65.5762 91.2567 65.158 90.2136 64.5725 89.1704C64.0288 88.169 63.5687 87.2093 63.2342 86.3331C62.8578 85.4568 62.6905 84.664 62.6905 84.0381C62.6905 82.8281 63.025 81.7015 63.6524 80.6166C64.2797 79.5734 65.1162 78.6137 66.0363 77.8209C66.9564 77.0282 67.9183 76.4023 68.8384 75.985C69.7585 75.526 70.4694 75.3174 71.0131 75.3174C71.5568 75.3174 72.1005 75.4843 72.6442 75.7764C73.1879 76.1102 73.6479 76.444 73.9825 76.8195C74.3171 77.2368 74.5262 77.5706 74.5262 77.8627C74.5262 78.113 74.4007 78.4051 74.1498 78.7806C73.8989 79.1562 73.6061 79.4483 73.2715 79.7403C72.937 80.0324 72.6442 80.1993 72.3933 80.1993C72.1842 80.1993 71.975 80.1159 71.7659 79.8655C71.5568 79.6569 71.3477 79.4065 71.0968 79.1562C70.8458 78.9058 70.5531 78.6972 70.1767 78.4468C69.8003 78.2382 69.3402 78.113 68.7547 78.113C68.0856 78.113 67.5 78.4051 66.9982 78.9476C66.4963 79.49 66.2454 80.2411 66.2454 81.159C66.2454 81.4928 66.3708 82.0353 66.58 82.7446C66.7891 83.454 67.0818 84.205 67.4164 84.9144C67.751 85.6237 68.0437 86.3331 68.3365 86.9172C68.7965 87.7518 69.2148 88.7949 69.633 90.0884C70.0094 91.3819 70.2185 92.4668 70.2185 93.4265C70.2185 94.6783 69.8421 95.8466 69.1311 96.848C68.3783 97.8912 67.4582 98.8092 66.2872 99.5602C65.1162 100.353 63.8615 100.937 62.4814 101.354C61.1012 101.897 59.7629 102.147 58.5082 102.147Z" fill="#052962"/>
<path d="M78.3333 102.148C77.6223 102.148 77.0368 101.897 76.5767 101.438C76.1167 100.979 75.8657 100.52 75.8657 100.02C75.8657 99.8527 75.8657 99.6858 75.9075 99.5189C75.9075 99.352 75.9912 99.1851 76.0748 99.0182C77.7896 95.5549 79.2115 92.3003 80.4244 89.2125C81.5954 86.1248 82.641 83.4543 83.5611 81.1594C83.7283 80.6587 83.6029 80.4083 83.2265 80.4083C83.0174 80.4083 82.5991 80.5335 82.0136 80.7421C81.3863 80.9925 80.759 81.2846 80.0898 81.6601C79.4206 82.0356 78.8351 82.4112 78.3333 82.7867C78.1241 82.9536 77.915 82.9953 77.7059 82.9119C77.4968 82.8284 77.3713 82.7033 77.3713 82.4946C77.3713 82.286 77.5386 81.9939 77.8314 81.5767C78.166 81.2011 78.5842 80.7421 79.1279 80.2414C79.7134 79.7407 80.3826 79.1983 81.1772 78.6558C81.9718 78.0717 82.8501 77.5292 83.7702 76.9868C84.6903 76.4444 85.694 75.9019 86.7396 75.4429C87.116 75.276 87.4924 75.3177 87.8688 75.5681C88.2452 75.8185 88.5379 76.1105 88.7889 76.4861C88.998 76.8616 89.0816 77.1537 88.998 77.3623L81.3445 95.4297C81.1772 95.7635 81.0517 96.0973 81.0099 96.3894C80.9681 96.7232 80.9262 96.9736 80.9262 97.2239C80.9262 97.516 81.0517 97.7247 81.2608 97.8081C81.4699 97.9333 81.7209 97.975 81.93 97.975C82.5155 97.975 83.1847 97.6829 83.9375 97.1405C84.6903 96.598 85.4849 95.8887 86.3632 95.0959C87.1996 94.2614 88.0361 93.4686 88.8307 92.6758C88.9143 92.5923 88.998 92.5506 89.0816 92.5506C89.1653 92.5506 89.2489 92.5923 89.3326 92.6341C89.4162 92.6758 89.458 92.7593 89.458 92.8427C89.458 93.5103 89.0398 94.3448 88.2452 95.388C87.4505 96.4311 86.4468 97.4326 85.2758 98.434C84.0629 99.4771 82.8501 100.312 81.5954 101.021C80.3407 101.73 79.2952 102.148 78.3333 102.148ZM91.0055 69.1423C90.3781 69.1423 89.8344 68.8919 89.4162 68.3912C88.998 67.8905 88.7889 67.3063 88.7889 66.6805C88.7889 65.679 89.1234 64.8028 89.7926 64.01C90.4618 63.2589 91.2982 62.8417 92.3019 62.8417C92.9711 62.8417 93.5148 63.1337 93.8912 63.6762C94.2676 64.2186 94.4767 64.8445 94.4767 65.5121C94.4767 66.4301 94.1421 67.2646 93.473 67.974C92.8038 68.7668 91.9674 69.1423 91.0055 69.1423Z" fill="#052962"/>
<path d="M95.6463 102.273C95.3954 102.273 95.1445 102.189 94.9353 101.981C94.6844 101.772 94.5171 101.563 94.3498 101.271C94.1825 101.021 94.0571 100.687 94.0152 100.353C93.9734 100.02 93.9734 99.7275 94.0989 99.4772L101.376 81.7018C102.129 79.8659 102.171 78.9479 101.501 78.9479C101.083 78.9479 100.623 78.9897 100.205 79.1148C99.7449 79.1983 99.2431 79.4904 98.6994 79.9076C98.1557 80.3249 97.5283 80.9508 96.8592 81.8687C96.6919 82.0357 96.5246 82.1191 96.3155 82.0774C96.1482 82.0774 95.9809 81.9105 95.8973 81.6184C95.8973 81.368 95.9809 81.0342 96.1064 80.6587C96.2318 80.2832 96.441 79.8659 96.6501 79.4904C96.8592 79.1148 97.0265 78.781 97.2356 78.5307C97.8629 77.571 98.6994 76.8199 99.7867 76.2775C100.874 75.735 102.087 75.4429 103.509 75.4012C103.969 75.4012 104.387 75.5264 104.764 75.735C105.14 75.9854 105.433 76.2775 105.6 76.6947C105.767 77.112 105.767 77.571 105.558 78.0717L101.418 88.7118C101.292 89.0039 101.334 89.1708 101.501 89.2125C101.669 89.2543 101.836 89.1708 101.962 88.9622C103.676 86.0414 105.433 83.5795 107.189 81.5349C108.946 79.5321 110.661 77.9882 112.292 76.9451C113.923 75.9019 115.387 75.3595 116.641 75.3595C117.519 75.3595 118.272 75.6516 118.941 76.2775C119.569 76.9033 120.029 77.6961 120.196 78.6976C120.405 79.7407 120.196 80.9091 119.611 82.2443L113.839 95.8887C113.212 97.3909 113.295 98.1419 114.174 98.1419C114.676 98.1419 115.303 97.9333 116.014 97.5578C116.725 97.1822 117.478 96.7232 118.23 96.2225C118.983 95.7218 119.652 95.2211 120.196 94.8038C120.782 94.3448 121.116 94.0528 121.283 93.8859C121.325 93.8441 121.367 93.8441 121.367 93.8441C121.367 93.8441 121.409 93.8441 121.451 93.8441C121.576 93.8441 121.702 93.8859 121.785 94.011C121.869 94.1362 121.953 94.2614 121.953 94.4283C121.953 94.7621 121.869 95.0542 121.702 95.3045C120.614 96.5981 119.443 97.7664 118.23 98.8095C116.976 99.8527 115.721 100.687 114.425 101.271C113.128 101.856 111.79 102.189 110.451 102.189C110.075 102.189 109.699 102.064 109.322 101.772C108.946 101.48 108.653 101.146 108.486 100.729C108.277 100.312 108.319 99.8944 108.528 99.4354C109.74 96.6398 110.953 93.8441 112.208 91.0902C113.421 88.3363 114.592 85.5406 115.679 82.745C116.348 81.0342 116.558 79.8242 116.39 79.1566C116.181 78.4472 115.763 78.1134 115.177 78.0717C114.717 78.03 114.174 78.1969 113.546 78.5307C112.919 78.9062 112.208 79.4486 111.413 80.158C110.619 80.9091 109.74 81.827 108.862 82.9536C108.36 83.5378 107.691 84.4558 106.855 85.6658C106.018 86.9176 105.056 88.3363 104.011 89.9219C102.965 91.5075 101.878 93.2182 100.79 95.0542C99.6613 96.8901 98.6157 98.6426 97.612 100.395C97.2356 101.063 96.901 101.563 96.6082 101.856C96.3155 102.106 95.9809 102.273 95.6463 102.273Z" fill="#052962"/>
<path d="M131.404 102.189C130.526 102.189 129.648 101.856 128.728 101.188C127.808 100.52 127.097 99.6858 126.511 98.6426C125.926 97.6412 125.633 96.6398 125.633 95.6801C125.633 93.5938 126.051 91.3823 126.929 89.0039C127.766 86.6672 128.979 84.4558 130.484 82.3695C131.99 80.2832 133.746 78.6141 135.712 77.3206C137.678 75.9854 139.811 75.3595 142.027 75.3595C143.491 75.3595 144.62 75.6516 145.457 76.2775C146.293 76.9033 146.669 77.7379 146.669 78.8227C146.669 80.1163 146.251 81.2429 145.457 82.2026C144.662 83.1623 143.533 83.9968 142.153 84.6644C140.773 85.3737 139.225 85.9162 137.552 86.3752C135.879 86.8342 134.123 87.2514 132.366 87.5852C132.115 87.627 131.906 87.6687 131.781 87.7521C131.613 87.7939 131.53 87.9608 131.446 88.2111C131.153 89.1291 130.861 90.1305 130.568 91.2154C130.275 92.3003 130.15 93.3434 130.15 94.2614C130.15 95.7218 130.442 96.8484 130.986 97.6412C131.572 98.434 132.366 98.8513 133.454 98.8513C134.959 98.8513 136.214 98.4757 137.259 97.7247C138.305 96.9736 139.141 96.2225 139.811 95.4715C140.229 95.0125 140.605 94.8038 140.94 94.8038C141.358 94.8038 141.567 95.0125 141.567 95.4297C141.567 95.4715 141.567 95.5549 141.567 95.6384C141.567 95.7635 141.525 95.847 141.442 95.9304C140.605 97.3074 139.643 98.4757 138.598 99.3937C137.552 100.312 136.423 101.063 135.252 101.522C134.081 101.981 132.784 102.189 131.404 102.189ZM132.784 86.1248C133.244 86.1248 134.039 85.9996 135.127 85.7076C136.214 85.4572 137.385 84.9982 138.598 84.3723C139.811 83.7881 140.856 83.0371 141.693 82.1191C142.529 81.2429 142.989 80.158 142.989 78.9062C142.989 78.3638 142.822 77.9048 142.571 77.4875C142.278 77.112 141.86 76.9033 141.316 76.9033C140.438 76.9033 139.476 77.2789 138.472 77.9882C137.427 78.7393 136.465 79.6155 135.545 80.617C134.625 81.6601 133.872 82.6198 133.244 83.5795C132.617 84.5392 132.324 85.2486 132.324 85.7076C132.366 85.9996 132.492 86.1248 132.784 86.1248Z" fill="#052962"/>
<path d="M147.801 102.147C146.881 102.147 146.086 101.897 145.417 101.354C144.748 100.854 144.414 100.186 144.414 99.3933C144.414 98.4336 144.623 97.7243 145.083 97.2236C145.501 96.7646 145.877 96.5142 146.17 96.5142C146.463 96.5142 146.756 96.6394 147.09 96.848C147.425 97.0984 147.759 97.3488 148.136 97.6826C148.596 98.0164 149.098 98.3502 149.683 98.6423C150.227 98.9761 150.98 99.1012 151.9 99.1012C153.029 99.1012 153.907 98.684 154.618 97.8912C155.287 97.0567 155.622 96.2221 155.664 95.3042C155.664 94.3862 155.497 93.3848 155.204 92.3416C154.869 91.2567 154.451 90.2136 153.865 89.1704C153.322 88.169 152.862 87.2093 152.527 86.3331C152.151 85.4568 151.983 84.664 151.983 84.0381C151.983 82.8281 152.318 81.7015 152.945 80.6166C153.573 79.5734 154.409 78.6137 155.329 77.8209C156.249 77.0282 157.211 76.4023 158.131 75.985C159.051 75.526 159.762 75.3174 160.306 75.3174C160.85 75.3174 161.393 75.4843 161.937 75.7764C162.481 76.1102 162.941 76.444 163.276 76.8195C163.61 77.2368 163.819 77.5706 163.819 77.8627C163.819 78.113 163.694 78.4051 163.443 78.7806C163.192 79.1562 162.899 79.4483 162.565 79.7403C162.23 80.0324 161.937 80.1993 161.686 80.1993C161.477 80.1993 161.268 80.1159 161.059 79.8655C160.85 79.6569 160.641 79.4065 160.39 79.1562C160.139 78.9058 159.846 78.6972 159.47 78.4468C159.093 78.2382 158.633 78.113 158.048 78.113C157.379 78.113 156.793 78.4051 156.291 78.9476C155.789 79.49 155.538 80.2411 155.538 81.159C155.538 81.4928 155.664 82.0353 155.873 82.7446C156.082 83.454 156.375 84.205 156.709 84.9144C157.044 85.6237 157.337 86.3331 157.629 86.9172C158.09 87.7518 158.508 88.7949 158.926 90.0884C159.302 91.3819 159.511 92.4668 159.511 93.4265C159.511 94.6783 159.135 95.8466 158.424 96.848C157.671 97.8912 156.751 98.8092 155.58 99.5602C154.409 100.353 153.154 100.937 151.774 101.354C150.352 101.897 149.056 102.147 147.801 102.147Z" fill="#052962"/>
<path d="M165.114 102.147C164.194 102.147 163.399 101.897 162.73 101.354C162.061 100.854 161.727 100.186 161.727 99.3933C161.727 98.4336 161.936 97.7243 162.396 97.2236C162.814 96.7646 163.19 96.5142 163.483 96.5142C163.776 96.5142 164.069 96.6394 164.403 96.848C164.738 97.0984 165.072 97.3488 165.449 97.6826C165.909 98.0164 166.411 98.3502 166.996 98.6423C167.54 98.9761 168.293 99.1012 169.213 99.1012C170.342 99.1012 171.22 98.684 171.931 97.8912C172.6 97.0567 172.935 96.2221 172.977 95.3042C172.977 94.3862 172.81 93.3848 172.517 92.3416C172.182 91.2567 171.764 90.2136 171.178 89.1704C170.635 88.169 170.175 87.2093 169.84 86.3331C169.464 85.4568 169.296 84.664 169.296 84.0381C169.296 82.8281 169.631 81.7015 170.258 80.6166C170.886 79.5734 171.722 78.6137 172.642 77.8209C173.562 77.0282 174.524 76.4023 175.444 75.985C176.364 75.526 177.075 75.3174 177.619 75.3174C178.163 75.3174 178.706 75.4843 179.25 75.7764C179.794 76.1102 180.254 76.444 180.588 76.8195C180.923 77.2368 181.132 77.5706 181.132 77.8627C181.132 78.113 181.007 78.4051 180.756 78.7806C180.505 79.1562 180.212 79.4483 179.877 79.7403C179.543 80.0324 179.25 80.1993 178.999 80.1993C178.79 80.1993 178.581 80.1159 178.372 79.8655C178.163 79.6569 177.954 79.4065 177.703 79.1562C177.452 78.9058 177.159 78.6972 176.783 78.4468C176.406 78.2382 175.946 78.113 175.361 78.113C174.692 78.113 174.106 78.4051 173.604 78.9476C173.102 79.49 172.851 80.2411 172.851 81.159C172.851 81.4928 172.977 82.0353 173.186 82.7446C173.395 83.454 173.688 84.205 174.022 84.9144C174.357 85.6237 174.65 86.3331 174.942 86.9172C175.402 87.7518 175.821 88.7949 176.239 90.0884C176.615 91.3819 176.824 92.4668 176.824 93.4265C176.824 94.6783 176.448 95.8466 175.737 96.848C174.984 97.8912 174.064 98.8092 172.893 99.5602C171.722 100.353 170.467 100.937 169.087 101.354C167.665 101.897 166.369 102.147 165.114 102.147Z" fill="#052962"/>
<path d="M2.79445 45.5887C2.32928 45.5887 1.86411 45.3778 1.35665 44.9983C0.849193 44.6187 0.510886 44.1127 0.257157 43.5644C0.0034269 43.0162 -0.0811497 42.5944 0.0880035 42.257L6.76955 26.2313C7.06557 25.5144 7.23473 24.8818 7.36159 24.4179C7.44617 23.9118 7.3193 23.6588 6.981 23.6588C6.76955 23.6588 6.43125 23.8275 5.92379 24.1649C5.41633 24.5022 4.86658 24.924 4.27454 25.4301C3.64022 25.9361 3.04818 26.4844 2.41386 27.0326C2.32928 27.117 2.16013 27.1591 1.94869 27.117C1.69496 27.0748 1.61038 26.9904 1.61038 26.8639C1.61038 26.6952 1.65267 26.4422 1.73725 26.147C1.82182 25.8096 2.03327 25.4301 2.37157 24.9661C3.42878 23.5323 4.61285 22.3514 5.8815 21.3815C7.15015 20.4115 8.37651 19.6524 9.56058 19.1463C10.7024 18.6402 11.5904 18.345 12.1825 18.345C12.3939 18.345 12.6476 18.4715 12.9014 18.6824C13.1551 18.9354 13.4088 19.1885 13.578 19.5258C13.7471 19.8632 13.7471 20.1584 13.578 20.4536C12.1402 23.1949 10.7869 26.1048 9.51829 29.0569C8.24964 32.009 6.981 34.919 5.71235 37.7867C5.33175 38.6302 5.07802 39.4315 4.99345 40.1062C4.90887 40.8232 5.07802 41.1605 5.50091 41.1605C5.92379 41.1605 6.55811 40.8232 7.40388 40.1062C8.24964 39.3893 9.22227 38.4615 10.2795 37.3228C11.3367 36.1841 12.4785 34.9611 13.6625 33.6538C15.2695 31.8403 16.8342 29.9847 18.3143 28.0026C19.8789 26.1048 21.1476 24.3757 22.2894 22.8153C23.3889 21.2549 24.1078 20.1584 24.4461 19.5258C24.6575 19.1041 24.9112 18.8511 25.2072 18.7246C25.5033 18.598 25.7993 18.5137 26.053 18.5137C26.3067 18.5137 26.5605 18.6402 26.8142 18.8933C27.0679 19.1463 27.2794 19.4415 27.4062 19.7789C27.5331 20.1163 27.5754 20.4115 27.4485 20.6645L19.2869 39.2628C18.9486 40.0641 18.7794 40.6966 18.864 41.0762C18.9063 41.4979 19.1177 41.7088 19.4983 41.7088C20.0481 41.7088 20.767 41.4136 21.655 40.8232C22.5431 40.2327 23.4311 39.558 24.3615 38.7567C25.2918 37.9976 26.0953 37.2806 26.7296 36.648C26.7719 36.6059 26.8142 36.5637 26.8988 36.5637C27.0256 36.5637 27.1525 36.6059 27.2794 36.7324C27.4062 36.8589 27.4485 36.9854 27.4485 37.1541C27.4485 37.2385 27.4062 37.3228 27.4062 37.4072C27.364 37.4915 27.3217 37.618 27.2371 37.7445C27.1525 37.8711 27.0679 38.0398 26.9834 38.1663C26.8565 38.335 26.7296 38.5037 26.6028 38.7145C26.4336 38.9254 26.2645 39.1362 26.053 39.3893C25.2495 40.4014 24.3192 41.3714 23.262 42.3414C22.2048 43.2692 21.063 44.0705 19.8789 44.6609C18.6526 45.2513 17.3839 45.5887 16.0307 45.5887C15.4809 45.5887 14.9735 45.2091 14.5506 44.4922C14.1277 43.7753 14.0009 43.1427 14.2546 42.5944C14.8466 41.3292 15.4809 39.9797 16.1576 38.5458C16.8342 37.1119 17.4262 35.8046 17.976 34.5394C18.4834 33.3164 18.864 32.4308 19.0754 31.7982C19.2869 31.2921 19.2446 31.039 19.0332 30.9969C18.7794 30.9547 18.5257 31.0391 18.3143 31.3343C16.1153 33.7381 14.17 35.8468 12.4785 37.618C10.7869 39.4315 9.30685 40.9075 8.08049 42.0462C6.81184 43.227 5.75463 44.0705 4.90887 44.6609C4.0631 45.2513 3.3442 45.5887 2.79445 45.5887Z" fill="#052962"/>
<path d="M33.8762 45.7147C33.6225 45.7147 33.3687 45.6304 33.1573 45.4195C32.9036 45.2086 32.7344 44.9978 32.5653 44.7026C32.3961 44.4495 32.2692 44.1121 32.227 43.7748C32.1847 43.4374 32.1847 43.1422 32.3115 42.8891L39.6697 24.9235C40.4309 23.0679 40.4732 22.1401 39.7966 22.1401C39.3737 22.1401 38.9085 22.1822 38.4856 22.3088C38.0204 22.3931 37.513 22.6883 36.9632 23.11C36.4135 23.5318 35.7792 24.1644 35.1026 25.05C34.9334 25.2187 34.7642 25.303 34.5528 25.2609C34.3837 25.2609 34.2145 25.0922 34.1299 24.797C34.1299 24.5439 34.2145 24.2065 34.3414 23.827C34.4682 23.4474 34.6797 23.0257 34.8911 22.6461C35.1026 22.2666 35.2717 21.9292 35.4832 21.6762C36.1175 20.7062 36.9632 19.9471 38.0627 19.3988C39.1622 18.8506 40.3886 18.5554 41.8264 18.5132C42.2916 18.5132 42.7144 18.6397 43.095 18.8506C43.4756 19.1036 43.7717 19.3988 43.9408 19.8205C44.11 20.2423 44.11 20.7062 43.8985 21.2123L39.712 31.9663C39.5851 32.2616 39.6274 32.4302 39.7966 32.4724C39.9657 32.5146 40.1349 32.4303 40.2617 32.2194C41.9955 29.2673 43.7717 26.7791 45.5478 24.7126C47.3239 22.6883 49.0577 21.1279 50.7069 20.0736C52.3562 19.0193 53.8363 18.471 55.1049 18.471C55.993 18.471 56.7542 18.7662 57.4308 19.3988C58.0651 20.0314 58.5303 20.8327 58.6994 21.8448C58.9109 22.8992 58.6994 24.08 58.1074 25.4295L52.2716 39.2201C51.6373 40.7383 51.7218 41.4974 52.6099 41.4974C53.1174 41.4974 53.7517 41.2866 54.4706 40.9492C55.1895 40.5696 55.9507 40.1057 56.7119 39.5996C57.4731 39.0936 58.1497 38.5875 58.6994 38.1658C59.2915 37.7019 59.6298 37.4067 59.7989 37.238C59.8412 37.1958 59.8835 37.1958 59.8835 37.1958C59.8835 37.1958 59.9258 37.1958 59.9681 37.1958C60.0949 37.1958 60.2218 37.238 60.3064 37.3645C60.3909 37.491 60.4755 37.6175 60.4755 37.7862C60.4755 38.1236 60.3909 38.4188 60.2218 38.6718C59.1223 39.9792 57.9382 41.16 56.7119 42.2144C55.4432 43.2687 54.1746 44.1121 52.8636 44.7026C51.5527 45.293 50.1995 45.6304 48.8462 45.6304C48.4657 45.6304 48.0851 45.5039 47.7045 45.2086C47.3239 44.9134 47.0279 44.5761 46.8587 44.1543C46.6473 43.7326 46.6895 43.3109 46.901 42.8048C48.1273 39.9792 49.3537 37.1536 50.6224 34.3702C51.8487 31.5868 53.0328 28.7612 54.1323 25.9356C54.8089 24.2065 55.0203 22.9835 54.8512 22.3088C54.6397 21.5918 54.2169 21.2544 53.6248 21.2123C53.1597 21.1701 52.6099 21.3388 51.9756 21.6762C51.3413 22.0557 50.6224 22.604 49.8189 23.3209C49.0154 24.08 48.1273 25.0078 47.2393 26.1465C46.7318 26.7369 46.0552 27.6647 45.2095 28.8877C44.3637 30.1529 43.3911 31.5868 42.3339 33.1894C41.2766 34.8341 40.1771 36.5632 39.0777 38.3766C37.9359 40.2322 36.8787 42.0035 35.8637 43.7748C35.4832 44.4495 35.1448 44.9556 34.8488 45.2508C34.5105 45.546 34.2145 45.7147 33.8762 45.7147Z" fill="#052962"/>
<path d="M56.247 63.0065C54.6823 63.0065 53.4137 62.7535 52.441 62.2052C51.4684 61.657 50.9609 60.8979 50.9609 59.8436C50.9609 59.211 51.257 58.6205 51.8913 58.0301C52.5256 57.4397 53.0331 57.1867 53.4559 57.1867C53.7943 57.1867 54.1326 57.3554 54.3863 57.7349C54.6823 58.0723 55.0629 58.494 55.4435 58.9579C55.8241 59.3797 56.2893 59.717 56.7967 60.0122C57.3465 60.3075 57.9808 60.434 58.742 60.434C59.5455 60.434 60.2644 60.1809 60.8141 59.7592C61.4061 59.2953 61.9982 58.4519 62.5479 57.2288C63.14 56.0058 63.732 54.2346 64.4086 51.915L72.9086 23.1953C73.1623 22.4362 72.8663 22.0566 72.0205 22.0566L68.0877 22.141C67.7917 22.141 67.5802 22.0566 67.4534 21.9301C67.3265 21.8036 67.2842 21.5927 67.2842 21.3819C67.2842 21.0445 67.4111 20.7071 67.6648 20.3275C67.9185 19.9902 68.1723 19.7793 68.5106 19.7371L72.9508 19.4841C73.5429 19.3997 73.9235 18.978 74.1349 18.2189L74.6424 16.1946C75.4036 13.2003 76.5031 10.6699 77.8563 8.60347C79.2518 6.53699 80.7742 4.89225 82.4657 3.62706C84.115 2.40405 85.7642 1.47625 87.3712 0.885824C88.9781 0.295404 90.289 0.042366 91.3885 0.042366C93.8413 0.042366 95.7442 0.464095 97.0552 1.26538C98.3661 2.10884 99.0427 3.12099 99.0427 4.38618C99.0427 5.4405 98.789 6.24178 98.2392 6.79003C97.6895 7.33828 97.1398 7.63349 96.5477 7.63349C96.1248 7.63349 95.7442 7.38045 95.3636 6.91655C94.983 6.45265 94.6447 5.86223 94.3064 5.18746C93.9258 4.344 93.4607 3.71141 92.9109 3.20533C92.3612 2.74143 91.6 2.53057 90.7119 2.53057C89.8239 2.53057 88.8512 2.69926 87.7517 3.07882C86.6523 3.45837 85.595 4.04879 84.5378 4.89225C83.4383 5.69354 82.4657 6.79003 81.5777 8.09739C80.6896 9.40475 79.9707 11.0073 79.4632 12.8208L77.814 18.7671C77.814 18.978 77.8563 19.1467 78.0254 19.1889C78.1523 19.2732 78.2792 19.3154 78.4483 19.3154C79.0826 19.3154 80.013 19.3154 81.2816 19.2732C82.508 19.2732 83.8612 19.231 85.2567 19.231C86.6523 19.231 87.9632 19.1889 89.1473 19.1467C90.3313 19.1467 91.1771 19.1045 91.7268 19.1045C92.0229 19.1045 92.192 19.3576 92.192 19.8215C92.192 19.9902 92.1074 20.2432 91.9806 20.5384C91.8114 20.8336 91.6 21.0866 91.3463 21.3397C91.0502 21.5927 90.7542 21.6771 90.3736 21.6771L78.2792 21.7614C77.8563 21.7614 77.518 21.8458 77.222 21.9723C76.9259 22.141 76.7568 22.394 76.6722 22.7736C75.1921 27.5391 73.7543 32.3468 72.3588 37.1967C70.9633 42.0466 69.6524 46.8543 68.426 51.6198C68.0031 53.3068 67.2842 54.8672 66.3116 56.2589C65.2967 57.6506 64.1972 58.8736 62.9708 59.8436C61.7444 60.8557 60.4758 61.6148 59.2917 62.1631C58.1922 62.7535 57.135 63.0065 56.247 63.0065ZM84.1572 45.5891C83.4383 45.5891 82.8463 45.3361 82.3811 44.8722C81.916 44.4083 81.7045 43.9444 81.7045 43.3961C81.7045 43.2274 81.7045 43.0587 81.7468 42.89C81.7468 42.7214 81.8314 42.5527 81.916 42.384L90.5851 20.918L88.5552 19.231C89.2741 19.1889 89.993 19.1467 90.7542 19.0623C91.5154 18.978 92.1497 18.8093 92.6995 18.5141C93.0801 18.3454 93.4607 18.3876 93.8413 18.6406C94.2219 18.8937 94.5179 19.1889 94.7716 19.5684C94.983 19.948 95.0676 20.2432 94.983 20.4541L87.2443 38.7149C87.0751 39.0523 86.9483 39.3897 86.906 39.6849C86.8637 39.9801 86.8214 40.2753 86.8214 40.5284C86.8214 40.8236 86.9483 41.0344 87.1597 41.1188C87.3712 41.2453 87.6249 41.2875 87.8363 41.2875C88.4284 41.2875 89.105 40.9923 89.8662 40.444C90.6274 39.8958 91.4308 39.1788 92.3189 38.3775C93.1646 37.5341 94.0104 36.7328 94.8139 35.9315C94.8985 35.8472 94.983 35.805 95.0676 35.805C95.1522 35.805 95.2368 35.8472 95.3214 35.8893C95.4059 35.9737 95.4482 36.0159 95.4482 36.1002C95.4482 36.775 95.0253 37.6184 94.2641 38.6728C93.4607 39.7271 92.4458 40.7392 91.2617 41.7514C90.0353 42.8057 88.809 43.6492 87.5403 44.3661C86.2717 45.083 85.1299 45.5891 84.1572 45.5891Z" fill="#052962"/>
<path d="M101.664 45.7147C101.41 45.7147 101.156 45.6304 100.945 45.4195C100.691 45.2086 100.522 44.9978 100.353 44.7026C100.184 44.4495 100.057 44.1121 100.015 43.7748C99.9723 43.4374 99.9723 43.1422 100.099 42.8891L107.457 24.9235C108.218 23.0679 108.261 22.1401 107.584 22.1401C107.161 22.1401 106.696 22.1822 106.273 22.3088C105.808 22.3931 105.301 22.6883 104.751 23.11C104.201 23.5318 103.567 24.1644 102.89 25.05C102.721 25.2187 102.552 25.303 102.34 25.2609C102.171 25.2609 102.002 25.0922 101.918 24.797C101.918 24.5439 102.002 24.2065 102.129 23.827C102.256 23.4474 102.467 23.0257 102.679 22.6461C102.89 22.2666 103.059 21.9292 103.271 21.6762C103.905 20.7062 104.751 19.9471 105.85 19.3988C106.95 18.8506 108.176 18.5554 109.614 18.5132C110.079 18.5132 110.502 18.6397 110.883 18.8506C111.263 19.1036 111.559 19.3988 111.728 19.8205C111.898 20.2423 111.898 20.7062 111.686 21.2123L107.5 31.9663C107.373 32.2616 107.415 32.4302 107.584 32.4724C107.753 32.5146 107.922 32.4303 108.049 32.2194C109.783 29.2673 111.559 26.7791 113.335 24.7126C115.111 22.6883 116.845 21.1279 118.495 20.0736C120.144 19.0193 121.624 18.471 122.892 18.471C123.781 18.471 124.542 18.7662 125.218 19.3988C125.853 20.0314 126.318 20.8327 126.487 21.8448C126.698 22.8992 126.487 24.08 125.895 25.4295L120.059 39.2201C119.425 40.7383 119.509 41.4974 120.397 41.4974C120.905 41.4974 121.539 41.2866 122.258 40.9492C122.977 40.5696 123.738 40.1057 124.499 39.5996C125.261 39.0936 125.937 38.5875 126.487 38.1658C127.079 37.7019 127.417 37.4067 127.586 37.238C127.629 37.1958 127.671 37.1958 127.671 37.1958C127.671 37.1958 127.713 37.1958 127.756 37.1958C127.883 37.1958 128.009 37.238 128.094 37.3645C128.179 37.491 128.263 37.6175 128.263 37.7862C128.263 38.1236 128.179 38.4188 128.009 38.6718C126.91 39.9792 125.726 41.16 124.499 42.2144C123.231 43.2687 121.962 44.1121 120.651 44.7026C119.34 45.293 117.987 45.6304 116.634 45.6304C116.253 45.6304 115.873 45.5039 115.492 45.2086C115.111 44.9134 114.815 44.5761 114.646 44.1543C114.435 43.7326 114.477 43.3109 114.689 42.8048C115.915 39.9792 117.141 37.1536 118.41 34.3702C119.636 31.5868 120.82 28.7612 121.92 25.9356C122.596 24.2065 122.808 22.9835 122.639 22.3088C122.427 21.5918 122.004 21.2544 121.412 21.2123C120.947 21.1701 120.397 21.3388 119.763 21.6762C119.129 22.0557 118.41 22.604 117.606 23.3209C116.803 24.08 115.915 25.0078 115.027 26.1465C114.519 26.7369 113.843 27.6647 112.997 28.8877C112.151 30.1529 111.179 31.5868 110.121 33.1894C109.064 34.8341 107.965 36.5632 106.865 38.3766C105.723 40.2322 104.666 42.0035 103.651 43.7748C103.271 44.4495 102.932 44.9556 102.636 45.2508C102.34 45.546 102.002 45.7147 101.664 45.7147Z" fill="#052962"/>
<path d="M135.284 45.5891C134.565 45.5891 133.973 45.336 133.508 44.8721C133.043 44.4082 132.789 43.9443 132.789 43.3961C132.789 43.2274 132.789 43.0587 132.831 42.89C132.831 42.7213 132.916 42.5526 133.001 42.3839C134.734 38.8836 136.172 35.5941 137.398 32.4733C138.583 29.3947 139.64 26.6534 140.57 24.3339C140.739 23.8278 140.612 23.5748 140.232 23.5748C140.02 23.5748 139.597 23.7013 139.005 23.9122C138.371 24.1652 137.737 24.4604 137.06 24.84C136.384 25.2195 135.792 25.5991 135.284 25.9787C135.073 26.1473 134.861 26.1895 134.65 26.1052C134.438 26.0208 134.311 25.8943 134.311 25.6834C134.311 25.4726 134.481 25.1774 134.777 24.7556C135.115 24.3761 135.538 23.9122 136.088 23.4061C136.68 22.9 137.356 22.3518 138.16 21.8035C138.963 21.2131 139.851 20.6649 140.782 20.1166C141.712 19.5262 142.727 19.0201 143.784 18.5562C144.165 18.3875 144.545 18.4297 144.926 18.6827C145.306 18.9358 145.602 19.231 145.856 19.6105C146.068 19.9901 146.152 20.2853 146.068 20.4962L138.329 38.757C138.16 39.0944 138.033 39.4318 137.991 39.727C137.948 40.0644 137.906 40.3174 137.906 40.5705C137.906 40.8657 138.033 41.0766 138.244 41.1609C138.456 41.2874 138.709 41.3296 138.921 41.3296C139.513 41.3296 140.19 41.0344 140.951 40.4861C141.712 39.9379 142.515 39.2209 143.403 38.4197C144.249 37.5762 145.095 36.7749 145.898 35.9736C145.983 35.8893 146.068 35.8471 146.152 35.8471C146.237 35.8471 146.321 35.8893 146.406 35.9315C146.49 36.0158 146.533 36.058 146.533 36.1423C146.533 36.8171 146.11 37.6605 145.306 38.7149C144.503 39.7692 143.488 40.7813 142.304 41.7935C141.078 42.8478 139.851 43.6913 138.583 44.4082C137.314 45.1252 136.257 45.5891 135.284 45.5891ZM148.097 12.2303C147.463 12.2303 146.913 11.9772 146.49 11.4712C146.068 10.9651 145.856 10.4168 145.856 9.78425C145.856 8.7721 146.194 7.88647 146.871 7.08519C147.548 6.32608 148.393 5.90435 149.408 5.90435C150.085 5.90435 150.635 6.19956 151.015 6.7478C151.396 7.29605 151.607 7.92865 151.607 8.60341C151.607 9.53122 151.269 10.3747 150.592 11.0916C149.916 11.8507 149.07 12.2303 148.097 12.2303Z" fill="#052962"/>
<path d="M151.394 45.5882C150.464 45.5882 149.66 45.3352 148.984 44.7869C148.307 44.2808 147.969 43.6061 147.969 42.8048C147.969 41.8348 148.18 41.1179 148.645 40.6118C149.068 40.1479 149.449 39.8949 149.745 39.8949C150.041 39.8949 150.337 40.0214 150.675 40.2322C151.014 40.4853 151.352 40.7383 151.732 41.0757C152.198 41.4131 152.705 41.7505 153.297 42.0457C153.847 42.3831 154.608 42.5096 155.538 42.5096C156.68 42.5096 157.568 42.0878 158.287 41.2866C158.964 40.4431 159.302 39.5996 159.344 38.6718C159.344 37.744 159.175 36.7319 158.879 35.6776C158.583 34.6232 158.118 33.5267 157.526 32.4724C156.976 31.4603 156.511 30.4903 156.173 29.6047C155.792 28.719 155.623 27.9177 155.623 27.2852C155.623 26.0621 155.961 24.9235 156.596 23.827C157.23 22.7727 158.076 21.8027 159.006 21.0014C159.936 20.2001 160.909 19.5675 161.839 19.1458C162.77 18.6819 163.489 18.471 164.038 18.471C164.588 18.471 165.138 18.6397 165.688 18.9349C166.237 19.2723 166.702 19.6097 167.041 19.9892C167.379 20.411 167.591 20.7484 167.591 21.0436C167.591 21.2966 167.464 21.5918 167.21 21.9714C166.956 22.3509 166.66 22.6461 166.322 22.9413C165.984 23.2366 165.688 23.4052 165.434 23.4052C165.222 23.4052 165.011 23.3209 164.8 23.0679C164.588 22.857 164.377 22.604 164.123 22.3509C163.869 22.0979 163.573 21.887 163.193 21.634C162.812 21.4231 162.347 21.2966 161.755 21.2966C161.078 21.2966 160.486 21.5918 159.979 22.1401C159.471 22.6883 159.217 23.4474 159.217 24.3752C159.217 24.7126 159.344 25.2609 159.556 25.9778C159.767 26.6947 160.063 27.4538 160.402 28.1708C160.74 28.8877 161.036 29.6047 161.332 30.1951C161.797 31.0385 162.22 32.0929 162.643 33.4002C163.023 34.7076 163.235 35.8041 163.235 36.7741C163.235 38.0392 162.854 39.2201 162.135 40.2322C161.374 41.2866 160.444 42.2144 159.26 42.9735C158.076 43.7748 156.807 44.3652 155.411 44.7869C154.016 45.3352 152.663 45.5882 151.394 45.5882Z" fill="#052962"/>
<path d="M169.874 45.842C169.662 45.842 169.451 45.7576 169.282 45.5889C169.113 45.4202 168.986 45.2094 168.901 44.9563C168.817 44.7033 168.774 44.4502 168.774 44.1972C168.774 43.5646 168.859 42.932 168.986 42.2994C169.113 41.6668 169.324 40.9077 169.578 39.9799L178.543 9.40456C178.754 8.68762 178.966 7.88633 179.177 7.04288C179.389 6.19942 179.516 5.52465 179.516 5.10292C179.516 4.68119 179.262 4.38598 178.712 4.17512C178.162 3.96425 177.655 3.79556 177.147 3.5847C176.851 3.50035 176.598 3.41601 176.344 3.28949C176.09 3.20514 176.006 3.03645 176.006 2.86776C176.006 2.69907 176.048 2.53037 176.175 2.40386C176.302 2.27734 176.598 2.10865 177.063 1.93995C177.401 1.81344 177.866 1.64474 178.501 1.43388C179.093 1.22301 179.769 1.01215 180.446 0.759112C181.123 0.548248 181.757 0.337383 182.349 0.210865C182.941 0.0843458 183.322 0 183.533 0C183.744 0 183.998 0.0421729 184.252 0.0843458C184.506 0.126519 184.633 0.337383 184.633 0.632594C184.633 0.969977 184.59 1.26519 184.548 1.51822C184.506 1.77126 184.421 2.06647 184.336 2.36168L175.71 32.0092C175.625 32.3044 175.625 32.431 175.752 32.431C175.837 32.431 175.963 32.3466 176.09 32.1779C177.951 29.4367 179.854 26.9907 181.841 24.882C183.829 22.7734 185.69 21.0865 187.508 19.8634C189.284 18.6404 190.807 18.05 192.075 18.05C193.471 18.05 194.528 18.5139 195.289 19.4417C196.008 20.3695 196.389 21.466 196.389 22.6469C196.389 24.7977 196.008 27.075 195.205 29.4789C194.401 31.8827 193.386 34.2022 192.118 36.3952C190.849 38.5882 189.453 40.486 187.973 42.0042C187.72 42.2573 187.339 42.5946 186.832 42.9742C186.324 43.3959 185.732 43.7755 185.055 44.155C184.379 44.5346 183.702 44.872 182.983 45.125C182.307 45.3781 181.63 45.5467 181.038 45.5467C180.742 45.5467 180.404 45.4202 179.981 45.1672C179.558 44.9141 179.22 44.6189 178.966 44.2394C178.67 43.8598 178.543 43.5224 178.543 43.2272C178.543 43.0164 178.628 42.7633 178.797 42.4681C178.966 42.1729 179.177 41.9199 179.431 41.709C179.685 41.4981 179.939 41.3716 180.192 41.3716C180.573 41.3716 180.911 41.456 181.165 41.5825C181.419 41.7512 181.672 41.9199 181.884 42.1307C182.138 42.3416 182.391 42.5525 182.645 42.7212C182.899 42.8899 183.195 42.9742 183.533 42.9742C184.252 42.9742 185.013 42.5525 185.817 41.709C186.62 40.8656 187.381 39.7269 188.142 38.3352C188.861 36.9435 189.538 35.4252 190.13 33.7383C190.722 32.0936 191.187 30.4067 191.568 28.7197C191.906 27.0328 192.118 25.4724 192.118 24.0386C192.118 23.0686 191.906 22.3095 191.526 21.8034C191.103 21.2973 190.511 21.0021 189.707 21.0021C188.777 21.0021 187.72 21.466 186.578 22.3516C185.394 23.2794 184.21 24.4603 182.941 25.9363C181.672 27.4124 180.488 29.015 179.304 30.6597C178.12 32.3466 177.021 33.9914 176.09 35.5939C175.118 37.1965 174.314 38.5882 173.764 39.7269C172.707 41.7512 171.904 43.2694 171.396 44.2816C170.889 45.2937 170.381 45.842 169.874 45.842Z" fill="#052962"/>
<path d="M204.001 45.6304C203.113 45.6304 202.225 45.293 201.295 44.6182C200.365 43.9435 199.646 43.1 199.054 42.0457C198.462 41.0335 198.166 40.0214 198.166 39.0514C198.166 36.9428 198.588 34.7076 199.476 32.3037C200.322 29.942 201.549 27.7069 203.071 25.5982C204.593 23.4896 206.369 21.8027 208.357 20.4531C210.345 19.1458 212.501 18.471 214.743 18.471C216.223 18.471 217.364 18.7662 218.21 19.3988C219.056 20.0314 219.437 20.8749 219.437 21.9714C219.437 23.2787 219.014 24.4174 218.21 25.3874C217.407 26.3573 216.265 27.2008 214.869 27.8756C213.474 28.5925 211.909 29.1408 210.218 29.6047C208.526 30.0686 206.75 30.4903 204.974 30.8277C204.72 30.8699 204.509 30.912 204.382 30.9964C204.213 31.0385 204.128 31.2072 204.044 31.4603C203.748 32.3881 203.452 33.4002 203.156 34.4967C202.86 35.5932 202.733 36.6475 202.733 37.5753C202.733 39.0514 203.029 40.1901 203.578 40.9914C204.17 41.7926 204.974 42.2144 206.073 42.2144C207.596 42.2144 208.864 41.8348 209.922 41.0757C210.979 40.3166 211.825 39.5575 212.501 38.7984C212.924 38.3345 213.305 38.1236 213.643 38.1236C214.066 38.1236 214.277 38.3345 214.277 38.7562C214.277 38.7984 214.277 38.8827 214.277 38.9671C214.277 39.0936 214.235 39.1779 214.15 39.2623C213.305 40.654 212.332 41.8348 211.275 42.7626C210.218 43.6904 209.076 44.4495 207.892 44.9134C206.708 45.3773 205.397 45.6304 204.001 45.6304ZM205.397 29.3938C205.862 29.3938 206.665 29.2673 207.765 28.9721C208.864 28.719 210.049 28.2551 211.275 27.6225C212.501 27.0321 213.558 26.273 214.404 25.3452C215.25 24.4596 215.715 23.3631 215.715 22.0979C215.715 21.5496 215.546 21.0857 215.292 20.664C214.996 20.2844 214.573 20.0736 214.024 20.0736C213.136 20.0736 212.163 20.4531 211.148 21.1701C210.091 21.9292 209.118 22.8148 208.188 23.827C207.257 24.8813 206.496 25.8513 205.862 26.8213C205.228 27.7912 204.932 28.5082 204.932 28.9721C204.932 29.2673 205.101 29.3938 205.397 29.3938Z" fill="#052962"/>
<path d="M223.328 45.5891C222.101 45.5891 221.129 45.1674 220.367 44.3239C219.606 43.4805 219.226 42.384 219.226 41.0345C219.226 39.4319 219.564 37.6606 220.283 35.6363C220.959 33.6542 221.932 31.6721 223.158 29.6478C224.385 27.6235 225.738 25.7679 227.26 24.0388C228.91 22.1832 230.559 20.7493 232.293 19.695C233.984 18.6828 235.507 18.1346 236.86 18.1346C237.41 18.1346 237.832 18.2189 238.213 18.3454C238.551 18.5141 239.313 18.9358 240.497 19.695C241.385 20.2432 241.892 20.5384 241.977 20.6228C242.061 20.7071 242.104 20.7071 242.019 20.7071C242.146 20.7071 242.23 20.5806 242.357 20.2854L246.586 6.03092C246.671 5.77788 246.713 5.56702 246.755 5.4405C246.755 5.31398 246.798 5.18746 246.798 5.10312C246.798 5.06094 246.84 4.9766 246.84 4.93443C246.84 4.85008 246.84 4.80791 246.84 4.76573C246.84 4.30183 246.713 3.92228 246.459 3.66924C246.205 3.4162 245.74 3.12099 245.064 2.86795C244.133 2.53057 243.584 2.3197 243.414 2.27753C243.245 2.23536 243.161 2.10884 243.161 1.98232C243.161 1.68711 243.33 1.47625 243.668 1.30755C244.007 1.13886 244.556 0.97017 245.317 0.843652C245.952 0.759306 246.586 0.67496 247.263 0.548441C247.897 0.464095 248.531 0.337577 249.081 0.295404C249.631 0.211058 250.096 0.168885 250.477 0.126712C250.857 0.084539 251.111 0.042366 251.238 0.042366C251.745 0.042366 251.999 0.337576 251.999 0.927997C251.999 1.13886 251.957 1.34973 251.957 1.60276C251.914 1.8558 251.83 2.10884 251.745 2.40405L241.342 37.9137C241.258 38.251 241.173 38.5884 241.131 38.8836C241.046 39.221 241.046 39.5162 241.046 39.8536C241.046 40.7814 241.342 41.2453 241.934 41.2453C242.484 41.2453 243.118 41.0345 243.88 40.6549C244.641 40.2753 245.402 39.7271 246.163 39.0523C246.924 38.3776 247.559 37.6606 248.108 36.9015C248.193 36.775 248.278 36.6906 248.362 36.6485C248.447 36.6063 248.531 36.5641 248.616 36.5641C248.954 36.5641 249.081 36.7328 248.997 37.0702C248.997 37.5341 248.743 38.1245 248.32 38.8415C247.855 39.5584 247.22 40.3175 246.459 41.0766C245.698 41.8779 244.895 42.5948 244.007 43.2696C243.118 43.9444 242.315 44.4926 241.511 44.9144C240.708 45.3361 240.031 45.547 239.482 45.547C239.016 45.547 238.551 45.4204 238.171 45.1252C237.748 44.83 237.41 44.4926 237.114 44.0709C236.818 43.6492 236.691 43.1853 236.691 42.7214C236.691 42.5105 236.775 41.9623 236.944 41.0766C237.029 40.6127 237.156 40.0223 237.325 39.3475C237.494 38.6306 237.663 37.998 237.79 37.3232C237.917 36.6906 238.044 36.1846 238.128 35.8894C238.171 35.5941 238.171 35.6363 238.086 36.0159C238.171 35.6785 238.171 35.4255 238.044 35.2989C237.917 35.1724 237.832 35.1724 237.706 35.3833C234.788 39.0523 232.208 41.667 230.051 43.2274C227.852 44.7878 225.611 45.5891 223.328 45.5891ZM225.696 42.5948C226.837 42.5948 228.064 42.1731 229.459 41.3718C230.813 40.5284 232.166 39.4741 233.477 38.0823C234.83 36.7328 236.014 35.2146 237.156 33.5698C238.255 31.9251 239.186 30.2804 239.862 28.6356C240.539 26.9909 240.877 25.4726 240.877 24.0809C240.877 22.8579 240.581 21.8879 240.074 21.2132C239.524 20.4962 238.72 20.1589 237.706 20.1589C236.733 20.1589 235.633 20.6228 234.407 21.5506C233.181 22.4784 231.912 23.7014 230.643 25.2196C229.375 26.7378 228.191 28.3826 227.133 30.196C226.076 32.0094 225.188 33.7807 224.554 35.552C223.877 37.3232 223.581 38.8836 223.581 40.2332C223.581 41.161 223.75 41.7936 224.046 42.1309C224.342 42.4262 224.892 42.5948 225.696 42.5948Z" fill="#052962"/>
<path d="M12.3679 141.637C14.8004 142.752 16.6485 143.928 17.9121 145.166C19.1757 146.404 19.8076 148.183 19.8076 150.504C19.8076 153.104 18.8914 155.162 17.0591 156.679C15.2269 158.164 12.589 158.907 9.1456 158.907C7.59764 158.907 6.04968 158.799 4.50172 158.582C2.95376 158.396 1.54796 158.072 0.284319 157.607L0 150.087H0.805572L7.58185 157.839C7.80298 157.901 8.03992 157.963 8.29264 158.025C8.54537 158.056 8.7823 158.072 9.00344 158.072C10.4566 158.072 11.5149 157.716 12.1783 157.004C12.8733 156.292 13.2208 155.348 13.2208 154.172C13.2208 153.12 12.9049 152.315 12.2731 151.758C11.6413 151.201 10.583 150.582 9.09821 149.901L7.53446 149.205C5.16513 148.121 3.31706 146.93 1.99023 145.63C0.695003 144.33 0.0473865 142.612 0.0473865 140.477C0.0473865 137.877 0.931936 135.85 2.70103 134.395C4.47013 132.941 6.93423 132.213 10.0933 132.213C11.3886 132.213 12.7154 132.275 14.0738 132.399C15.4322 132.523 16.6485 132.739 17.7226 133.049L17.9595 140.059H17.1539L11.9888 133.281C11.7045 133.188 11.4202 133.126 11.1358 133.095C10.8515 133.033 10.583 133.002 10.3303 133.002C9.06662 133.002 8.13469 133.327 7.53446 133.977C6.93423 134.627 6.63412 135.478 6.63412 136.531C6.63412 137.676 6.95003 138.527 7.58185 139.084C8.21367 139.641 9.31935 140.276 10.8989 140.987L12.3679 141.637ZM28.4256 122C29.6576 122 30.7317 122.418 31.6479 123.253C32.564 124.089 33.0221 125.126 33.0221 126.364C33.0221 127.602 32.564 128.639 31.6479 129.474C30.7317 130.279 29.6576 130.681 28.4256 130.681C27.1619 130.681 26.0879 130.279 25.2033 129.474C24.3188 128.639 23.8765 127.602 23.8765 126.364C23.8765 125.126 24.3188 124.089 25.2033 123.253C26.0879 122.418 27.1619 122 28.4256 122ZM21.4124 133.885L31.79 132.399L32.9747 132.492V156.772L35.6283 157.514V158.304H21.6019V157.514L24.303 156.772V135.788L21.4124 134.674V133.885ZM37.057 157.514L39.758 156.772V135.788L36.9148 134.674V133.885L47.2451 132.399L48.2876 132.492V135.742H48.5719C49.6776 134.627 51.0202 133.776 52.5998 133.188C54.1793 132.569 55.7747 132.26 57.3858 132.26C59.6288 132.26 61.2715 132.801 62.314 133.885C63.3566 134.968 63.8778 136.67 63.8778 138.991V156.772L66.5788 157.514V158.304H52.8367V157.514L55.2534 156.911V139.455C55.2534 138.217 54.9691 137.304 54.4005 136.716C53.8318 136.128 52.9947 135.834 51.889 135.834C51.194 135.834 50.5622 135.912 49.9935 136.066C49.4565 136.221 48.9352 136.422 48.4298 136.67V156.911L50.7991 157.514V158.304H37.057V157.514ZM80.6722 158.907C78.5872 158.907 76.7391 158.582 75.128 157.932C73.5485 157.282 72.2374 156.369 71.1949 155.193C70.1524 154.017 69.3626 152.609 68.8256 150.969C68.2886 149.297 68.02 147.471 68.02 145.491C68.02 141.436 69.2521 138.217 71.7162 135.834C74.2119 133.451 77.5605 132.26 81.7621 132.26C83.4364 132.26 84.9844 132.337 86.406 132.492C87.8592 132.616 89.0438 132.817 89.96 133.095L90.1021 141.684H89.2966L82.9468 133.188C82.852 133.157 82.7572 133.142 82.6625 133.142C82.5993 133.142 82.5203 133.142 82.4255 133.142C80.5932 133.142 79.1717 134.07 78.1607 135.927C77.1498 137.784 76.6444 140.43 76.6444 143.866C76.6444 147.456 77.3078 150.179 78.6346 152.036C79.9614 153.862 82.0938 154.775 85.0318 154.775C86.1059 154.775 87.0536 154.698 87.875 154.543C88.7279 154.358 89.5019 154.11 90.1969 153.8V154.59C89.344 155.735 88.1435 156.741 86.5955 157.607C85.0476 158.474 83.0731 158.907 80.6722 158.907ZM116.898 144.701H101.355C101.513 147.827 102.224 150.303 103.488 152.129C104.783 153.924 107.073 154.822 110.359 154.822C111.433 154.822 112.444 154.744 113.392 154.59C114.339 154.435 115.256 154.172 116.14 153.8V154.543C115.413 155.627 114.166 156.648 112.397 157.607C110.627 158.536 108.463 159 105.905 159C101.545 159 98.2438 157.793 96.0008 155.379C93.7579 152.934 92.6364 149.638 92.6364 145.491C92.6364 141.436 93.7894 138.233 96.0956 135.881C98.4333 133.498 101.577 132.306 105.525 132.306C109.506 132.306 112.397 133.327 114.197 135.37C115.998 137.382 116.898 140.276 116.898 144.051V144.701ZM105.336 133.188C104.104 133.188 103.125 134.039 102.398 135.742C101.703 137.444 101.355 140.121 101.355 143.773L108.7 143.448C108.7 139.486 108.416 136.794 107.847 135.37C107.31 133.916 106.473 133.188 105.336 133.188ZM127.684 158.304V157.514L132.375 156.122V134.21L127.684 135.324V134.256L137.351 129.66H141.047V156.122L145.596 157.514V158.304H127.684ZM172.278 149.529C172.278 152.439 171.156 154.744 168.913 156.447C166.67 158.118 163.464 158.954 159.294 158.954C155.061 158.954 151.917 158.211 149.864 156.725C147.811 155.209 146.784 153.151 146.784 150.551C146.784 148.261 147.574 146.435 149.153 145.073C150.764 143.68 152.707 142.783 154.982 142.38C152.897 141.08 151.254 139.688 150.054 138.202C148.885 136.716 148.3 134.999 148.3 133.049C148.3 130.356 149.311 128.221 151.333 126.642C153.355 125.064 156.23 124.275 159.957 124.275C164.001 124.275 166.907 124.971 168.677 126.364C170.477 127.757 171.378 129.474 171.378 131.517C171.378 132.569 171.156 133.513 170.714 134.349C170.303 135.153 169.735 135.85 169.008 136.438C168.313 137.026 167.492 137.521 166.544 137.923C165.596 138.295 164.601 138.589 163.559 138.806L164.886 139.595C167.223 140.926 169.04 142.303 170.335 143.726C171.63 145.15 172.278 147.084 172.278 149.529ZM160.431 137.041L162.564 138.248C163.259 137.444 163.827 136.5 164.27 135.417C164.712 134.302 164.933 133.018 164.933 131.563C164.933 129.428 164.491 127.834 163.606 126.782C162.722 125.698 161.474 125.157 159.863 125.157C158.283 125.157 157.067 125.637 156.214 126.596C155.393 127.555 154.982 128.84 154.982 130.449C154.982 132.028 155.503 133.312 156.546 134.302C157.588 135.262 158.883 136.175 160.431 137.041ZM153.465 150.226C153.465 152.547 153.971 154.435 154.982 155.89C156.024 157.344 157.556 158.072 159.578 158.072C161.347 158.072 162.737 157.53 163.748 156.447C164.791 155.363 165.312 153.893 165.312 152.036C165.312 150.396 164.807 149.112 163.796 148.183C162.816 147.224 161.616 146.326 160.194 145.491L155.93 142.984C155.14 143.757 154.524 144.779 154.081 146.048C153.671 147.286 153.465 148.678 153.465 150.226ZM196.168 152.083L195.552 158.304H174.133V154.218L179.914 149.762C182.599 147.688 184.368 145.63 185.221 143.587C186.106 141.514 186.548 139.455 186.548 137.413C186.548 135.37 186.153 133.699 185.364 132.399C184.605 131.068 183.342 130.403 181.573 130.403L175.412 139.688H174.607L174.702 131.053C176.06 130.557 177.592 130.186 179.298 129.939C181.036 129.66 182.852 129.521 184.747 129.521C188.507 129.521 191.287 130.279 193.088 131.795C194.92 133.281 195.836 135.293 195.836 137.831C195.836 140.802 194.746 143.185 192.566 144.98C190.386 146.775 187.291 148.462 183.279 150.04L178.445 151.944V152.083H196.168ZM175.791 131.47L179.061 130.681C178.556 130.774 178.019 130.898 177.45 131.053C176.913 131.176 176.36 131.316 175.791 131.47ZM199.088 158.304V157.514L203.779 156.122V134.21L199.088 135.324V134.256L208.755 129.66H212.451V156.122L217 157.514V158.304H199.088Z" fill="#052962"/>
</svg>
